<?xml version="1.0" encoding="UTF-8" standalone="no"?>
<!-- Created with Inkscape (http://www.inkscape.org/) -->

<svg
   xmlns:dc="http://purl.org/dc/elements/1.1/"
   xmlns:cc="http://creativecommons.org/ns#"
   xmlns:rdf="http://www.w3.org/1999/02/22-rdf-syntax-ns#"
   xmlns:svg="http://www.w3.org/2000/svg"
   xmlns="http://www.w3.org/2000/svg"
   xmlns:sodipodi="http://sodipodi.sourceforge.net/DTD/sodipodi-0.dtd"
   xmlns:inkscape="http://www.inkscape.org/namespaces/inkscape"
   id="svg2"
   version="1.1"
   inkscape:version="0.91 r13725"
   xml:space="preserve"
   width="745.94427"
   height="250"
   viewBox="0 0 745.94427 250"
   sodipodi:docname="logo.svg"
   inkscape:export-filename="C:\Projects\WTactics\work\logo2.png"
   inkscape:export-xdpi="72"
   inkscape:export-ydpi="72"><metadata
     id="metadata8"><rdf:RDF><cc:Work
         rdf:about=""><dc:format>image/svg+xml</dc:format><dc:type
           rdf:resource="http://purl.org/dc/dcmitype/StillImage" /><dc:title></dc:title></cc:Work></rdf:RDF></metadata><defs
     id="defs6" /><sodipodi:namedview
     pagecolor="#ffffff"
     bordercolor="#666666"
     borderopacity="1"
     objecttolerance="10"
     gridtolerance="10"
     guidetolerance="10"
     inkscape:pageopacity="0"
     inkscape:pageshadow="2"
     inkscape:window-width="1536"
     inkscape:window-height="801"
     id="namedview4"
     showgrid="false"
     inkscape:zoom="0.89702955"
     inkscape:cx="325.61023"
     inkscape:cy="184.56662"
     inkscape:window-x="-8"
     inkscape:window-y="2"
     inkscape:window-maximized="1"
     inkscape:current-layer="g4186"
     fit-margin-top="0"
     fit-margin-left="0"
     fit-margin-right="0"
     fit-margin-bottom="0" /><g
     id="g10"
     inkscape:groupmode="layer"
     inkscape:label="arcmage logo example"
     transform="matrix(1.25,0,0,-1.25,0.92490525,651.18111)"><g
       id="g12"><g
         id="g4186"
         transform="matrix(1.5694245,0,0,1.5694245,-60.768426,-302.08276)"><g
           id="g4172"
           transform="translate(-68.470265,-133.52687)"><path
             d="m 222.23,650.855 c -2.23,0.828 1.75,-0.618 -1.582,0.445 -0.328,0.105 -0.625,0.301 -0.957,0.394 -1.339,0.383 -2.82,0.473 -4.191,0.707 -6.027,0.258 -11.906,-1.371 -17.699,-2.812 -1.278,-0.402 -2.574,-0.742 -3.828,-1.207 -2.512,-0.922 -5.805,-2.434 -8.137,-3.727 -1.293,-0.718 -4.875,-3.316 -3.785,-2.32 1.422,1.297 2.883,2.938 4.781,3.227 1.508,0.234 -2.297,-2.012 -3.445,-3.02 -2.625,-2.711 -3.977,-3.898 -6.164,-7.039 -0.821,-1.176 -1.496,-2.445 -2.203,-3.695 -1.43,-2.524 -2.657,-4.715 -3.547,-7.473 -0.391,-1.199 -0.602,-2.453 -0.903,-3.68 -0.855,-4.707 -0.699,-9.507 0.551,-14.14 0.695,-2.582 1.379,-3.813 2.484,-6.227 2.797,-5.09 0.215,-0.797 3.524,-5.262 0.539,-0.73 0.973,-1.535 1.508,-2.269 0.836,-1.145 1.859,-2.145 2.679,-3.301 0.293,-0.41 0.524,-0.863 0.782,-1.297 l 0.519,-1.035 c 0.309,-0.437 -7.418,-5.844 -7.722,-5.41 l -0.508,1.043 c -1.25,1.465 -2.574,2.883 -3.813,4.355 -1.941,2.321 -3.57,4.872 -5.215,7.403 -0.48,1 -1.031,1.969 -1.437,3.004 -0.414,1.054 -0.707,2.156 -1.016,3.246 -1.351,4.812 -1.593,9.043 -0.758,13.996 0.258,1.195 0.379,2.426 0.77,3.586 0.441,1.301 1.121,2.508 1.703,3.75 0.578,1.234 1.125,2.488 1.785,3.679 2.211,3.997 5.02,7.594 8.344,10.719 6.777,5.918 3.906,3.617 15.777,11.774 1.293,0.89 2.633,1.715 4.008,2.476 3.715,2.063 7.727,3.504 11.758,4.793 5.535,1.414 11.246,2.75 17,2.321 1.352,-0.239 2.785,-0.329 4.086,-0.782 0.32,-0.109 0.605,-0.308 0.926,-0.414 1.566,-0.519 0.511,0.11 1.461,-0.531 0.3,-0.426 -7.239,-5.703 -7.536,-5.277 z"
             style="fill:#38170a;fill-opacity:1;fill-rule:nonzero;stroke:none"
             id="path14"
             inkscape:connector-curvature="0" /><path
             d="m 229.789,656.843 c -0.004,-0.215 0.024,-0.43 -0.016,-0.641 -0.066,-0.371 -0.226,-0.722 -0.289,-1.093 -0.093,-0.547 -0.089,-1.106 -0.183,-1.653 -0.375,-2.242 -0.903,-4.058 -1.363,-6.316 -0.286,-1.403 -0.52,-2.813 -0.782,-4.223 -0.367,-1.562 -0.777,-3.117 -1.101,-4.687 -0.313,-1.539 -0.524,-3.098 -0.813,-4.645 -0.804,-4.289 -1.711,-8.57 -2.304,-12.898 -0.161,-1.164 -0.243,-2.34 -0.364,-3.508 -1.07,-7.547 0.043,0.695 -0.73,-6.215 -0.102,-0.934 -0.274,-1.859 -0.375,-2.797 -0.086,-0.805 -0.09,-1.621 -0.18,-2.43 -0.875,-7.589 0.051,2.332 -0.519,-4.066 -0.36,-1.371 -0.364,-2.793 -0.543,-4.184 -0.051,-0.375 -0.172,-0.734 -0.215,-1.109 -0.035,-0.289 -0.02,-0.586 -0.032,-0.879 l -0.16,-0.988 c 0.192,-1.438 0.438,-2.906 0.297,-4.356 -0.101,-0.843 0.164,-2.293 -0.582,-2.879 0.293,-0.417 -7.14,-5.625 -7.437,-5.203 0.066,0.051 0.164,0.078 0.199,0.157 0.226,0.461 0.141,2.05 0.254,2.629 0.015,1.468 -0.176,2.894 -0.297,4.355 l 0.094,0.941 c -0.047,0.25 -0.153,0.5 -0.145,0.758 0.016,0.375 0.168,0.735 0.215,1.106 0.047,0.379 0.023,0.757 0.066,1.132 0.36,3.153 0.149,-0.367 0.289,2.922 0.137,1.055 0.403,3.02 0.481,4.039 0.344,4.625 -0.188,0.055 0.289,5.039 0.098,0.997 0.258,1.985 0.352,2.981 0.093,1.035 0.14,2.078 0.21,3.117 0.743,5.387 1.305,10.82 2.321,16.164 0.308,1.61 0.695,3.199 1.043,4.801 0.332,1.539 0.664,3.078 0.992,4.613 1.25,4.938 2.625,9.84 3.852,14.782 -0.293,0.421 7.179,5.656 7.476,5.234 z"
             style="fill:#38170a;fill-opacity:1;fill-rule:nonzero;stroke:none"
             id="path16"
             inkscape:connector-curvature="0" /><path
             d="m 234.734,635.671 c -0.07,-1.297 0.102,-2.594 0.102,-3.887 0.004,-0.851 -0.082,-1.699 -0.09,-2.55 -0.008,-0.926 0.067,-1.856 0.035,-2.782 -0.035,-1.023 -0.156,-2.039 -0.234,-3.062 -0.082,-7.742 0.082,1.679 -0.285,-6.555 -0.051,-1.121 0.011,-2.25 -0.051,-3.371 -0.063,-1.129 -0.238,-2.25 -0.32,-3.379 -0.235,-4.258 -0.09,-2.152 -0.434,-6.312 0.035,-2.45 -0.402,-4.86 -0.594,-7.297 -0.039,-0.508 -0.035,-1.016 -0.097,-1.524 -0.446,-3.672 -0.098,0.582 -0.289,-1.941 0.242,-3.188 0.128,-0.738 -7.301,-5.301 -0.207,-0.125 0.16,0.461 0.226,0.699 0.106,0.383 0.192,0.774 0.278,1.16 0.281,1.27 0.539,2.543 0.816,3.809 0.172,0.844 0.348,1.688 0.512,2.531 0.566,2.938 1.14,5.864 1.945,8.75 0.121,0.438 1.918,6.285 2.035,6.664 2.082,5.118 3.567,10.664 7.008,15.102 0.547,0.707 1.192,1.328 1.789,1.992 4.5,3.742 3.297,2.836 11.797,8.324 0.594,0.387 2.59,1.082 3.328,1.207 0.68,0.114 1.906,-0.019 2.586,-0.07 1.977,-0.164 3.082,-1.48 3.727,-3.234 0.511,-2.168 -0.539,-3.832 -1.797,-5.5 -1.598,-1.899 -3.578,-3.383 -5.602,-4.789 -10.344,-7.207 -6.472,-4.852 -11.64,-7.922 -2.493,-1.676 -5.211,-2.914 -7.942,-4.133 -3.558,-1.129 -5.492,-3.16 5.985,4.687 0.031,0.02 -0.008,-0.101 0.027,-0.105 0.113,-0.008 0.223,0.051 0.336,0.078 0.918,0.156 1.848,0.16 2.765,0.242 1.594,0.137 0.473,0.242 1.79,0.028 3.039,-0.153 4.589,-2.368 6.035,-4.758 0.804,-1.621 0.984,-1.801 1.488,-3.539 0.168,-0.574 0.223,-1.18 0.406,-1.754 0.16,-0.508 0.461,-0.969 0.617,-1.481 0.184,-0.597 0.461,-2.449 0.559,-3.074 0.547,-1.758 0.508,-3.605 0.715,-5.41 0.269,-1.355 0.176,-0.676 0.289,-2.035 0.383,-1.391 0.187,-2.918 0.723,-4.266 0.066,-0.156 0.136,-0.312 0.203,-0.472 0.097,-0.125 0.226,-0.231 0.297,-0.375 0.074,-0.141 0.019,-0.344 0.125,-0.461 0.359,-0.403 0.652,0.015 0.781,-0.696 0.039,-0.027 0.082,-0.05 0.125,-0.074 0.297,-0.422 -7.153,-5.637 -7.449,-5.219 -0.032,0.032 -0.067,0.063 -0.102,0.094 -0.312,0.207 -0.168,0.07 -0.398,0.441 -0.133,0.102 -0.336,0.083 -0.461,0.2 -0.157,0.148 -0.571,1.082 -0.633,1.304 -0.527,1.352 -0.613,2.793 -0.781,4.223 -0.411,1.441 -0.496,2.922 -0.754,4.395 -0.078,0.453 -0.227,0.894 -0.293,1.351 -0.078,0.52 -0.094,1.047 -0.141,1.57 -0.433,1.504 -0.808,3.02 -1.211,4.532 -0.156,0.578 -0.219,1.179 -0.426,1.742 -0.433,1.191 -1.273,2.207 -1.636,3.433 -0.266,0.555 -0.485,1.137 -0.801,1.668 -0.766,1.29 -1.727,2.153 -3.031,2.836 -0.286,0.149 -0.559,0.336 -0.868,0.43 -0.296,0.09 -0.617,0.074 -0.921,0.109 -1.536,-0.023 -3.059,-0.14 -4.582,-0.289 -0.094,0.004 -0.344,0.043 -0.266,0.098 3.871,2.773 5.551,4.668 9.195,5.941 2.785,1.247 5.528,2.563 8.09,4.239 4.059,2.445 2.324,1.465 -4.281,-3.227 -0.649,-0.461 1.308,0.891 1.941,1.363 1.438,1.082 2.781,2.297 3.977,3.645 1.238,1.617 2.554,3.516 2.015,5.652 -0.878,1.774 -1.824,2.852 -3.91,3.11 -1.578,0.043 -2.988,-0.043 -4.492,-0.602 -2.953,-1.094 -7.195,-4.223 4.484,3.774 0.692,0.476 -1.296,-1.067 -1.945,-1.602 -0.598,-0.664 -1.254,-1.281 -1.797,-1.992 -3.32,-4.371 -4.441,-9.93 -6.648,-14.852 -1.031,-3.273 -2.141,-6.554 -3.016,-9.875 -0.738,-2.785 -1.246,-5.636 -1.98,-8.426 -0.332,-1.328 -4.399,-18.644 -9.434,-11.16 -0.137,1.731 0.059,3.461 0.129,5.188 0.031,0.781 -0.012,1.566 0.023,2.347 0.047,0.938 0.149,1.872 0.223,2.805 0.211,6.551 1.113,13.07 1.113,19.633 0.114,1.961 0.141,3.922 0.25,5.879 0.09,1.57 0.211,3.141 0.356,4.707 0.039,0.43 0.156,0.851 0.187,1.281 0.016,0.266 -0.035,0.535 -0.05,0.801 -0.301,0.43 7.254,5.719 7.55,5.289 z"
             style="fill:#38170a;fill-opacity:1;fill-rule:nonzero;stroke:none"
             id="path18"
             inkscape:connector-curvature="0" /><path
             d="m 279.922,632.089 c -1.813,0.426 -3.524,-0.086 -5.262,-0.574 -0.512,-0.207 -1.031,-0.387 -1.527,-0.625 -0.574,-0.278 -2.195,-1.301 -1.684,-0.918 1.992,1.48 3.981,2.992 6.133,4.226 0.68,0.391 -1.152,-1.078 -1.672,-1.668 -0.996,-1.125 -2.289,-3.05 -3.117,-4.234 -2.652,-4.598 -4.391,-9.695 -5.297,-14.914 -0.082,-3.039 -0.164,-1.481 0.234,-4.391 0.106,-0.757 0.141,-1.527 0.309,-2.273 0.164,-0.734 0.461,-1.43 0.684,-2.149 0.222,-0.71 0.343,-1.457 0.648,-2.136 0.277,-0.617 0.719,-1.145 1.078,-1.719 0.746,-1.672 2,-2.887 3.301,-4.117 0.355,-0.336 0.672,-0.715 1.063,-1.008 0.371,-0.273 0.812,-0.438 1.203,-0.68 0.328,-0.199 0.632,-0.429 0.949,-0.644 1.457,-0.762 0.34,-0.254 1.875,-0.758 0.258,-0.082 0.496,-0.234 0.762,-0.285 0.957,-0.172 2.054,-0.024 3,0.113 2.183,0.441 4.195,1.422 6.211,2.336 0.503,0.199 0.945,0.523 1.441,0.746 4.351,1.969 -4.293,-3.191 -6.617,-4.754 -0.293,0.422 7.156,5.641 7.453,5.219 -5.75,-4.203 -5.563,-4.543 -9.965,-6.594 -2.016,-0.875 -3.953,-1.949 -6.16,-2.301 -1.977,-0.273 -3.906,-0.086 -5.684,0.895 -1.668,0.785 -3.406,1.898 -4.648,3.289 -0.813,0.91 -1.297,2.094 -2.25,2.895 -1.004,1.863 -2.074,3.847 -2.488,5.949 -0.153,0.769 -0.141,1.562 -0.204,2.344 -0.203,2.648 -0.156,1.804 -0.121,4.472 0.086,0.75 0.121,1.508 0.258,2.25 0.36,1.996 0.809,3.012 1.449,4.965 0.266,0.813 0.461,1.648 0.782,2.441 0.789,1.954 1.683,3.379 2.722,5.2 0.461,0.722 0.875,1.472 1.379,2.164 0.719,0.976 2.547,3.086 3.547,3.832 4.086,3.066 8.035,6.453 12.813,8.34 1.023,0.25 2.972,0.769 4.011,0.586 0.157,-0.028 0.278,-0.168 0.434,-0.2 0.18,-0.035 0.367,0 0.551,-0.004 0.3,-0.429 -7.293,-5.746 -7.594,-5.316 z"
             style="fill:#38170a;fill-opacity:1;fill-rule:nonzero;stroke:none"
             id="path20"
             inkscape:connector-curvature="0" /><path
             d="m 281.91,637.319 c 1.18,0.278 2.387,0.332 3.59,0.457 0.945,0.079 2.008,0.161 2.938,-0.101 0.488,-0.137 0.941,-0.387 1.421,-0.543 0.61,-0.34 1.032,-0.512 1.508,-1.055 0.348,-0.394 1.496,-2.109 1.645,-2.566 0.129,-0.391 0.113,-0.817 0.172,-1.227 0.781,-1.836 0.867,-3.82 1.082,-5.773 0.214,-0.789 0,-1.613 0.062,-2.41 0.02,-0.215 0.117,-0.418 0.141,-0.633 0.054,-0.602 -0.055,-0.902 -0.176,-1.496 -0.016,-0.196 -0.031,-0.395 -0.047,-0.59 0.297,-0.426 -7.199,-5.676 -7.496,-5.254 0.008,0.195 0.02,0.391 0.027,0.582 0.012,0.16 0.082,1.262 0.067,1.418 -0.024,0.211 -0.125,0.406 -0.168,0.613 -0.164,0.817 -0.106,1.637 0,2.457 -0.199,2.254 0.074,-0.504 -0.25,1.727 -0.047,0.312 -0.031,0.637 -0.094,0.945 -0.062,0.313 -0.219,0.602 -0.281,0.914 -0.516,2.5 0.316,-0.25 -0.481,2.168 -0.664,1.344 -0.402,0.641 -0.785,2.114 -0.101,0.23 -1.457,2.21 -1.644,2.39 -0.211,0.199 -0.512,0.289 -0.766,0.438 -1.496,0.32 -2.93,0.832 -4.488,0.55 -1.129,-0.003 -2.25,-0.179 -3.367,-0.3 -0.293,0.418 7.097,5.593 7.39,5.175 z"
             style="fill:#38170a;fill-opacity:1;fill-rule:nonzero;stroke:none"
             id="path22"
             inkscape:connector-curvature="0" /><path
             d="m 310.715,627.948 c -0.852,0.309 -1.86,0.727 -2.789,0.668 -0.344,-0.023 -0.68,-0.121 -1.016,-0.179 -0.433,-0.161 -0.883,-0.293 -1.301,-0.489 -0.48,-0.222 -0.929,-0.511 -1.394,-0.769 2.109,1.453 4.129,3.055 6.332,4.367 0.625,0.371 -1.074,-0.988 -1.563,-1.527 -1.308,-1.453 -1.925,-2.52 -3.027,-4.176 -3.426,-5.402 -4.418,-10.981 -5.086,-17.211 -0.344,-3.129 -0.394,-6.215 0.285,-9.297 0.141,-0.629 0.231,-1.277 0.485,-1.867 0.226,-0.531 0.621,-0.973 0.933,-1.457 0.903,-1.426 1.696,-2.059 3.039,-2.973 0.309,-0.207 0.571,-0.484 0.903,-0.644 0.047,-0.024 1.937,-0.551 2.058,-0.582 0.293,-0.055 0.582,-0.168 0.879,-0.164 0.402,0.003 0.789,0.136 1.188,0.183 1.101,0.133 2.199,0.297 3.281,0.551 0.137,0.039 0.273,0.074 0.41,0.113 0.305,-0.433 -7.34,-5.785 -7.641,-5.351 -0.113,-0.02 -0.222,-0.039 -0.336,-0.059 -1.832,-0.375 -3.613,-0.926 -5.515,-0.691 -0.985,0.32 -2.137,0.656 -3.035,1.175 -0.367,0.211 -0.672,0.524 -1.016,0.778 -0.394,0.293 -0.867,0.5 -1.203,0.863 -0.352,0.387 -0.539,0.895 -0.809,1.34 -0.625,1.059 -1.269,1.988 -1.597,3.195 -0.184,0.68 -0.219,1.387 -0.317,2.082 -0.332,2.36 -0.461,4.715 -0.148,7.094 0.308,2.859 0.547,5.777 1.301,8.566 0.824,3.043 2.129,5.946 3.769,8.633 1.258,1.836 1.766,2.739 3.25,4.332 2.934,3.153 8.309,6.352 10.953,8.168 0.426,0.293 0.887,0.535 1.356,0.746 0.355,0.157 0.738,0.235 1.109,0.352 0.336,0.058 0.672,0.16 1.012,0.176 0.937,0.043 1.871,-0.489 2.754,-0.692 0.297,-0.422 -7.203,-5.676 -7.504,-5.254 z"
             style="fill:#38170a;fill-opacity:1;fill-rule:nonzero;stroke:none"
             id="path24"
             inkscape:connector-curvature="0" /><path
             d="m 318.48,633.249 c -0.605,-3.785 -1.476,-7.519 -2.144,-11.297 -0.898,-3.543 -1.484,-7.168 -2.082,-10.777 -0.219,-0.777 -0.137,-0.453 -0.258,-0.969 0.297,-0.426 -7.238,-5.699 -7.535,-5.273 0.059,0.476 0.016,0.172 0.168,0.902 0.207,1.289 0.156,2.469 0.309,3.723 0.269,2.222 0.867,4.418 1.175,6.636 0.817,3.969 1.922,7.86 2.856,11.793 -0.297,0.426 7.215,5.684 7.511,5.262 z"
             style="fill:#38170a;fill-opacity:1;fill-rule:nonzero;stroke:none"
             id="path26"
             inkscape:connector-curvature="0" /><path
             d="m 322.512,628.53 c 3.218,1.973 6.652,3.469 10.246,4.594 3.023,0.617 7.176,1.254 10.086,-0.152 0.48,-0.231 0.879,-0.613 1.316,-0.918 2.848,-2.305 3.156,-4.801 3.508,-8.223 0.031,-0.512 0.117,-1.019 0.09,-1.531 -0.035,-0.582 -0.18,-1.152 -0.27,-1.731 -0.312,-1.988 -0.711,-3.957 -1.437,-5.843 -0.297,-0.77 -0.672,-1.504 -1.008,-2.258 -2.242,-4.996 -5.93,-9.125 -9.871,-12.848 -2.988,-2.855 -6.375,-5.242 -9.5,-7.937 -0.766,-0.637 -0.402,-0.328 -1.094,-0.922 0.297,-0.422 -7.195,-5.668 -7.488,-5.242 0.519,0.465 0.265,0.234 0.762,0.687 3.05,2.574 6.25,4.973 9.168,7.703 3.992,3.742 7.66,7.907 9.968,12.922 0.36,0.77 0.762,1.52 1.082,2.309 1.196,2.929 1.77,6.086 1.817,9.242 -0.145,2 -0.414,4.262 -1.43,6.043 -0.539,0.945 -1.242,1.488 -2.027,2.215 -0.504,0.261 -0.981,0.582 -1.508,0.785 -3.367,1.305 -7.008,0.82 -10.399,-0.066 -3.437,-0.926 -6.449,-2.297 -9.515,-4.083 -0.297,0.426 7.207,5.68 7.504,5.254 z"
             style="fill:#38170a;fill-opacity:1;fill-rule:nonzero;stroke:none"
             id="path28"
             inkscape:connector-curvature="0" /><path
             d="m 363.914,624.421 c -3.523,-3.422 -6.351,-7.434 -9.117,-11.461 -2.059,-3.094 -3.785,-6.387 -5.297,-9.773 -0.539,-1.2 -1.652,-3.825 -2.008,-5.172 -0.176,-0.649 -0.215,-1.324 -0.324,-1.989 -0.117,-1.535 -0.094,-2.562 0.816,-3.82 0.196,-0.265 0.368,-0.574 0.633,-0.765 0.707,-0.512 1.422,-0.434 2.238,-0.493 5.118,0.903 9.622,3.735 14.02,6.356 2.379,1.422 4.676,2.969 6.973,4.519 0.621,0.418 2.476,1.692 1.863,1.258 -2.141,-1.512 -8.594,-6.008 -6.449,-4.5 2.996,2.102 6,4.192 9,6.289 l -6.699,-4.676 c 0.304,0.348 1.078,0.672 1.179,1.2 0.012,0.062 -0.062,0.109 -0.094,0.164 -0.296,0.422 7.145,5.633 7.442,5.211 0.246,-0.356 -0.02,-0.485 -0.34,-0.774 -2.793,-2.535 -7.555,-2.832 -9.234,-6.547 2.214,1.551 8.859,6.215 6.644,4.661 -6.07,-4.258 -12.082,-8.625 -18.414,-12.497 -2.476,-1.496 -4.941,-2.957 -7.574,-4.164 -1.234,-0.566 -2.992,-1.324 -4.359,-1.636 -0.504,-0.118 -1.032,-0.118 -1.547,-0.176 -0.422,0.027 -0.852,-0.004 -1.266,0.082 -1.477,0.312 -2.496,1.715 -2.762,3.148 -0.093,0.508 -0.054,1.035 -0.078,1.551 0.078,0.645 0.102,1.297 0.235,1.93 1.125,5.355 4.316,10.004 6.949,14.695 3.058,4.262 6.148,8.547 10.039,12.106 -0.301,0.425 7.23,5.699 7.531,5.273 z"
             style="fill:#38170a;fill-opacity:1;fill-rule:nonzero;stroke:none"
             id="path30"
             inkscape:connector-curvature="0" /><path
             d="m 354.129,635.429 c 1.836,0.301 3.68,-0.043 5.488,-0.344 4.012,-0.226 6.613,-1.844 9.797,-4.117 1.566,-1.797 3.172,-3.664 4.281,-5.793 0.403,-0.77 0.641,-1.617 1.008,-2.402 3.613,-7.668 -1.168,3.148 2.238,-4.668 1.364,-3.051 2.106,-6.329 3.321,-9.434 1.609,-4.125 0.238,0.047 1.511,-4.074 0.711,-1.641 1.325,-3.324 2.04,-4.961 0.593,-1.36 1,-2.07 1.281,-3.539 0.16,-0.27 0.336,-0.528 0.472,-0.805 0.5,-1.008 0.082,-0.562 0.735,-1.402 0.39,-0.504 0.789,-0.844 1.082,-1.422 0.797,-0.305 1.57,-0.426 2.406,-0.5 -0.113,-0.082 -0.23,-0.168 -0.344,-0.25 0.293,-0.418 -7.086,-5.586 -7.379,-5.168 l 0.274,0.203 c -0.82,0.137 -1.758,-0.105 -2.481,0.449 -0.496,0.559 -0.207,0.301 -0.882,0.754 -0.411,0.445 -0.289,0.781 -0.606,1.285 -1.516,2.438 0.434,-1.414 -0.961,1.477 -0.582,1.871 0,0.219 -0.883,2.109 -0.632,1.352 -0.531,1.407 -1.164,2.824 -1.398,3.149 -0.211,0.008 -1.429,3.458 -0.918,2.046 -1.625,4.152 -2.469,6.234 -0.309,0.766 -0.676,1.504 -0.953,2.281 -1.852,5.242 0.511,-0.277 -1.754,4.75 -1.805,4.953 0.105,0.07 -2.117,4.754 -0.371,0.781 -0.621,1.621 -1.004,2.402 -1.074,2.168 -2.559,4.086 -4.196,5.856 -1.16,0.941 -2.027,1.742 -3.347,2.453 -1.321,0.715 -2.004,0.809 -3.391,1.258 -0.453,0.144 -0.887,0.359 -1.348,0.465 -0.46,0.101 -0.933,0.101 -1.402,0.156 -1.746,0.273 -3.476,0.465 -5.234,0.519 -0.297,0.422 7.117,5.614 7.41,5.192 z"
             style="fill:#38170a;fill-opacity:1;fill-rule:nonzero;stroke:none"
             id="path32"
             inkscape:connector-curvature="0" /><path
             d="m 405.27,626.206 c -0.325,0.117 -0.559,0.414 -0.879,0.539 -0.895,0.348 -2.293,0.559 -3.243,0.598 -1.117,-0.184 -2.289,-0.098 -3.398,-0.356 -1.504,-0.347 -2.883,-1.035 -4.25,-1.718 -4.848,-3.336 3.887,2.683 4.867,3.207 0.586,0.316 -0.898,-0.989 -1.301,-1.52 -1.336,-1.75 -2.386,-3.73 -3.453,-5.648 -0.793,-2.578 -2.043,-5.067 -2.133,-7.817 -0.046,-1.343 0.165,-2.683 0.243,-4.027 0.57,-3.844 1.793,-7.582 3.867,-10.871 1.746,-2.567 3.406,-3.832 6.32,-4.801 2.567,-0.914 5.121,-0.289 7.645,0.442 1.277,0.398 2.496,0.953 3.711,1.507 0.304,-0.433 -7.395,-5.824 -7.7,-5.386 -1.234,-0.594 -2.484,-1.141 -3.789,-1.567 -1.824,-0.547 -3.48,-0.855 -5.386,-0.781 -0.411,0.016 -0.828,-0.031 -1.231,0.043 -0.332,0.062 -0.629,0.238 -0.941,0.359 -1.086,0.41 -2.453,0.899 -3.43,1.512 -1.258,0.797 -2.07,2.094 -3.07,3.16 -2.117,3.207 -3.453,6.922 -4.11,10.703 0.02,0.742 0.063,1.489 0.067,2.231 0.004,0.66 -0.078,1.32 -0.047,1.98 0.133,2.715 1.086,5.324 2.117,7.805 1.035,2.047 2.109,3.902 3.535,5.707 0.399,0.504 0.735,1.082 1.242,1.477 3.86,3.003 7.122,5.23 10.844,7.792 2.348,1.129 4.738,2.02 7.395,1.899 1.347,-0.234 2.879,-0.328 3.953,-1.254 0.297,-0.422 -7.149,-5.637 -7.445,-5.215 z"
             style="fill:#38170a;fill-opacity:1;fill-rule:nonzero;stroke:none"
             id="path34"
             inkscape:connector-curvature="0" /><path
             d="m 415.977,614.694 c 0.089,-2.847 0.086,-5.687 0.296,-8.531 0.055,-5.133 -0.402,-10.258 -0.347,-15.383 -0.063,-0.808 -0.16,-1.617 -0.192,-2.425 -0.05,-1.368 0.051,-2.739 0.024,-4.106 -0.031,-1.527 -0.207,-3.023 -0.367,-4.539 -0.106,-0.891 -0.418,-1.871 -1.114,-2.402 -7.777,-5.949 -4.675,-5.211 -8.203,-5.973 l 2.926,6.266 c 0.605,-0.071 1.215,-0.047 1.82,-0.121 0.375,-0.047 0.735,-0.204 1.11,-0.243 2.734,-0.257 0.058,0.247 1.683,-0.086 3.289,0.348 0.559,0.129 -6.758,-5.566 -0.085,-0.07 0.176,0.141 0.239,0.234 1.351,3.926 0.746,9.028 0.738,12.715 0.121,5.153 0.387,10.297 0.43,15.45 -0.102,7.718 -0.016,-3.231 0.121,4.214 0.008,0.481 -0.086,0.957 -0.086,1.442 0.004,1.097 0.117,2.226 0.234,3.312 -0.293,0.465 7.149,6.207 7.446,5.742 z"
             style="fill:#38170a;fill-opacity:1;fill-rule:nonzero;stroke:none"
             id="path36"
             inkscape:connector-curvature="0" /><path
             d="m 440.656,625.472 c -0.222,0.312 0.004,0.711 -0.129,1.031 -0.078,0.199 -0.285,0.316 -0.422,0.477 -0.546,0.64 -0.929,0.941 -1.707,1.277 -2.562,1.078 -5.015,-0.16 -7.253,-1.422 2.031,1.375 3.937,2.953 6.089,4.133 0.743,0.406 -1.238,-1.152 -1.8,-1.781 -3.008,-3.391 -4.821,-7.446 -6.524,-11.586 -1.262,-3.676 -1.094,-2.789 -1.851,-6.453 -0.211,-1.032 -0.469,-2.059 -0.582,-3.11 -0.286,-2.64 0.097,-5.387 0.304,-8.019 0.637,-1.282 0.754,-2.758 1.328,-4.059 0.895,-2.043 2.496,-3.531 4.325,-4.703 0.41,-0.18 0.796,-0.418 1.226,-0.535 2.555,-0.699 5.266,0.109 7.672,0.914 1.773,0.676 3.5,1.449 5.188,2.312 0.304,-0.433 -7.336,-5.781 -7.637,-5.347 -1.766,-0.95 -3.602,-1.735 -5.449,-2.496 -2.868,-0.911 -5.934,-1.707 -8.778,-0.293 -0.426,0.23 -0.894,0.402 -1.281,0.699 -0.398,0.308 -0.703,0.723 -1.051,1.09 -0.394,0.41 -0.832,0.789 -1.176,1.242 -1.234,1.633 -1.765,3.637 -2.418,5.535 -0.148,0.793 -0.371,1.574 -0.445,2.379 -0.187,1.957 0.012,3.738 0.199,5.687 0.094,0.973 0.141,1.957 0.317,2.918 0.367,2.008 1.215,4.5 1.816,6.434 1.387,3.219 2.707,6.402 4.731,9.293 3.457,4.941 8.652,7.844 13.613,11.219 2.18,1.215 4.59,2.535 7.039,1.269 1.141,-0.648 2.094,-1.445 2.152,-2.855 0.297,-0.422 -7.199,-5.672 -7.496,-5.25 z"
             style="fill:#38170a;fill-opacity:1;fill-rule:nonzero;stroke:none"
             id="path38"
             inkscape:connector-curvature="0" /><path
             d="m 418.82,605.976 c 5.051,4.062 10.364,7.851 16.317,10.433 2.508,1.024 5.164,1.496 7.859,1.055 0.984,-0.16 3.223,-0.836 4.141,-1.098 0.16,-0.066 3.785,-1.574 3.902,-1.629 0.633,-0.296 1.207,-0.711 1.848,-0.988 0.707,-0.308 1.468,-0.484 2.187,-0.773 7.449,-2.989 -3.711,1.218 3.969,-1.637 3.414,-1.012 6.844,-2 10.41,-2.156 3.906,0 7.774,0.722 11.57,1.57 1.551,0.293 3.067,0.719 4.594,1.102 0.082,0.019 1.18,0.457 1.332,0.207 0.289,-0.414 -6.988,-5.508 -7.273,-5.094 -2.106,-0.731 -4.321,-1.168 -6.485,-1.699 -3.793,-0.782 -7.617,-1.743 -11.523,-1.539 -0.781,0.043 -2.434,0.109 -3.199,0.226 -2.516,0.383 -4.957,1.188 -7.422,1.781 -2.051,0.758 -4.113,1.543 -6.106,2.45 -1.929,0.875 -3.785,1.922 -5.812,2.57 -4.406,1.473 -7.461,1.887 -11.887,0.125 -0.64,-0.285 -1.289,-0.555 -1.922,-0.856 -0.629,-0.296 -1.254,-0.605 -1.859,-0.941 -2.832,-1.555 -6.918,-4.637 4.613,3.477 0.61,0.429 -2.097,-1.5 -1.781,-1.352 0.297,-0.426 -7.176,-5.656 -7.473,-5.234 z"
             style="fill:#38170a;fill-opacity:1;fill-rule:nonzero;stroke:none"
             id="path40"
             inkscape:connector-curvature="0" /><path
             d="m 106.719,602.335 c 2.761,3.024 6.133,5.512 9.48,7.852 3.887,2.711 7.805,5.375 11.703,8.066 6.676,4.035 13.875,7.453 21.582,8.941 1.442,0.278 2.907,0.418 4.36,0.625 4.008,0.461 7.879,-0.171 11.761,-1.078 1.333,-0.312 2.684,-0.574 3.989,-0.996 1.261,-0.406 2.457,-0.988 3.691,-1.472 1.235,-0.489 2.469,-0.969 3.703,-1.454 12.871,-5.55 -5.621,2.395 6.93,-2.898 1.055,-0.441 2.082,-0.953 3.145,-1.383 2.703,-1.086 5.503,-2 8.281,-2.875 3.859,-1.304 7.886,-1.531 11.91,-1.172 2.992,0.27 5.84,1.211 8.742,1.918 0.977,0.34 1.953,0.649 2.918,1.012 0.297,-0.418 -7.105,-5.602 -7.398,-5.184 -1.067,-0.484 -2.149,-0.933 -3.278,-1.257 -2.953,-0.864 -5.933,-1.567 -8.968,-2.079 -4.036,-0.214 -8.122,-0.16 -12.008,1.102 -0.989,0.293 -4.539,1.336 -5.399,1.621 -4.523,1.516 -8.867,3.488 -13.261,5.324 -1.262,0.465 -2.524,0.918 -3.782,1.395 -1.25,0.473 -2.461,1.047 -3.734,1.445 -1.309,0.414 -2.664,0.664 -3.996,0.988 -1.246,0.309 -2.473,0.723 -3.738,0.915 -2.731,0.418 -5.239,0.253 -7.977,0.199 -1.441,-0.203 -2.902,-0.321 -4.328,-0.606 -7.625,-1.539 -14.801,-4.957 -21.469,-8.859 1.668,1.207 3.324,2.426 4.996,3.625 1.078,0.769 -2.148,-1.551 -3.207,-2.348 -2.531,-1.91 -5.027,-3.898 -7.238,-6.179 0.293,-0.418 -7.117,-5.61 -7.41,-5.188 z"
             style="fill:#800000;fill-opacity:1;fill-rule:nonzero;stroke:none"
             id="path42"
             inkscape:connector-curvature="0" /><path
             d="m 284.266,572.991 c 0.074,-0.05 0.156,-0.09 0.226,-0.152 0.094,-0.082 0.16,-0.195 0.254,-0.285 0.133,-0.121 0.281,-0.227 0.418,-0.344 0.164,-0.137 0.32,-0.285 0.492,-0.414 0.434,-0.312 0.899,-0.582 1.34,-0.883 0.602,-0.211 1.121,-0.601 1.707,-0.84 0.313,-0.129 0.641,-0.207 0.961,-0.312 0.695,-0.227 1.02,-0.367 1.731,-0.527 0.289,-0.063 0.585,-0.102 0.878,-0.153 0.54,-0.008 1.063,-0.195 1.598,-0.211 0.309,-0.008 0.613,0.028 0.918,0.055 1.047,0.098 1.879,0.34 2.871,0.672 0.985,0.414 0.988,0.383 1.961,0.945 0.305,0.176 1.188,0.777 0.902,0.563 -3.402,-2.551 -1.472,-1 -0.918,-0.465 0.223,0.219 0.43,0.453 0.645,0.679 0.875,1.086 1.648,2.372 1.734,3.813 0.016,0.242 -0.015,0.48 -0.023,0.723 -0.043,0.234 -0.055,0.472 -0.121,0.699 -0.195,0.637 -0.629,1.305 -1.098,1.762 -1.722,1.675 0.555,-0.704 -0.965,0.91 -0.797,0.562 -1.711,0.91 -2.687,0.972 -0.184,0.012 -0.367,-0.007 -0.551,-0.011 -0.215,-0.043 -0.426,-0.086 -0.637,-0.129 -0.562,-0.114 -0.589,-0.098 -1.148,-0.348 -0.195,-0.086 -0.742,-0.426 -0.57,-0.293 2.867,2.238 2.179,1.609 1.382,0.82 -0.589,-0.734 -1.277,-1.558 -1.464,-2.519 -0.028,-0.152 -0.02,-0.313 -0.028,-0.469 -0.011,-0.172 -0.047,-0.348 -0.039,-0.519 0.024,-0.383 0.149,-0.621 0.297,-0.965 0.234,-0.539 0.461,-0.864 0.816,-1.328 0.293,-0.364 0.68,-0.555 1.079,-0.762 0.285,-0.145 0.328,-0.211 0.656,-0.25 0.129,-0.016 0.258,0 0.387,0.004 0.464,0.035 0.902,0.195 1.343,0.34 0.461,-0.668 -1.867,-2.317 -2.328,-1.649 -0.453,-0.195 -0.918,-0.355 -1.414,-0.394 -0.234,0.011 -0.516,0.011 -0.746,0.074 -0.551,0.152 -0.945,0.578 -1.348,0.957 -0.136,0.109 -0.297,0.195 -0.41,0.328 -0.109,0.137 -0.168,0.309 -0.25,0.465 -0.355,0.695 -0.539,1.176 -0.472,1.976 0.007,0.157 -0.008,0.313 0.023,0.465 0.035,0.176 0.117,0.336 0.18,0.5 0.289,0.739 0.722,1.391 1.238,1.989 1.344,1.308 0.684,0.718 3.551,2.675 0.691,0.477 1.547,0.657 2.355,0.774 0.246,-0.004 0.891,-0.004 1.117,-0.043 0.176,-0.027 0.34,-0.094 0.508,-0.149 0.578,-0.179 1.094,-0.445 1.594,-0.789 0.5,-0.437 1.086,-0.855 1.473,-1.406 0.379,-0.535 0.66,-1.277 0.761,-1.922 0.004,-0.527 0.035,-0.949 -0.082,-1.465 -0.062,-0.269 -0.175,-0.523 -0.265,-0.781 -0.082,-0.238 -0.149,-0.484 -0.262,-0.711 -0.273,-0.551 -0.648,-1.023 -1.008,-1.515 -1.656,-1.704 -2.558,-2.239 -4.859,-3.852 -0.891,-0.625 -1.871,-1.129 -2.879,-1.523 -0.328,-0.11 -0.649,-0.239 -0.981,-0.332 -1.418,-0.391 -2.921,-0.442 -4.359,-0.149 -0.453,0.078 -1.363,0.223 -1.801,0.348 -0.289,0.082 -0.562,0.207 -0.844,0.304 -0.316,0.114 -0.644,0.192 -0.953,0.317 -0.527,0.219 -1.152,0.598 -1.648,0.883 -0.668,0.425 -0.711,0.414 -1.293,0.922 -0.633,0.55 -0.27,0.285 -0.82,0.82 -0.493,0.473 -0.133,0.043 -0.457,0.453 -0.461,0.668 1.867,2.32 2.332,1.652 z"
             style="fill:#800000;fill-opacity:1;fill-rule:nonzero;stroke:none"
             id="path44"
             inkscape:connector-curvature="0" /><path
             d="m 323.441,569.026 c -0.062,0.067 -0.132,0.125 -0.179,0.204 -0.071,0.105 -0.106,0.234 -0.176,0.339 -0.094,0.157 -0.211,0.297 -0.316,0.446 -0.125,0.176 -0.235,0.359 -0.372,0.527 -0.335,0.418 -0.714,0.801 -1.066,1.207 -0.527,0.36 -0.93,0.871 -1.434,1.258 -0.269,0.207 -0.566,0.367 -0.851,0.551 -0.609,0.402 -0.887,0.625 -1.535,0.965 -0.262,0.136 -0.539,0.25 -0.809,0.378 -0.519,0.149 -0.976,0.465 -1.492,0.622 -0.293,0.089 -0.598,0.136 -0.898,0.187 -1.036,0.184 -1.903,0.164 -2.946,0.106 -1.054,-0.145 -1.051,-0.114 -2.133,-0.399 -0.343,-0.094 -1.347,-0.441 -1.015,-0.308 3.937,1.57 1.676,0.578 1.004,0.207 -0.27,-0.149 -0.532,-0.325 -0.797,-0.485 -1.121,-0.82 -2.199,-1.859 -2.649,-3.23 -0.074,-0.227 -0.105,-0.469 -0.16,-0.703 -0.019,-0.235 -0.07,-0.473 -0.062,-0.707 0.023,-0.665 0.273,-1.426 0.609,-1.989 1.234,-2.07 -0.359,0.824 0.699,-1.133 0.625,-0.753 1.418,-1.328 2.348,-1.644 0.172,-0.059 0.355,-0.086 0.535,-0.133 0.219,-0.016 0.434,-0.031 0.649,-0.043 0.57,-0.035 0.593,-0.058 1.195,0.035 0.211,0.032 0.828,0.215 0.629,0.133 -3.344,-1.406 -2.516,-0.984 -1.547,-0.43 0.754,0.555 1.633,1.172 2.058,2.051 0.067,0.141 0.098,0.297 0.145,0.446 0.059,0.164 0.137,0.32 0.172,0.492 0.074,0.375 0.016,0.636 -0.043,1.008 -0.086,0.585 -0.219,0.957 -0.445,1.496 -0.192,0.425 -0.516,0.714 -0.848,1.019 -0.238,0.215 -0.262,0.293 -0.57,0.414 -0.121,0.047 -0.25,0.067 -0.375,0.098 -0.457,0.09 -0.922,0.051 -1.383,0.023 -0.274,0.766 2.394,1.75 2.668,0.985 0.488,0.066 0.98,0.101 1.465,0.007 0.226,-0.07 0.5,-0.144 0.703,-0.269 0.492,-0.289 0.765,-0.805 1.058,-1.273 0.106,-0.145 0.239,-0.266 0.313,-0.426 0.07,-0.16 0.086,-0.344 0.121,-0.516 0.168,-0.766 0.223,-1.277 -0.047,-2.031 -0.047,-0.149 -0.07,-0.305 -0.141,-0.445 -0.082,-0.157 -0.199,-0.293 -0.304,-0.434 -0.465,-0.641 -1.051,-1.156 -1.703,-1.598 -1.633,-0.91 -0.844,-0.511 -4.11,-1.656 -0.789,-0.273 -1.664,-0.223 -2.476,-0.125 -0.235,0.066 -0.86,0.234 -1.067,0.332 -0.164,0.074 -0.304,0.18 -0.457,0.277 -0.508,0.329 -0.937,0.715 -1.332,1.18 -0.375,0.555 -0.832,1.113 -1.066,1.746 -0.227,0.617 -0.309,1.406 -0.242,2.059 0.129,0.504 0.207,0.926 0.453,1.39 0.129,0.243 0.301,0.457 0.453,0.684 0.144,0.207 0.269,0.43 0.433,0.617 0.407,0.465 0.891,0.821 1.364,1.203 2.035,1.211 3.043,1.489 5.679,2.446 1.02,0.371 2.094,0.597 3.168,0.714 0.344,0.02 0.688,0.063 1.032,0.067 1.468,0.004 2.937,-0.34 4.25,-1 0.418,-0.195 1.261,-0.574 1.652,-0.809 0.258,-0.156 0.488,-0.347 0.734,-0.519 0.278,-0.188 0.575,-0.348 0.844,-0.555 0.453,-0.348 0.957,-0.879 1.363,-1.285 0.539,-0.586 0.582,-0.586 1.012,-1.227 0.473,-0.699 0.188,-0.347 0.586,-1.007 0.356,-0.586 0.117,-0.079 0.324,-0.555 0.274,-0.766 -2.398,-1.754 -2.672,-0.988 l 0,0.003 z"
             style="fill:#800000;fill-opacity:1;fill-rule:nonzero;stroke:none"
             id="path46"
             inkscape:connector-curvature="0" /><path
             d="m 328.613,573.925 c 0.246,-0.156 0.551,-0.297 0.887,-0.41 1.086,-0.36 2.164,-0.731 3.289,-1.063 0.899,-0.269 2.543,-0.566 3.469,-0.746 5.66,-1.015 11.687,-1.394 17.687,-1.617 1.801,-0.066 3.602,-0.109 5.403,-0.164 5.25,-0.02 6.277,-0.059 11.636,0.074 2.067,0.051 4.133,0.133 6.2,0.203 2.214,0.078 4.433,0.145 6.648,0.25 2.723,0.129 10.453,0.617 13.133,0.782 8.09,0.656 16.191,1.304 24.344,1.777 1.808,0.105 3.617,0.226 5.433,0.281 1.828,0.051 3.664,0.024 5.496,0.035 5.016,-0.051 4.821,0.02 9.731,-0.293 1.437,-0.09 2.875,-0.187 4.297,-0.328 1.773,-0.176 5.886,-0.722 7.703,-1.023 1.09,-0.18 2.148,-0.399 3.219,-0.598 3.648,-0.812 1.929,-0.398 5.167,-1.23 0.586,0.398 -2.375,1.382 -2.964,0.984 -3.368,0.875 -1.578,0.437 -5.375,1.301 -3.118,0.594 -3.731,0.754 -7.039,1.199 -5.997,0.809 -12.219,1.199 -18.45,1.219 -1.816,-0.016 -3.632,-0.004 -5.445,-0.051 -1.863,-0.047 -3.719,-0.141 -5.578,-0.234 -5.945,-0.293 -6.016,-0.348 -11.988,-0.766 -2.09,-0.145 -4.184,-0.281 -6.274,-0.43 -2.14,-0.152 -4.273,-0.312 -6.41,-0.468 -9.648,-0.7 -3.289,-0.286 -13.082,-0.805 -2.113,-0.11 -4.219,-0.258 -6.34,-0.348 -5.902,-0.254 -11.844,-0.297 -17.765,-0.301 -1.707,0.024 -3.415,0.028 -5.118,0.071 -1.523,0.039 -3.043,0.105 -4.558,0.175 -3.449,0.165 -6.891,0.422 -10.227,0.875 -0.773,0.102 -1.527,0.243 -2.289,0.36 -0.582,0.105 -1.176,0.203 -1.754,0.316 -0.469,0.098 -1.566,0.543 -1.375,0.317 0.242,-0.285 1.039,-0.375 1.578,-0.551 0.082,-0.027 -0.476,0.168 -0.886,0.367 -0.055,0.027 -0.102,0.063 -0.153,0.094 0.446,0.301 -1.804,1.047 -2.25,0.746 z"
             style="fill:#800000;fill-opacity:1;fill-rule:nonzero;stroke:none"
             id="path48"
             inkscape:connector-curvature="0" /><path
             d="m 145.215,571.71 c 0.246,-0.156 0.551,-0.297 0.887,-0.406 1.086,-0.363 2.164,-0.731 3.289,-1.067 0.898,-0.265 2.543,-0.562 3.468,-0.742 5.661,-1.019 11.688,-1.394 17.688,-1.617 1.801,-0.066 3.601,-0.109 5.402,-0.164 5.25,-0.02 6.278,-0.059 11.637,0.07 2.066,0.051 4.133,0.133 6.199,0.207 2.215,0.078 4.434,0.141 6.649,0.246 2.726,0.129 10.453,0.618 13.132,0.786 8.09,0.656 16.192,1.3 24.344,1.773 1.809,0.105 3.617,0.23 5.434,0.281 1.828,0.055 3.664,0.024 5.496,0.035 5.015,-0.046 4.82,0.024 9.73,-0.289 1.438,-0.089 2.875,-0.191 4.297,-0.332 1.774,-0.175 5.887,-0.722 7.703,-1.019 1.09,-0.18 2.149,-0.399 3.219,-0.598 3.649,-0.816 1.93,-0.402 5.168,-1.23 0.586,0.398 -2.375,1.379 -2.965,0.984 -3.367,0.871 -1.578,0.434 -5.375,1.297 -3.117,0.598 -3.73,0.758 -7.039,1.203 -5.996,0.805 -12.219,1.195 -18.449,1.219 -1.816,-0.02 -3.633,-0.004 -5.445,-0.051 -1.864,-0.051 -3.719,-0.145 -5.579,-0.234 -5.945,-0.293 -6.015,-0.348 -11.988,-0.766 -2.09,-0.148 -4.183,-0.285 -6.273,-0.43 -2.141,-0.152 -4.274,-0.316 -6.41,-0.472 -9.649,-0.7 -3.289,-0.285 -13.082,-0.801 -2.114,-0.113 -4.219,-0.258 -6.34,-0.348 -5.903,-0.254 -11.844,-0.301 -17.766,-0.304 -1.707,0.023 -3.414,0.031 -5.117,0.074 -1.524,0.039 -3.043,0.101 -4.559,0.176 -3.449,0.164 -6.89,0.421 -10.226,0.871 -0.774,0.105 -1.528,0.242 -2.289,0.363 -0.582,0.105 -1.176,0.199 -1.754,0.316 -0.469,0.094 -1.567,0.539 -1.375,0.317 0.242,-0.289 1.039,-0.375 1.578,-0.551 0.082,-0.027 -0.477,0.164 -0.887,0.367 -0.054,0.027 -0.101,0.059 -0.152,0.09 0.445,0.301 -1.805,1.051 -2.25,0.746 z"
             style="fill:#800000;fill-opacity:1;fill-rule:nonzero;stroke:none"
             id="path50"
             inkscape:connector-curvature="0" /><text
             transform="scale(1,-1)"
             style="font-variant:normal;font-weight:normal;font-size:28.97405052px;font-family:'Palatino Linotype';-inkscape-font-specification:PalatinoLinotype-Roman;writing-mode:lr-tb;fill:#38170a;fill-opacity:1;fill-rule:nonzero;stroke:none"
             id="text52"
             x="156.91983"
             y="-538.65424"><tspan
               sodipodi:role="line"
               x="156.91983"
               y="-538.65424"
               id="tspan4182">amin duna - ilya lanta</tspan></text>
</g></g></g></g></svg>