<?xml version="1.0" encoding="UTF-8" standalone="no"?>
<svg
   xmlns:dc="http://purl.org/dc/elements/1.1/"
   xmlns:cc="http://creativecommons.org/ns#"
   xmlns:rdf="http://www.w3.org/1999/02/22-rdf-syntax-ns#"
   xmlns:svg="http://www.w3.org/2000/svg"
   xmlns="http://www.w3.org/2000/svg"
   xmlns:xlink="http://www.w3.org/1999/xlink"
   xmlns:sodipodi="http://sodipodi.sourceforge.net/DTD/sodipodi-0.dtd"
   xmlns:inkscape="http://www.inkscape.org/namespaces/inkscape"
   version="1.1"
   width="76"
   height="76"
   viewBox="0 0 76.00 76.00"
   enable-background="new 0 0 76.00 76.00"
   xml:space="preserve"
   id="svg2"
   inkscape:version="0.91 r13725"
   sodipodi:docname="coin_tails.svg"><metadata
     id="metadata10"><rdf:RDF><cc:Work
         rdf:about=""><dc:format>image/svg+xml</dc:format><dc:type
           rdf:resource="http://purl.org/dc/dcmitype/StillImage" /><dc:title /></cc:Work></rdf:RDF></metadata><defs
     id="defs8"><linearGradient
       id="linearGradient3882"
       y2="45.945999"
       xlink:href="#linearGradient3876"
       gradientUnits="userSpaceOnUse"
       x2="33.312"
       y1="12.898"
       x1="21.763"
       gradientTransform="matrix(1.1333072,0,0,1.1030619,-6.223034,-1.9285746)" /><linearGradient
       id="linearGradient3876"><stop
         id="stop3878"
         stop-color="#f5e0a1"
         offset="0" /><stop
         id="stop3880"
         stop-color="#21150f"
         offset="1" /></linearGradient><linearGradient
       id="linearGradient5684"
       y2="8.4202995"
       gradientUnits="userSpaceOnUse"
       x2="5.6989999"
       y1="38.120998"
       x1="37.233002"
       gradientTransform="matrix(1.1333072,0,0,1.1030619,-6.223034,-1.9285746)"><stop
         id="stop13194"
         offset="0" /><stop
         id="stop13196"
         stop-opacity="0"
         offset="1" /></linearGradient><linearGradient
       id="linearGradient3890"
       y2="-21.538"
       xlink:href="#linearGradient3876"
       spreadMethod="reflect"
       gradientUnits="userSpaceOnUse"
       x2="-28.003"
       y1="17.478001"
       x1="21.485001"
       gradientTransform="matrix(1.0658577,0,0,1.0375217,-4.4242925,-0.38239697)" /><linearGradient
       id="linearGradient5672"
       y2="8.6683998"
       gradientUnits="userSpaceOnUse"
       x2="18.563999"
       y1="25.256001"
       x1="30.287001"
       gradientTransform="matrix(1.0658577,0,0,1.0375217,-4.4242925,-0.38239697)"><stop
         id="stop5696"
         stop-color="#f5e0a1"
         offset="0" /><stop
         id="stop5698"
         stop-color="#21150f"
         offset="1" /></linearGradient><filter
       inkscape:label="Relief Print"
       inkscape:menu="Bumps"
       inkscape:menu-tooltip="Bumps effect with a bevel, color flood and complex lighting"
       style="color-interpolation-filters:sRGB;"
       id="filter4169"><feGaussianBlur
         stdDeviation="5"
         result="result8"
         id="feGaussianBlur4171" /><feComposite
         result="result6"
         in="SourceGraphic"
         operator="in"
         in2="result8"
         id="feComposite4173" /><feComposite
         operator="in"
         result="result11"
         in2="result6"
         id="feComposite4175" /><feFlood
         result="result10"
         flood-opacity="1"
         flood-color="rgb(255,255,255)"
         id="feFlood4177" /><feBlend
         mode="multiply"
         in="result10"
         in2="result11"
         result="result12"
         id="feBlend4179" /><feComposite
         result="fbSourceGraphic"
         operator="in"
         in2="SourceGraphic"
         in="result12"
         id="feComposite4181" /><feFlood
         result="result6"
         flood-color="rgb(75,101,154)"
         id="feFlood4183" /><feComposite
         k3="0.3"
         k2="0.3"
         k1="0.5"
         operator="arithmetic"
         result="result2"
         in="fbSourceGraphic"
         in2="result6"
         id="feComposite4185" /><feColorMatrix
         result="fbSourceGraphicAlpha"
         in="result2"
         values="1 0 0 -1 0 1 0 1 -1 0 1 0 0 -1 0 -0.8 -1 0 3.9 -2.7 "
         type="matrix"
         id="feColorMatrix4187" /><feGaussianBlur
         result="result0"
         in="fbSourceGraphicAlpha"
         stdDeviation="0.5"
         id="feGaussianBlur4189" /><feDiffuseLighting
         lighting-color="rgb(255,255,255)"
         diffuseConstant="0.7"
         surfaceScale="50"
         result="result13"
         in="result0"
         id="feDiffuseLighting4191"><feDistantLight
           elevation="20"
           azimuth="225"
           id="feDistantLight4193" /></feDiffuseLighting><feSpecularLighting
         specularExponent="20"
         specularConstant="0.7"
         surfaceScale="10"
         lighting-color="rgb(255,255,255)"
         result="result1"
         in="result0"
         id="feSpecularLighting4195"><feDistantLight
           elevation="45"
           azimuth="225"
           id="feDistantLight4197" /></feSpecularLighting><feBlend
         mode="screen"
         result="result5"
         in2="SourceGraphic"
         in="result13"
         id="feBlend4199" /><feComposite
         in="result1"
         k3="1"
         k2="1"
         operator="arithmetic"
         in2="result5"
         result="result9"
         id="feComposite4201" /><feComposite
         in2="SourceGraphic"
         operator="in"
         id="feComposite4203" /></filter></defs><sodipodi:namedview
     pagecolor="#ffffff"
     bordercolor="#666666"
     borderopacity="1"
     objecttolerance="10"
     gridtolerance="10"
     guidetolerance="10"
     inkscape:pageopacity="0"
     inkscape:pageshadow="2"
     inkscape:window-width="2560"
     inkscape:window-height="1377"
     id="namedview6"
     showgrid="false"
     inkscape:zoom="3.1052632"
     inkscape:cx="-16.262711"
     inkscape:cy="38.000001"
     inkscape:window-x="2552"
     inkscape:window-y="-8"
     inkscape:window-maximized="1"
     inkscape:current-layer="svg2" /><g
     transform="matrix(1.6666667,0,0,1.6666667,-2.0000008,-2.0000003)"
     id="g4368"><path
       inkscape:connector-curvature="0"
       style="fill:url(#linearGradient3882);stroke:url(#linearGradient5684);stroke-width:0.50282395"
       d="M 44.748588,24 A 20.748588,20.748598 0 0 1 3.251412,24 20.748588,20.748598 0 1 1 44.748588,24 Z"
       id="path2092" /><path
       inkscape:connector-curvature="0"
       style="fill:url(#linearGradient3890);stroke:url(#linearGradient5672);stroke-width:0.47255492"
       d="m 43.513722,24.005588 a 19.513723,19.515784 0 0 1 -39.0274444,0 19.513723,19.515784 0 1 1 39.0274444,0 z"
       id="path2979" /></g><path
     fill="#000000"
     fill-opacity="1"
     stroke-width="0.2"
     stroke-linejoin="round"
     d="M 39.5833,26.3404L 42.0942,23.8296L 44.3333,26.0687L 39.5833,30.8187L 39.5833,35.2576L 43.4964,32.9984L 45.235,26.5098L 48.2938,27.3294L 47.3748,30.7592L 51.4598,28.4007L 52.9499,22.8398L 60.5968,24.8888L 58.5478,32.5357L 53.1406,31.0869L 48.8892,33.5414L 52.319,34.4604L 51.4994,37.5192L 45.0108,35.7806L 41.1667,38L 45.0108,40.2194L 51.4995,38.4808L 52.319,41.5396L 48.8892,42.4586L 53.1406,44.9131L 58.5478,43.4643L 60.5968,51.1112L 52.9499,53.1602L 51.4599,47.5993L 47.3748,45.2408L 48.2938,48.6706L 45.235,49.4902L 43.4964,43.0016L 39.5833,40.7424L 39.5833,45.1813L 44.3333,49.9313L 42.0942,52.1704L 39.5833,49.6596L 39.5833,54.5687L 43.5417,58.5271L 37.9437,64.125L 32.3458,58.5271L 36.4167,54.4562L 36.4167,49.7392L 33.9058,52.25L 31.6667,50.0108L 36.4167,45.2608L 36.4167,40.7424L 32.5725,42.9619L 30.8339,49.4505L 27.7751,48.6309L 28.6942,45.201L 24.4427,47.6556L 22.9939,53.0628L 15.347,51.0138L 17.396,43.3669L 22.9568,44.8569L 27.0419,42.4984L 23.6121,41.5794L 24.4317,38.5206L 30.9203,40.2592L 34.8334,38L 30.9203,35.7408L 24.4317,37.4794L 23.6121,34.4206L 27.0419,33.5016L 22.9568,31.1431L 17.3959,32.6331L 15.347,24.9862L 22.9939,22.9372L 24.4427,28.3444L 28.6942,30.799L 27.7751,27.3691L 30.8339,26.5495L 32.5725,33.0382L 36.4167,35.2576L 36.4167,30.7392L 31.6667,25.9892L 33.9058,23.75L 36.4167,26.2608L 36.4167,21.5438L 32.3458,17.4729L 37.9437,11.875L 43.5417,17.4729L 39.5833,21.4313L 39.5833,26.3404 Z M 35.7608,17.4167L 38,19.6559L 40.2392,17.4167L 38,15.1775L 35.7608,17.4167 Z M 35.7608,58.5833L 38,60.8225L 40.2392,58.5833L 38,56.3442L 35.7608,58.5833 Z M 19.0547,29.6475L 22.1135,28.8279L 21.2939,25.7692L 18.2351,26.5888L 19.0547,29.6475 Z M 54.7061,50.2308L 57.7649,49.4112L 56.9453,46.3525L 53.8865,47.1721L 54.7061,50.2308 Z M 54.7061,25.7692L 53.8865,28.8279L 56.9453,29.6475L 57.7649,26.5888L 54.7061,25.7692 Z M 19.0547,46.3525L 18.2351,49.4113L 21.2939,50.2309L 22.1135,47.1721L 19.0547,46.3525 Z "
     id="path4"
     style="filter:url(#filter4169)" /></svg>