<?xml version="1.0" encoding="UTF-8" standalone="no"?>
<!-- Created with Inkscape (http://www.inkscape.org/) -->

<svg
   xmlns:dc="http://purl.org/dc/elements/1.1/"
   xmlns:cc="http://creativecommons.org/ns#"
   xmlns:rdf="http://www.w3.org/1999/02/22-rdf-syntax-ns#"
   xmlns:svg="http://www.w3.org/2000/svg"
   xmlns="http://www.w3.org/2000/svg"
   xmlns:xlink="http://www.w3.org/1999/xlink"
   xmlns:sodipodi="http://sodipodi.sourceforge.net/DTD/sodipodi-0.dtd"
   xmlns:inkscape="http://www.inkscape.org/namespaces/inkscape"
   id="svg2"
   version="1.1"
   inkscape:version="0.91 r13725"
   xml:space="preserve"
   width="744.09448"
   height="1052.3622"
   viewBox="0 0 744.09448 1052.3622"
   sodipodi:docname="logo_fade.svg"
   inkscape:export-filename="C:\Projects\WTactics\work\logo2.png"
   inkscape:export-xdpi="72"
   inkscape:export-ydpi="72"><metadata
     id="metadata8"><rdf:RDF><cc:Work
         rdf:about=""><dc:format>image/svg+xml</dc:format><dc:type
           rdf:resource="http://purl.org/dc/dcmitype/StillImage" /><dc:title /></cc:Work></rdf:RDF></metadata><defs
     id="defs6"><linearGradient
       inkscape:collect="always"
       xlink:href="#linearGradient4615"
       id="linearGradient4647"
       x1="-231.19498"
       y1="190.16199"
       x2="-206.826"
       y2="190.16199"
       gradientUnits="userSpaceOnUse" /><linearGradient
       inkscape:collect="always"
       id="linearGradient4615"><stop
         style="stop-color:#e6daa6;stop-opacity:1;"
         offset="0"
         id="stop4617" /><stop
         style="stop-color:#e6daa6;stop-opacity:0;"
         offset="1"
         id="stop4619" /></linearGradient><linearGradient
       inkscape:collect="always"
       xlink:href="#linearGradient4615"
       id="linearGradient4645"
       x1="-213.15067"
       y1="190.28967"
       x2="-206.81854"
       y2="190.28967"
       gradientUnits="userSpaceOnUse" /><linearGradient
       inkscape:collect="always"
       xlink:href="#linearGradient4615"
       id="linearGradient4643"
       x1="-208.56781"
       y1="193.39008"
       x2="-195.52693"
       y2="193.39008"
       gradientUnits="userSpaceOnUse" /><linearGradient
       inkscape:collect="always"
       xlink:href="#linearGradient4615"
       id="linearGradient4641"
       x1="-196.17679"
       y1="192.6861"
       x2="-184.75581"
       y2="192.6861"
       gradientUnits="userSpaceOnUse" /><linearGradient
       inkscape:collect="always"
       xlink:href="#linearGradient4615"
       id="linearGradient4621"
       x1="-190.81943"
       y1="187.59886"
       x2="-183.67429"
       y2="187.59886"
       gradientUnits="userSpaceOnUse" /><linearGradient
       inkscape:collect="always"
       xlink:href="#linearGradient4615"
       id="linearGradient4639"
       x1="-184.3708"
       y1="193.63171"
       x2="-175.17883"
       y2="193.63171"
       gradientUnits="userSpaceOnUse" /><linearGradient
       inkscape:collect="always"
       xlink:href="#linearGradient4615"
       id="linearGradient4637"
       x1="-179.3887"
       y1="190.42105"
       x2="-175.08847"
       y2="190.42105"
       gradientUnits="userSpaceOnUse" /><linearGradient
       inkscape:collect="always"
       xlink:href="#linearGradient4615"
       id="linearGradient4635"
       x1="-176.33379"
       y1="193.79678"
       x2="-164.61134"
       y2="193.79678"
       gradientUnits="userSpaceOnUse" /><linearGradient
       inkscape:collect="always"
       xlink:href="#linearGradient4615"
       id="linearGradient4631"
       x1="-167.68942"
       y1="195.44798"
       x2="-153.72633"
       y2="195.44798"
       gradientUnits="userSpaceOnUse" /><linearGradient
       inkscape:collect="always"
       xlink:href="#linearGradient4615"
       id="linearGradient4633"
       x1="-164.98808"
       y1="193.30305"
       x2="-149.5751"
       y2="193.30305"
       gradientUnits="userSpaceOnUse" /><linearGradient
       inkscape:collect="always"
       xlink:href="#linearGradient4615"
       id="linearGradient4629"
       x1="-151.78625"
       y1="193.55157"
       x2="-141.17226"
       y2="193.55157"
       gradientUnits="userSpaceOnUse" /><linearGradient
       inkscape:collect="always"
       xlink:href="#linearGradient4615"
       id="linearGradient4627"
       x1="-143.74814"
       y1="199.74606"
       x2="-140.09784"
       y2="199.74606"
       gradientUnits="userSpaceOnUse" /><linearGradient
       gradientUnits="userSpaceOnUse"
       y2="144.60499"
       x2="-164.68798"
       y1="144.60499"
       x1="-178.40143"
       gradientTransform="scale(0.78142068,1.2797204)"
       inkscape:collect="always"
       id="linearGradient4625"><stop
         style="stop-color:#e6daa6;stop-opacity:1;"
         offset="0"
         id="stop4627" /><stop
         style="stop-color:#e6daa6;stop-opacity:0;"
         offset="1"
         id="stop4629" /></linearGradient><linearGradient
       inkscape:collect="always"
       xlink:href="#linearGradient4615"
       id="linearGradient4632"
       x1="-139.40657"
       y1="193.82864"
       x2="-128.6906"
       y2="193.82864"
       gradientUnits="userSpaceOnUse" /><linearGradient
       inkscape:collect="always"
       xlink:href="#linearGradient4615"
       id="linearGradient4623"
       x1="-139.18822"
       y1="193.43541"
       x2="-114.80959"
       y2="193.43541"
       gradientUnits="userSpaceOnUse" /><linearGradient
       inkscape:collect="always"
       xlink:href="#linearGradient4615"
       id="linearGradient4655"
       x1="-232.47742"
       y1="216.9097"
       x2="-73.845215"
       y2="216.10022"
       gradientUnits="userSpaceOnUse" /></defs><sodipodi:namedview
     pagecolor="#ffffff"
     bordercolor="#666666"
     borderopacity="1"
     objecttolerance="10"
     gridtolerance="10"
     guidetolerance="10"
     inkscape:pageopacity="0"
     inkscape:pageshadow="2"
     inkscape:window-width="1536"
     inkscape:window-height="801"
     id="namedview4"
     showgrid="false"
     inkscape:zoom="0.89702955"
     inkscape:cx="139.6301"
     inkscape:cy="630.33933"
     inkscape:window-x="-8"
     inkscape:window-y="-8"
     inkscape:window-maximized="1"
     inkscape:current-layer="layer2" /><g
     inkscape:groupmode="layer"
     id="layer2"
     inkscape:label="arcmage logo example"><g
       style="display:inline;opacity:1;enable-background:new"
       id="g4535"
       transform="matrix(5.4831084,0,0,5.4831084,1374.5328,-566.70348)"
       inkscape:export-filename="C:\Users\Nico\Dropbox (Personal)\Projects\WTactics\arcmage\arena gent\logo_fade.png"
       inkscape:export-xdpi="159.84"
       inkscape:export-ydpi="159.84"><path
         d="m -209.5254,179.05626 c -0.79786,-0.29625 0.62613,0.22111 -0.56602,-0.15922 -0.11735,-0.0376 -0.22361,-0.10769 -0.3424,-0.14096 -0.47907,-0.13703 -1.00895,-0.16924 -1.49948,-0.25296 -2.15638,-0.0923 -4.2598,0.49053 -6.33246,1.0061 -0.45725,0.14383 -0.92094,0.26547 -1.3696,0.43185 -0.89876,0.32987 -2.07695,0.87085 -2.91131,1.33346 -0.46262,0.25689 -1.74421,1.18642 -1.35422,0.83007 0.50877,-0.46405 1.0315,-1.05118 1.71058,-1.15458 0.53954,-0.0837 -0.82184,0.71987 -1.23258,1.08052 -0.93919,0.96996 -1.42291,1.39465 -2.20539,2.51845 -0.29375,0.42076 -0.53525,0.87479 -0.78821,1.32202 -0.51163,0.90306 -0.95063,1.68697 -1.26906,2.67374 -0.1399,0.42899 -0.21539,0.87765 -0.32308,1.31665 -0.30591,1.6841 -0.2501,3.40148 0.19714,5.0591 0.24866,0.9238 0.49338,1.36424 0.88874,2.22794 1.00072,1.82113 0.0769,0.28515 1.26084,1.88267 0.19284,0.26118 0.34812,0.5492 0.53954,0.81181 0.29911,0.40967 0.66512,0.76746 0.95851,1.18106 0.10483,0.14669 0.18748,0.30877 0.27979,0.46404 l 0.18569,0.37031 c 0.11055,0.15636 -2.65406,2.09091 -2.76283,1.93563 l -0.18175,-0.37317 c -0.44724,-0.52416 -0.92095,-1.0315 -1.36424,-1.55816 -0.69447,-0.83043 -1.2773,-1.74314 -1.86586,-2.64869 -0.17174,-0.35779 -0.36888,-0.70449 -0.51414,-1.07479 -0.14812,-0.37711 -0.25295,-0.77139 -0.36351,-1.16138 -0.48337,-1.72167 -0.56995,-3.23546 -0.2712,-5.00757 0.0923,-0.42756 0.1356,-0.86799 0.2755,-1.28303 0.15778,-0.46548 0.40107,-0.89732 0.60931,-1.34169 0.2068,-0.44151 0.4025,-0.89018 0.63864,-1.3163 0.79107,-1.43007 1.79609,-2.71703 2.98537,-3.83511 2.42472,-2.11738 1.39751,-1.29411 5.6448,-4.21258 0.46261,-0.31842 0.94205,-0.6136 1.434,-0.88587 1.32918,-0.73812 2.76462,-1.25369 4.20685,-1.71487 1.98035,-0.50591 4.02367,-0.98392 6.08237,-0.83042 0.48373,0.0855 0.99643,0.11771 1.46191,0.27978 0.11449,0.039 0.21646,0.1102 0.33131,0.14813 0.5603,0.18569 0.18283,-0.0394 0.52273,0.18998 0.10733,0.15242 -2.59002,2.04046 -2.69628,1.88804 z"
         style="fill:url(#linearGradient4647);fill-opacity:1;fill-rule:nonzero;stroke:none"
         id="path14-2"
         inkscape:connector-curvature="0" /><path
         d="m -206.82089,176.91384 c -0.001,0.0769 0.009,0.15384 -0.006,0.22934 -0.0236,0.13274 -0.0809,0.25832 -0.1034,0.39106 -0.0333,0.19571 -0.0318,0.39571 -0.0655,0.59142 -0.13417,0.80215 -0.32308,1.45189 -0.48766,2.25978 -0.10233,0.50197 -0.18605,1.00645 -0.27979,1.51093 -0.13131,0.55886 -0.278,1.11522 -0.39393,1.67694 -0.11198,0.55063 -0.18748,1.10842 -0.29088,1.66192 -0.28766,1.53454 -0.61217,3.06623 -0.82434,4.61472 -0.0576,0.41647 -0.0869,0.83722 -0.13023,1.25512 -0.38283,2.70021 0.0154,-0.24866 -0.26118,2.22364 -0.0365,0.33417 -0.098,0.66512 -0.13417,1.00073 -0.0308,0.28802 -0.0322,0.57997 -0.0644,0.86942 -0.31306,2.71524 0.0182,-0.83436 -0.18569,1.45476 -0.1288,0.49052 -0.13023,0.99929 -0.19427,1.49697 -0.0182,0.13417 -0.0615,0.26262 -0.0769,0.39679 -0.0125,0.1034 -0.007,0.20966 -0.0114,0.31449 l -0.0572,0.3535 c 0.0687,0.51449 0.15671,1.03972 0.10626,1.55851 -0.0361,0.30162 0.0587,0.82041 -0.20823,1.03007 0.10483,0.1492 -2.5546,2.01255 -2.66086,1.86156 0.0236,-0.0183 0.0587,-0.0279 0.0712,-0.0562 0.0809,-0.16494 0.0504,-0.73346 0.0909,-0.94062 0.005,-0.52523 -0.063,-1.03543 -0.10626,-1.55816 l 0.0336,-0.33668 c -0.0168,-0.0894 -0.0547,-0.17889 -0.0519,-0.2712 0.006,-0.13417 0.0601,-0.26297 0.0769,-0.39571 0.0168,-0.1356 0.008,-0.27084 0.0236,-0.40501 0.1288,-1.1281 0.0533,0.1313 0.1034,-1.04546 0.049,-0.37746 0.14419,-1.08051 0.17209,-1.44509 0.12308,-1.65477 -0.0673,-0.0197 0.1034,-1.80289 0.0351,-0.35671 0.0923,-0.7102 0.12594,-1.06656 0.0333,-0.37031 0.0501,-0.74348 0.0751,-1.11522 0.26583,-1.92739 0.46691,-3.87125 0.83042,-5.78326 0.1102,-0.57603 0.24866,-1.14455 0.37317,-1.71773 0.11879,-0.55063 0.23757,-1.10126 0.35493,-1.65047 0.44723,-1.76674 0.93918,-3.52061 1.37819,-5.28879 -0.10483,-0.15063 2.56855,-2.02364 2.67481,-1.87265 z"
         style="fill:url(#linearGradient4645);fill-opacity:1;fill-rule:nonzero;stroke:none"
         id="path16-0"
         inkscape:connector-curvature="0" /><path
         d="m -205.05164,184.48889 c -0.025,0.46404 0.0365,0.92809 0.0365,1.39071 0.001,0.30448 -0.0293,0.60788 -0.0322,0.91236 -0.003,0.33131 0.024,0.66405 0.0125,0.99536 -0.0125,0.36601 -0.0558,0.72952 -0.0837,1.09554 -0.0293,2.76998 0.0293,-0.60072 -0.10196,2.34529 -0.0183,0.40108 0.004,0.80502 -0.0183,1.20609 -0.0225,0.40394 -0.0851,0.80502 -0.11449,1.20896 -0.0841,1.52346 -0.0322,0.76996 -0.15528,2.25835 0.0125,0.87658 -0.14383,1.73884 -0.21253,2.61077 -0.0139,0.18175 -0.0125,0.36351 -0.0347,0.54526 -0.15958,1.31379 -0.0351,-0.20823 -0.1034,0.69447 0.0866,1.14062 0.0458,0.26404 -2.6122,1.89662 -0.0741,0.0447 0.0573,-0.16494 0.0809,-0.25009 0.0379,-0.13703 0.0687,-0.27693 0.0995,-0.41503 0.10054,-0.45439 0.19285,-0.90985 0.29196,-1.36281 0.0615,-0.30197 0.12451,-0.60394 0.18318,-0.90556 0.20251,-1.05117 0.40788,-2.09806 0.6959,-3.13063 0.0433,-0.15671 0.68623,-2.24868 0.72809,-2.38429 0.74491,-1.83115 1.27623,-3.81543 2.50737,-5.40328 0.19571,-0.25296 0.42648,-0.47514 0.64008,-0.71271 1.61004,-1.33884 1.17962,-1.01468 4.2208,-2.97822 0.21253,-0.13846 0.92667,-0.38712 1.19072,-0.43184 0.24329,-0.0408 0.68194,0.007 0.92523,0.025 0.70734,0.0587 1.1027,0.52953 1.33347,1.15708 0.18283,0.77568 -0.19285,1.37104 -0.64294,1.96783 -0.57174,0.67943 -1.28016,1.21039 -2.00432,1.71343 -3.70094,2.57857 -2.31559,1.73598 -4.16463,2.83439 -0.89196,0.59965 -1.86443,1.04259 -2.84154,1.47873 -1.273,0.40394 -1.96496,1.1306 2.14135,-1.67695 0.0111,-0.007 -0.003,0.0361 0.01,0.0376 0.0404,0.003 0.0798,-0.0182 0.12022,-0.0279 0.32844,-0.0558 0.66119,-0.0572 0.98928,-0.0866 0.57031,-0.049 0.16923,-0.0866 0.64043,-0.01 1.08732,0.0547 1.64188,0.84724 2.15924,1.70235 0.28766,0.57997 0.35206,0.64437 0.53239,1.2662 0.0601,0.20537 0.0798,0.42219 0.14526,0.62756 0.0572,0.18176 0.16494,0.3467 0.22075,0.52988 0.0658,0.2136 0.16494,0.87622 0.20001,1.09984 0.19571,0.62899 0.18175,1.28982 0.25581,1.93562 0.0962,0.4848 0.063,0.24186 0.1034,0.7281 0.13704,0.49768 0.0669,1.04402 0.25868,1.52631 0.0236,0.0558 0.0487,0.11163 0.0726,0.16888 0.0347,0.0447 0.0809,0.0827 0.10627,0.13417 0.0265,0.0504 0.007,0.12307 0.0447,0.16494 0.12844,0.14418 0.23328,-0.005 0.27943,0.24901 0.0139,0.01 0.0293,0.0179 0.0447,0.0265 0.10627,0.15099 -2.55924,2.01684 -2.66515,1.86729 -0.0114,-0.0114 -0.024,-0.0225 -0.0365,-0.0336 -0.11163,-0.0741 -0.0601,-0.0251 -0.1424,-0.15779 -0.0476,-0.0365 -0.12021,-0.0297 -0.16494,-0.0716 -0.0562,-0.053 -0.20429,-0.38712 -0.22648,-0.46655 -0.18855,-0.48373 -0.21932,-0.9993 -0.27943,-1.51093 -0.14705,-0.51557 -0.17746,-1.04545 -0.26977,-1.57247 -0.0279,-0.16208 -0.0812,-0.31986 -0.10483,-0.48337 -0.0279,-0.18605 -0.0336,-0.3746 -0.0504,-0.56172 -0.15492,-0.53811 -0.28909,-1.08052 -0.43328,-1.62149 -0.0558,-0.2068 -0.0784,-0.42183 -0.15241,-0.62326 -0.15493,-0.42613 -0.45547,-0.78964 -0.58534,-1.22828 -0.0952,-0.19858 -0.17353,-0.40681 -0.28659,-0.59679 -0.27406,-0.46155 -0.6179,-0.77032 -1.08445,-1.01468 -0.10233,-0.0533 -0.2,-0.12022 -0.31056,-0.15385 -0.1059,-0.0322 -0.22075,-0.0265 -0.32952,-0.039 -0.54956,0.008 -1.09447,0.0501 -1.63938,0.1034 -0.0336,-0.001 -0.12307,-0.0154 -0.0952,-0.0351 1.38499,-0.99214 1.98608,-1.67015 3.28985,-2.12561 0.99643,-0.44616 1.97784,-0.91701 2.89449,-1.51666 1.45225,-0.87478 0.83149,-0.52415 -1.53168,1.15458 -0.23221,0.16494 0.46798,-0.31879 0.69446,-0.48766 0.5145,-0.38713 0.995,-0.82184 1.42291,-1.30413 0.44294,-0.57854 0.91379,-1.25798 0.72094,-2.02221 -0.31413,-0.63471 -0.6526,-1.02041 -1.39894,-1.11272 -0.56459,-0.0154 -1.06907,0.0154 -1.60718,0.21539 -1.05654,0.39142 -2.57427,1.51093 1.60432,-1.35029 0.24759,-0.1703 -0.46369,0.38176 -0.6959,0.57318 -0.21395,0.23757 -0.44866,0.45832 -0.64294,0.71271 -1.18785,1.56388 -1.58893,3.55282 -2.37856,5.31384 -0.36888,1.17103 -0.76602,2.34493 -1.07908,3.53314 -0.26405,0.99643 -0.44581,2.01648 -0.70842,3.01471 -0.11879,0.47514 -1.5739,6.67056 -3.37536,3.99289 -0.049,-0.61933 0.0211,-1.2383 0.0462,-1.8562 0.0111,-0.27943 -0.004,-0.56029 0.008,-0.83972 0.0168,-0.3356 0.0533,-0.66978 0.0798,-1.00359 0.0755,-2.34386 0.39822,-4.67627 0.39822,-7.02442 0.0408,-0.70162 0.0504,-1.40323 0.0894,-2.10342 0.0322,-0.56173 0.0755,-1.12381 0.12737,-1.6841 0.0139,-0.15385 0.0558,-0.30448 0.0669,-0.45833 0.006,-0.0952 -0.0125,-0.19141 -0.0179,-0.28658 -0.10769,-0.15385 2.59539,-2.04618 2.70129,-1.89233 z"
         style="fill:url(#linearGradient4643);fill-opacity:1;fill-rule:nonzero;stroke:none"
         id="path18-6"
         inkscape:connector-curvature="0" /><path
         d="m -188.884,185.77048 c -0.64866,-0.15242 -1.26083,0.0308 -1.88267,0.20537 -0.18318,0.0741 -0.36887,0.13846 -0.54634,0.22361 -0.20537,0.0995 -0.78534,0.46548 -0.60251,0.32845 0.71271,-0.52952 1.42435,-1.0705 2.1943,-1.51201 0.2433,-0.13989 -0.41217,0.3857 -0.59821,0.59679 -0.35636,0.40251 -0.81898,1.09125 -1.11522,1.51487 -0.94885,1.6451 -1.57104,3.46874 -1.8952,5.33602 -0.0293,1.08732 -0.0587,0.52988 0.0837,1.57104 0.0379,0.27085 0.0504,0.54634 0.11056,0.81325 0.0587,0.26262 0.16494,0.51163 0.24473,0.76888 0.0794,0.25403 0.12272,0.5213 0.23184,0.76423 0.0991,0.22076 0.25725,0.40967 0.3857,0.61504 0.2669,0.59822 0.71557,1.03293 1.18105,1.473 0.12701,0.12022 0.24043,0.25582 0.38032,0.36065 0.13274,0.0977 0.29053,0.15671 0.43042,0.2433 0.11736,0.0712 0.22612,0.15349 0.33954,0.23041 0.52129,0.27264 0.12165,0.0909 0.67085,0.2712 0.0923,0.0293 0.17746,0.0837 0.27263,0.10197 0.3424,0.0615 0.7349,0.009 1.07336,-0.0404 0.78105,-0.15778 1.50091,-0.50877 2.22221,-0.83579 0.17997,-0.0712 0.33811,-0.18712 0.51557,-0.2669 1.55673,-0.70449 -1.53597,1.14169 -2.36747,1.70091 -0.10483,-0.15098 2.56032,-2.01827 2.66658,-1.86728 -2.05727,1.50377 -1.99036,1.62542 -3.56534,2.35924 -0.7213,0.31306 -1.41433,0.69732 -2.20396,0.82326 -0.70735,0.0977 -1.39751,0.0308 -2.03366,-0.32021 -0.59679,-0.28087 -1.21862,-0.67908 -1.66299,-1.17676 -0.29088,-0.32559 -0.46405,-0.74921 -0.80502,-1.03579 -0.35922,-0.66656 -0.74205,-1.37641 -0.89017,-2.12848 -0.0547,-0.27513 -0.0504,-0.55886 -0.073,-0.83865 -0.0726,-0.94741 -0.0558,-0.64544 -0.0433,-1.60002 0.0308,-0.26834 0.0433,-0.53954 0.0923,-0.80501 0.1288,-0.71415 0.28945,-1.07766 0.51843,-1.77641 0.0952,-0.29088 0.16494,-0.58964 0.27979,-0.87336 0.28229,-0.69911 0.60215,-1.20896 0.97389,-1.86049 0.16494,-0.25832 0.31307,-0.52666 0.49339,-0.77425 0.25725,-0.3492 0.91128,-1.10413 1.26907,-1.37103 1.46191,-1.09698 2.87481,-2.3088 4.58431,-2.98394 0.36602,-0.0894 1.06334,-0.27514 1.43508,-0.20966 0.0562,0.01 0.0995,0.0601 0.15528,0.0716 0.0644,0.0125 0.13131,0 0.19714,0.001 0.10734,0.15349 -2.60933,2.05584 -2.71703,1.902 z"
         style="fill:url(#linearGradient4641);fill-opacity:1;fill-rule:nonzero;stroke:none"
         id="path20-0"
         inkscape:connector-curvature="0" /><path
         d="m -188.17272,183.89925 c 0.42219,-0.0995 0.85404,-0.11878 1.28446,-0.1635 0.3381,-0.0283 0.71843,-0.0576 1.05117,0.0361 0.1746,0.049 0.33668,0.13847 0.50842,0.19428 0.21825,0.12165 0.36923,0.18319 0.53954,0.37746 0.12451,0.14097 0.53525,0.75458 0.58856,0.91808 0.0462,0.1399 0.0404,0.29232 0.0615,0.43901 0.27943,0.65689 0.3102,1.36674 0.38712,2.0655 0.0766,0.28229 0,0.57711 0.0222,0.86226 0.007,0.0769 0.0419,0.14956 0.0504,0.22648 0.0193,0.21539 -0.0197,0.32272 -0.063,0.53525 -0.006,0.0701 -0.0111,0.14132 -0.0168,0.21109 0.10627,0.15242 -2.5757,2.0308 -2.68196,1.87981 0.003,-0.0698 0.007,-0.13989 0.01,-0.20823 0.004,-0.0573 0.0293,-0.45153 0.024,-0.50734 -0.009,-0.0755 -0.0447,-0.14526 -0.0601,-0.21932 -0.0587,-0.29231 -0.0379,-0.5857 0,-0.87908 -0.0712,-0.80645 0.0265,0.18032 -0.0894,-0.6179 -0.0168,-0.11163 -0.0111,-0.22791 -0.0336,-0.33811 -0.0222,-0.11199 -0.0784,-0.21539 -0.10053,-0.32702 -0.18462,-0.89446 0.11306,0.0894 -0.1721,-0.77568 -0.23757,-0.48086 -0.14383,-0.22934 -0.28086,-0.75636 -0.0361,-0.0823 -0.5213,-0.7907 -0.5882,-0.85511 -0.0755,-0.0712 -0.18319,-0.1034 -0.27407,-0.15671 -0.53524,-0.11449 -1.04831,-0.29767 -1.60574,-0.19678 -0.40394,0.001 -0.80502,0.0641 -1.20467,0.10734 -0.10483,-0.14956 2.53921,-2.0011 2.64404,-1.85155 z"
         style="fill:url(#linearGradient4621);fill-opacity:1;fill-rule:nonzero;stroke:none"
         id="path22-6"
         inkscape:connector-curvature="0" /><path
         d="m -177.86668,187.25207 c -0.30484,-0.11056 -0.66549,-0.26011 -0.99787,-0.239 -0.12308,0.008 -0.2433,0.0433 -0.36351,0.064 -0.15492,0.0576 -0.31593,0.10483 -0.46548,0.17496 -0.17174,0.0794 -0.33238,0.18283 -0.49876,0.27514 0.75458,-0.51987 1.4773,-1.09304 2.26551,-1.56246 0.22361,-0.13273 -0.38427,0.3535 -0.55922,0.54634 -0.46799,0.51987 -0.68874,0.90162 -1.08302,1.49412 -1.22578,1.93276 -1.5807,3.92885 -1.8197,6.15786 -0.12308,1.11951 -0.14097,2.22364 0.10197,3.32634 0.0504,0.22504 0.0827,0.45689 0.17352,0.66798 0.0809,0.18999 0.22219,0.34813 0.33382,0.5213 0.32308,0.5102 0.6068,0.73668 1.08731,1.0637 0.11056,0.0741 0.2043,0.17316 0.32308,0.23041 0.0168,0.009 0.69303,0.19714 0.73633,0.20823 0.10483,0.0197 0.20823,0.0601 0.31449,0.0587 0.14383,-0.001 0.28229,-0.0487 0.42505,-0.0655 0.39392,-0.0476 0.78677,-0.10626 1.1739,-0.19714 0.049,-0.0139 0.0977,-0.0265 0.14669,-0.0404 0.10912,0.15493 -2.62615,2.0698 -2.73385,1.91452 -0.0404,0.007 -0.0794,0.0139 -0.12021,0.0211 -0.65547,0.13417 -1.29268,0.33131 -1.97319,0.24723 -0.35242,-0.11449 -0.76459,-0.23471 -1.08588,-0.4204 -0.13131,-0.0755 -0.24044,-0.18748 -0.36352,-0.27836 -0.14096,-0.10483 -0.3102,-0.17889 -0.43041,-0.30877 -0.12594,-0.13846 -0.19285,-0.32022 -0.28945,-0.47943 -0.22362,-0.3789 -0.45403,-0.71128 -0.57139,-1.14313 -0.0658,-0.24329 -0.0784,-0.49625 -0.11341,-0.74491 -0.11879,-0.84438 -0.16494,-1.68696 -0.053,-2.53814 0.1102,-1.02291 0.19571,-2.06693 0.46548,-3.06479 0.29482,-1.08875 0.76173,-2.1274 1.3485,-3.08877 0.45009,-0.6569 0.63185,-0.97998 1.1628,-1.54993 1.04975,-1.1281 2.97285,-2.27266 3.91884,-2.9224 0.15241,-0.10483 0.31735,-0.19141 0.48516,-0.26691 0.12701,-0.0562 0.26404,-0.0841 0.39678,-0.12594 0.12022,-0.0207 0.24043,-0.0572 0.36208,-0.063 0.33525,-0.0154 0.66942,0.17496 0.98534,0.24759 0.10627,0.15099 -2.57713,2.03079 -2.68482,1.87981 z"
         style="fill:url(#linearGradient4639);fill-opacity:1;fill-rule:nonzero;stroke:none"
         id="path24-4"
         inkscape:connector-curvature="0" /><path
         d="m -175.08847,185.35544 c -0.21647,1.35422 -0.5281,2.6902 -0.7671,4.04191 -0.32129,1.26764 -0.53095,2.56462 -0.74491,3.85587 -0.0784,0.278 -0.049,0.16207 -0.0923,0.34669 0.10626,0.15242 -2.58965,2.03903 -2.69592,1.88661 0.0211,-0.17031 0.006,-0.0615 0.0601,-0.32272 0.0741,-0.46119 0.0558,-0.88338 0.11056,-1.33204 0.0962,-0.795 0.3102,-1.5807 0.4204,-2.37427 0.29231,-1.42006 0.68766,-2.8122 1.02183,-4.21937 -0.10626,-0.15242 2.58143,-2.03366 2.68734,-1.88268 z"
         style="fill:url(#linearGradient4637);fill-opacity:1;fill-rule:nonzero;stroke:none"
         id="path26-5"
         inkscape:connector-curvature="0" /><path
         d="m -173.64588,187.04384 c 1.15136,-0.70592 2.37999,-1.24116 3.66588,-1.64367 1.08158,-0.22076 2.56747,-0.44867 3.60863,0.0544 0.17174,0.0827 0.31449,0.21932 0.47085,0.32845 1.01897,0.8247 1.12917,1.71773 1.25511,2.94207 0.0111,0.18319 0.0419,0.36459 0.0322,0.54778 -0.0125,0.20823 -0.0644,0.41217 -0.0966,0.61932 -0.11163,0.71128 -0.25439,1.41576 -0.51414,2.09055 -0.10626,0.27549 -0.24043,0.53811 -0.36065,0.80788 -0.80216,1.7875 -2.12167,3.2648 -3.53171,4.59684 -1.06906,1.02148 -2.28088,1.87551 -3.39897,2.83975 -0.27406,0.22791 -0.14383,0.11735 -0.39141,0.32987 0.10626,0.15099 -2.57428,2.02794 -2.67911,1.87552 0.18569,-0.16637 0.0948,-0.0837 0.27264,-0.2458 1.09124,-0.92094 2.23616,-1.77927 3.28018,-2.75603 1.42828,-1.33883 2.74064,-2.82901 3.56641,-4.62331 0.12881,-0.2755 0.27264,-0.54383 0.38713,-0.82613 0.42791,-1.04795 0.63328,-2.17748 0.65009,-3.30666 -0.0519,-0.71557 -0.14812,-1.52488 -0.51163,-2.1621 -0.19285,-0.33811 -0.44437,-0.53239 -0.72523,-0.7925 -0.18033,-0.0934 -0.35099,-0.20823 -0.53954,-0.28086 -1.20467,-0.46691 -2.50737,-0.29338 -3.72062,0.0236 -1.22971,0.33131 -2.30737,0.82184 -3.40434,1.46085 -0.10626,-0.15242 2.57857,-2.03223 2.68483,-1.87981 z"
         style="fill:url(#linearGradient4635);fill-opacity:1;fill-rule:nonzero;stroke:none"
         id="path28-4"
         inkscape:connector-curvature="0" /><path
         d="m -158.83282,188.51398 c -1.26048,1.22435 -2.2723,2.65978 -3.26193,4.10059 -0.73668,1.10699 -1.35422,2.28518 -1.8952,3.49664 -0.19284,0.42935 -0.59106,1.36854 -0.71843,1.85047 -0.063,0.23221 -0.0769,0.47371 -0.11592,0.71164 -0.0419,0.5492 -0.0336,0.91665 0.29195,1.36674 0.0701,0.0948 0.13167,0.20537 0.22648,0.27371 0.25295,0.18319 0.50877,0.15528 0.80072,0.17639 1.83115,-0.32308 3.44262,-1.33633 5.01617,-2.27409 0.85117,-0.50877 1.67301,-1.06227 2.49484,-1.61684 0.22219,-0.14955 0.88588,-0.60537 0.66656,-0.45009 -0.76602,0.54097 -3.07482,2.14958 -2.30737,1.61004 1.07193,-0.75207 2.14672,-1.49984 3.22008,-2.25012 l -2.39681,1.67301 c 0.10877,-0.12451 0.38569,-0.24043 0.42183,-0.42935 0.004,-0.0222 -0.0222,-0.039 -0.0336,-0.0587 -0.10591,-0.15099 2.55638,-2.01541 2.66264,-1.86443 0.088,0.12737 -0.007,0.17353 -0.12165,0.27693 -0.99929,0.90699 -2.70307,1.01325 -3.30379,2.34243 0.79214,-0.55493 3.16962,-2.22365 2.37713,-1.66765 -2.17176,1.52346 -4.32277,3.08591 -6.58828,4.47126 -0.88588,0.53525 -1.76782,1.05797 -2.70987,1.48982 -0.44151,0.20251 -1.0705,0.47371 -1.55959,0.58534 -0.18032,0.0422 -0.36924,0.0422 -0.5535,0.063 -0.15098,-0.01 -0.30483,0.001 -0.45295,-0.0293 -0.52845,-0.11163 -0.89304,-0.6136 -0.98821,-1.12631 -0.0333,-0.18176 -0.0193,-0.37031 -0.0279,-0.55493 0.0279,-0.23077 0.0365,-0.46405 0.0841,-0.69052 0.40251,-1.91595 1.54421,-3.5793 2.48626,-5.25767 1.09411,-1.52489 2.19967,-3.058 3.59182,-4.33136 -0.1077,-0.15206 2.58679,-2.03903 2.69448,-1.88661 z"
         style="fill:url(#linearGradient4631);fill-opacity:1;fill-rule:nonzero;stroke:none"
         id="path30-4"
         inkscape:connector-curvature="0" /><path
         d="m -162.33375,184.57547 c 0.65689,-0.10769 1.31665,0.0154 1.96353,0.12308 1.43544,0.0809 2.36604,0.65976 3.50523,1.473 0.56029,0.64295 1.1349,1.31093 1.53168,2.07266 0.14419,0.2755 0.22934,0.57854 0.36065,0.8594 1.29268,2.74351 -0.41789,-1.12631 0.80073,1.67015 0.48802,1.0916 0.75349,2.26443 1.1882,3.37535 0.57568,1.47587 0.0852,-0.0168 0.54062,1.45762 0.25438,0.58713 0.47407,1.18929 0.72988,1.77498 0.21217,0.48659 0.35779,0.74062 0.45833,1.26621 0.0572,0.0966 0.12021,0.18891 0.16887,0.28802 0.17889,0.36064 0.0293,0.20107 0.26297,0.50161 0.13954,0.18033 0.2823,0.30197 0.38713,0.50877 0.28515,0.10913 0.56172,0.15242 0.86083,0.1789 -0.0404,0.0293 -0.0823,0.0601 -0.12308,0.0894 0.10484,0.14956 -2.53527,1.9986 -2.6401,1.84904 l 0.098,-0.0726 c -0.29338,-0.049 -0.62898,0.0376 -0.88766,-0.16064 -0.17747,-0.20001 -0.0741,-0.1077 -0.31557,-0.26977 -0.14705,-0.15922 -0.1034,-0.27944 -0.21682,-0.45976 -0.5424,-0.87228 0.15528,0.50591 -0.34383,-0.52845 -0.20823,-0.66942 0,-0.0784 -0.31593,-0.75457 -0.22612,-0.48373 -0.18998,-0.50341 -0.41646,-1.01039 -0.50019,-1.12667 -0.0755,-0.003 -0.51128,-1.23722 -0.32845,-0.73204 -0.5814,-1.48553 -0.88337,-2.23044 -0.11056,-0.27407 -0.24187,-0.53811 -0.34097,-0.81611 -0.66262,-1.87552 0.18283,0.0991 -0.62756,-1.69949 -0.6458,-1.77211 0.0376,-0.025 -0.75743,-1.70091 -0.13274,-0.27944 -0.22219,-0.57998 -0.35922,-0.85941 -0.38426,-0.77568 -0.91557,-1.46191 -1.50127,-2.09519 -0.41503,-0.33668 -0.72523,-0.62327 -1.19751,-0.87765 -0.47264,-0.25582 -0.717,-0.28945 -1.21325,-0.4501 -0.16208,-0.0515 -0.31736,-0.12844 -0.4823,-0.16637 -0.16458,-0.0361 -0.33381,-0.0361 -0.50162,-0.0558 -0.62469,-0.0977 -1.24366,-0.16637 -1.87265,-0.18569 -0.10626,-0.15099 2.54636,-2.00862 2.6512,-1.85763 z"
         style="fill:url(#linearGradient4633);fill-opacity:1;fill-rule:nonzero;stroke:none"
         id="path32-3"
         inkscape:connector-curvature="0" /><path
         d="m -144.03621,187.87533 c -0.11628,-0.0419 -0.2,-0.14812 -0.31449,-0.19284 -0.32022,-0.12451 -0.82041,-0.20001 -1.1603,-0.21396 -0.39965,0.0658 -0.81898,0.0351 -1.21576,0.12737 -0.53811,0.12415 -1.0315,0.37031 -1.52059,0.61468 -1.73455,1.19357 1.39071,-0.95994 1.74134,-1.14742 0.20967,-0.11306 -0.32129,0.35385 -0.46548,0.54383 -0.478,0.62613 -0.85367,1.33455 -1.23543,2.02078 -0.28373,0.92237 -0.73096,1.8129 -0.76316,2.79681 -0.0165,0.48051 0.059,0.95994 0.0869,1.44081 0.20394,1.37533 0.64151,2.71273 1.38356,3.88949 0.6247,0.91844 1.21862,1.37104 2.26121,1.71773 0.91844,0.32702 1.83222,0.10341 2.73528,-0.15814 0.45689,-0.1424 0.89303,-0.34097 1.32774,-0.53918 0.10877,0.15492 -2.64583,2.08375 -2.75495,1.92704 -0.44151,0.21252 -0.88874,0.40823 -1.35566,0.56065 -0.6526,0.19571 -1.24509,0.3059 -1.92703,0.27943 -0.14705,-0.006 -0.29625,0.0111 -0.44044,-0.0154 -0.11878,-0.0222 -0.22504,-0.0851 -0.33667,-0.12844 -0.38856,-0.14669 -0.87765,-0.32165 -1.22721,-0.54097 -0.4501,-0.28516 -0.74062,-0.74921 -1.0984,-1.13061 -0.75744,-1.14742 -1.23544,-2.4766 -1.47051,-3.82939 0.007,-0.26547 0.0225,-0.53274 0.024,-0.79822 0.001,-0.23614 -0.0279,-0.47227 -0.0168,-0.70841 0.0476,-0.97139 0.38856,-1.90486 0.75743,-2.79252 0.37031,-0.73239 0.75457,-1.39609 1.26478,-2.04189 0.14275,-0.18032 0.26297,-0.38712 0.44437,-0.52845 1.38105,-1.07443 2.54815,-1.87122 3.87983,-2.78787 0.84008,-0.40394 1.69519,-0.72273 2.64583,-0.67944 0.48194,0.0837 1.03007,0.11736 1.41433,0.44867 0.10626,0.15098 -2.55781,2.01684 -2.66372,1.86585 z"
         style="fill:url(#linearGradient4629);fill-opacity:1;fill-rule:nonzero;stroke:none"
         id="path34-8"
         inkscape:connector-curvature="0" /><path
         d="m -140.20539,191.99417 c 0.0318,1.01861 0.0308,2.03473 0.1059,3.05227 0.0197,1.83652 -0.14383,3.67017 -0.12415,5.50383 -0.0225,0.28909 -0.0572,0.57854 -0.0687,0.86763 -0.0179,0.48945 0.0182,0.97997 0.009,1.46907 -0.0111,0.54634 -0.0741,1.08159 -0.1313,1.62399 -0.0379,0.31879 -0.14956,0.66942 -0.39858,0.8594 -2.7825,2.12847 -1.67265,1.86443 -2.93492,2.13706 l 1.04688,-2.24189 c 0.21646,0.0254 0.43471,0.0168 0.65117,0.0433 0.13417,0.0168 0.26298,0.073 0.39715,0.087 0.97819,0.0919 0.0207,-0.0884 0.60215,0.0308 1.17676,-0.12451 0.2,-0.0462 -2.41792,1.99143 -0.0304,0.025 0.063,-0.0504 0.0855,-0.0837 0.48337,-1.40467 0.26691,-3.23009 0.26405,-4.54925 0.0433,-1.84367 0.13846,-3.68413 0.15385,-5.5278 -0.0365,-2.76139 -0.006,1.15601 0.0433,-1.50771 0.003,-0.17209 -0.0308,-0.3424 -0.0308,-0.51593 0.001,-0.39249 0.0419,-0.79643 0.0837,-1.18498 -0.10483,-0.16637 2.55782,-2.22078 2.66408,-2.05441 z"
         style="fill:url(#linearGradient4627);fill-opacity:1;fill-rule:nonzero;stroke:none"
         id="path36-3"
         inkscape:connector-curvature="0" /><path
         d="m -131.37559,188.13795 c -0.0794,-0.11163 10e-4,-0.25439 -0.0462,-0.36888 -0.0279,-0.0712 -0.10197,-0.11306 -0.15099,-0.17066 -0.19535,-0.22899 -0.33238,-0.33668 -0.61074,-0.4569 -0.91665,-0.38569 -1.79429,0.0572 -2.59502,0.50877 0.72666,-0.49195 1.4086,-1.05654 2.17856,-1.47873 0.26584,-0.14526 -0.44294,0.41217 -0.64402,0.63722 -1.07622,1.21325 -1.72488,2.66408 -2.33419,4.14531 -0.45153,1.31522 -0.39142,0.99787 -0.66226,2.3088 -0.0755,0.36923 -0.16781,0.73668 -0.20824,1.11271 -0.10232,0.94456 0.0347,1.9274 0.10877,2.86909 0.22791,0.45868 0.26977,0.98677 0.47514,1.45225 0.32022,0.73096 0.89304,1.26335 1.54743,1.68267 0.14669,0.0644 0.28479,0.14956 0.43864,0.19142 0.91415,0.25009 1.8841,-0.039 2.74494,-0.32702 0.63435,-0.24186 1.25225,-0.51843 1.85619,-0.8272 0.10877,0.15492 -2.62472,2.06836 -2.73241,1.91308 -0.63185,0.3399 -1.28875,0.62076 -1.94958,0.89304 -1.02613,0.32594 -2.1231,0.61074 -3.14064,0.10483 -0.15242,-0.0823 -0.31987,-0.14383 -0.45833,-0.25009 -0.1424,-0.1102 -0.25152,-0.25868 -0.37603,-0.38999 -0.14097,-0.14669 -0.29768,-0.28229 -0.42076,-0.44437 -0.44151,-0.58427 -0.63149,-1.30127 -0.86513,-1.98035 -0.053,-0.28372 -0.13273,-0.56315 -0.15921,-0.85117 -0.0669,-0.70019 0.004,-1.33741 0.0712,-2.03473 0.0336,-0.34813 0.0505,-0.70019 0.11342,-1.04402 0.1313,-0.71844 0.43471,-1.61004 0.64974,-2.302 0.49625,-1.15171 0.96852,-2.29055 1.69268,-3.32491 1.23687,-1.76782 3.09557,-2.80647 4.87055,-4.014 0.77997,-0.43471 1.64224,-0.90699 2.51845,-0.45403 0.40824,0.23185 0.74921,0.517 0.76996,1.02148 0.10626,0.15099 -2.5757,2.02936 -2.68197,1.87838 z"
         style="fill:url(#linearGradient4625);fill-opacity:1;fill-rule:nonzero;stroke:none"
         id="path38-8"
         inkscape:connector-curvature="0" /><path
         d="m -139.18821,195.11335 c 1.80718,-1.45333 3.7081,-2.80898 5.838,-3.73279 0.89733,-0.36637 1.84761,-0.53524 2.81184,-0.37746 0.35207,0.0573 1.15315,0.29911 1.4816,0.39285 0.0572,0.0236 1.35422,0.56315 1.39608,0.58283 0.22648,0.10591 0.43185,0.25439 0.66119,0.3535 0.25295,0.11019 0.52523,0.17316 0.78248,0.27656 2.66515,1.06943 -1.32775,-0.43578 1.42005,0.5857 1.22148,0.36208 2.44869,0.71557 3.72455,0.77139 1.39752,0 2.78143,-0.25832 4.13959,-0.56173 0.55493,-0.10483 1.09733,-0.25725 1.64367,-0.39428 0.0293,-0.007 0.42219,-0.16351 0.47657,-0.0741 0.1034,0.14812 -2.50021,1.97069 -2.60218,1.82256 -0.75349,0.26155 -1.54599,0.4179 -2.32024,0.60788 -1.35708,0.27979 -2.72526,0.62362 -4.12277,0.55064 -0.27943,-0.0154 -0.87085,-0.039 -1.14456,-0.0809 -0.90019,-0.13704 -1.77355,-0.42505 -2.65549,-0.63722 -0.73382,-0.2712 -1.47157,-0.55207 -2.18464,-0.87658 -0.69017,-0.31306 -1.35422,-0.68766 -2.07945,-0.91951 -1.57641,-0.52702 -2.66945,-0.67514 -4.25301,-0.0447 -0.22898,0.10197 -0.46119,0.19857 -0.68766,0.30626 -0.22505,0.10591 -0.44867,0.21646 -0.66513,0.33668 -1.01325,0.55636 -2.47516,1.65905 1.65047,-1.24402 0.21825,-0.15349 -0.75028,0.53668 -0.63722,0.48372 0.10626,0.15242 -2.56747,2.02364 -2.67374,1.87266 z"
         style="fill:url(#linearGradient4623);fill-opacity:1;fill-rule:nonzero;stroke:none"
         id="path40-3"
         inkscape:connector-curvature="0" /><path
         d="m -250.85364,196.41605 c 0.98785,-1.08195 2.1943,-1.97212 3.39181,-2.80934 1.39072,-0.96996 2.79252,-1.9231 4.18717,-2.8859 2.38858,-1.44367 4.96429,-2.66658 7.72175,-3.19897 0.51592,-0.0995 1.04008,-0.14956 1.55994,-0.22362 1.43401,-0.16494 2.819,0.0612 4.20793,0.3857 0.47693,0.11163 0.9603,0.20537 1.42721,0.35635 0.45116,0.14526 0.87908,0.35349 1.32059,0.52666 0.44186,0.17496 0.88337,0.3467 1.32488,0.52022 4.60506,1.98572 -2.01112,-0.85689 2.47946,1.03687 0.37746,0.15778 0.74491,0.34097 1.12523,0.49482 0.9671,0.38855 1.9689,0.71557 2.96283,1.02863 1.3807,0.46656 2.8215,0.54777 4.26124,0.41933 1.07049,-0.0966 2.08947,-0.43328 3.12776,-0.68624 0.34956,-0.12164 0.69876,-0.2322 1.04402,-0.36208 0.10627,0.14956 -2.54207,2.00432 -2.6469,1.85477 -0.38176,0.17317 -0.76888,0.33381 -1.17282,0.44974 -1.05655,0.30912 -2.12275,0.56065 -3.20863,0.74383 -1.44403,0.0766 -2.90594,0.0572 -4.2963,-0.39428 -0.35385,-0.10483 -1.62399,-0.478 -1.93168,-0.57997 -1.61827,-0.5424 -3.1725,-1.24796 -4.74461,-1.90485 -0.45152,-0.16637 -0.90305,-0.32845 -1.35315,-0.49911 -0.44723,-0.16924 -0.88051,-0.37461 -1.33597,-0.51701 -0.46834,-0.14812 -0.95314,-0.23757 -1.42971,-0.35349 -0.4458,-0.11055 -0.88481,-0.25868 -1.33741,-0.32737 -0.97711,-0.14956 -1.87444,-0.0905 -2.85406,-0.0712 -0.51557,0.0726 -1.03829,0.11485 -1.5485,0.21682 -2.72812,0.55063 -5.29559,1.77354 -7.68131,3.16962 0.59679,-0.43184 1.18928,-0.86799 1.7875,-1.29697 0.38569,-0.27514 -0.76852,0.55493 -1.14742,0.84008 -0.90556,0.68337 -1.79859,1.39465 -2.58966,2.21076 0.10483,0.14956 -2.54636,2.00718 -2.65119,1.8562 z"
         style="fill:#800000;fill-opacity:1;fill-rule:nonzero;stroke:none"
         id="path42-5"
         inkscape:connector-curvature="0" /><path
         d="m -187.32977,206.91493 c 0.0265,0.0179 0.0558,0.0322 0.0809,0.0544 0.0336,0.0293 0.0572,0.0698 0.0909,0.10197 0.0476,0.0433 0.10053,0.0812 0.14955,0.12308 0.0587,0.049 0.11449,0.10197 0.17603,0.14812 0.15528,0.11163 0.32165,0.20823 0.47943,0.31593 0.21539,0.0755 0.40108,0.21503 0.61075,0.30054 0.11198,0.0462 0.22934,0.0741 0.34383,0.11163 0.24866,0.0812 0.36494,0.1313 0.61933,0.18855 0.1034,0.0225 0.2093,0.0365 0.31413,0.0547 0.19321,0.003 0.38033,0.0698 0.57174,0.0755 0.11056,0.003 0.21933,-0.01 0.32845,-0.0197 0.3746,-0.0351 0.67228,-0.12164 1.02721,-0.24043 0.35242,-0.14812 0.35349,-0.13703 0.70162,-0.33811 0.10912,-0.063 0.42505,-0.278 0.32272,-0.20143 -1.21719,0.91271 -0.52666,0.35779 -0.32845,0.16637 0.0798,-0.0784 0.15385,-0.16208 0.23077,-0.24294 0.31307,-0.38855 0.58963,-0.84866 0.6204,-1.36423 0.006,-0.0866 -0.005,-0.17174 -0.008,-0.25868 -0.0154,-0.0837 -0.0197,-0.16888 -0.0433,-0.2501 -0.0698,-0.22791 -0.22504,-0.46691 -0.39285,-0.63042 -0.6161,-0.59929 0.19857,0.25189 -0.34526,-0.32558 -0.28516,-0.20108 -0.61217,-0.32559 -0.96137,-0.34777 -0.0658,-0.004 -0.13131,0.003 -0.19714,0.004 -0.0769,0.0154 -0.15242,0.0308 -0.22791,0.0461 -0.20108,0.0408 -0.21074,0.0351 -0.41074,0.12451 -0.0698,0.0308 -0.26548,0.15242 -0.20394,0.10483 1.02577,-0.80072 0.77962,-0.57568 0.49446,-0.29338 -0.21073,0.26261 -0.45689,0.55743 -0.5238,0.90126 -0.01,0.0544 -0.007,0.11199 -0.01,0.1678 -0.004,0.0615 -0.0168,0.12451 -0.014,0.18569 0.009,0.13704 0.0533,0.22219 0.10626,0.34527 0.0837,0.19284 0.16494,0.30912 0.29196,0.47514 0.10483,0.13023 0.24329,0.19857 0.38605,0.27263 0.10197,0.0519 0.11735,0.0755 0.23471,0.0894 0.0462,0.006 0.0923,0 0.13846,-0.001 0.16601,-0.0125 0.32272,-0.0698 0.48051,-0.12165 0.16494,0.239 -0.66799,0.82899 -0.83293,0.58999 -0.16208,0.0698 -0.32845,0.12701 -0.50591,0.14097 -0.0837,-0.004 -0.18462,-0.004 -0.26691,-0.0265 -0.19714,-0.0544 -0.33811,-0.2068 -0.48229,-0.3424 -0.0487,-0.039 -0.10627,-0.0698 -0.1467,-0.11736 -0.039,-0.049 -0.0601,-0.11055 -0.0894,-0.16637 -0.12702,-0.24866 -0.19285,-0.42075 -0.16888,-0.70698 0.003,-0.0562 -0.003,-0.11199 0.008,-0.16637 0.0125,-0.063 0.0419,-0.12022 0.0644,-0.1789 0.1034,-0.2644 0.25832,-0.49768 0.44294,-0.71163 0.48087,-0.46799 0.24473,-0.25689 1.2705,-0.95708 0.24723,-0.17066 0.5535,-0.23507 0.84259,-0.27693 0.088,0.001 0.31879,0.001 0.39964,0.0154 0.063,0.01 0.12165,0.0336 0.18176,0.0533 0.2068,0.064 0.39142,0.15921 0.57031,0.28229 0.17889,0.15635 0.38856,0.30591 0.52702,0.50305 0.1356,0.19141 0.23614,0.45689 0.27228,0.68766 0.001,0.18856 0.0125,0.33954 -0.0293,0.52416 -0.0222,0.0962 -0.0626,0.18712 -0.0948,0.27943 -0.0293,0.0851 -0.0533,0.17317 -0.0937,0.25439 -0.0977,0.19714 -0.23184,0.36601 -0.36064,0.54204 -0.5925,0.60967 -0.91522,0.80109 -1.73849,1.3782 -0.31879,0.22361 -0.66942,0.40394 -1.03006,0.5449 -0.11736,0.0394 -0.23221,0.0855 -0.35099,0.11879 -0.50734,0.13989 -1.0451,0.15814 -1.55959,0.0533 -0.16208,-0.0279 -0.48767,-0.0798 -0.64438,-0.12451 -0.1034,-0.0293 -0.20107,-0.0741 -0.30197,-0.10877 -0.11306,-0.0408 -0.23041,-0.0687 -0.34097,-0.11342 -0.18855,-0.0784 -0.41217,-0.21395 -0.58963,-0.31592 -0.239,-0.15206 -0.25439,-0.14812 -0.46262,-0.32988 -0.22648,-0.19678 -0.0966,-0.10197 -0.29338,-0.29338 -0.17639,-0.16924 -0.0476,-0.0154 -0.16351,-0.16208 -0.16494,-0.239 0.66799,-0.83007 0.83436,-0.59106 z"
         style="fill:#800000;fill-opacity:1;fill-rule:nonzero;stroke:none"
         id="path44-4"
         inkscape:connector-curvature="0" /><path
         d="m -173.3135,208.33355 c -0.0222,-0.024 -0.0472,-0.0447 -0.064,-0.073 -0.0254,-0.0376 -0.0379,-0.0837 -0.063,-0.12129 -0.0336,-0.0562 -0.0755,-0.10626 -0.11306,-0.15957 -0.0447,-0.063 -0.0841,-0.12845 -0.1331,-0.18856 -0.11986,-0.14955 -0.25546,-0.28658 -0.3814,-0.43184 -0.18855,-0.12881 -0.33274,-0.31164 -0.51306,-0.4501 -0.0962,-0.0741 -0.20251,-0.13131 -0.30448,-0.19714 -0.21789,-0.14383 -0.31736,-0.22362 -0.5492,-0.34526 -0.0937,-0.0487 -0.19285,-0.0894 -0.28945,-0.13525 -0.18569,-0.0533 -0.3492,-0.16637 -0.53382,-0.22254 -0.10483,-0.0318 -0.21395,-0.0487 -0.32129,-0.0669 -0.37067,-0.0658 -0.68087,-0.0587 -1.05404,-0.0379 -0.3771,0.0519 -0.37603,0.0408 -0.76316,0.14276 -0.12272,0.0336 -0.48193,0.15778 -0.36315,0.11019 1.40861,-0.56172 0.59965,-0.2068 0.35922,-0.0741 -0.0966,0.0533 -0.19034,0.11628 -0.28516,0.17353 -0.40108,0.29338 -0.78677,0.66512 -0.94777,1.15565 -0.0265,0.0812 -0.0376,0.1678 -0.0572,0.25152 -0.007,0.0841 -0.025,0.16924 -0.0222,0.25296 0.008,0.23793 0.0977,0.5102 0.21789,0.71163 0.44151,0.74062 -0.12844,-0.29481 0.25009,0.40538 0.22362,0.26941 0.50734,0.47514 0.84008,0.5882 0.0615,0.0211 0.12702,0.0308 0.19142,0.0476 0.0784,0.006 0.15528,0.0111 0.2322,0.0154 0.20394,0.0125 0.21217,0.0207 0.42756,-0.0125 0.0755,-0.0114 0.29625,-0.0769 0.22505,-0.0476 -1.19644,0.50305 -0.90019,0.35206 -0.5535,0.15385 0.26977,-0.19857 0.58427,-0.41933 0.73632,-0.73382 0.024,-0.0504 0.0351,-0.10627 0.0519,-0.15958 0.0211,-0.0587 0.049,-0.11449 0.0615,-0.17603 0.0265,-0.13417 0.006,-0.22755 -0.0154,-0.36064 -0.0308,-0.20931 -0.0784,-0.34241 -0.15922,-0.53525 -0.0687,-0.15206 -0.18461,-0.25546 -0.3034,-0.36459 -0.0851,-0.0769 -0.0937,-0.10483 -0.20394,-0.14812 -0.0433,-0.0168 -0.0894,-0.024 -0.13417,-0.0351 -0.16351,-0.0322 -0.32988,-0.0182 -0.49482,-0.008 -0.098,-0.27407 0.85654,-0.62613 0.95458,-0.35242 0.1746,-0.0236 0.35063,-0.0361 0.52415,-0.003 0.0809,0.025 0.1789,0.0515 0.25153,0.0962 0.17603,0.1034 0.2737,0.28802 0.37854,0.45546 0.0379,0.0519 0.0855,0.0952 0.11198,0.15242 0.025,0.0572 0.0308,0.12308 0.0433,0.18461 0.0601,0.27407 0.0798,0.4569 -0.0168,0.72667 -0.0168,0.0533 -0.025,0.10912 -0.0504,0.15921 -0.0293,0.0562 -0.0712,0.10483 -0.10877,0.15528 -0.16637,0.22934 -0.37603,0.4136 -0.60931,0.57174 -0.58426,0.32559 -0.30197,0.18283 -1.4705,0.5925 -0.28229,0.0977 -0.59535,0.0798 -0.88588,0.0447 -0.0841,-0.0236 -0.30769,-0.0837 -0.38175,-0.11878 -0.0587,-0.0265 -0.10877,-0.0644 -0.16351,-0.0991 -0.18176,-0.11771 -0.33525,-0.25582 -0.47657,-0.42219 -0.13417,-0.19857 -0.29768,-0.39821 -0.3814,-0.62469 -0.0812,-0.22076 -0.11056,-0.50305 -0.0866,-0.73668 0.0462,-0.18033 0.0741,-0.33131 0.16208,-0.49733 0.0462,-0.0869 0.10769,-0.16351 0.16208,-0.24472 0.0515,-0.0741 0.0962,-0.15385 0.15492,-0.22076 0.14562,-0.16637 0.31879,-0.29374 0.48802,-0.43041 0.72809,-0.43328 1.08874,-0.53275 2.03187,-0.87515 0.36494,-0.13274 0.7492,-0.2136 1.13346,-0.25546 0.12308,-0.007 0.24616,-0.0225 0.36924,-0.024 0.52523,-10e-4 1.05082,0.12165 1.52059,0.35779 0.14955,0.0698 0.45117,0.20537 0.59106,0.28945 0.0923,0.0558 0.1746,0.12415 0.26262,0.18569 0.0995,0.0673 0.20573,0.12451 0.30197,0.19857 0.16208,0.12451 0.3424,0.31449 0.48766,0.45975 0.19285,0.20967 0.20823,0.20967 0.36208,0.43901 0.16923,0.25009 0.0673,0.12415 0.20966,0.36029 0.12738,0.20966 0.0419,0.0283 0.11593,0.19857 0.098,0.27406 -0.85797,0.62756 -0.95601,0.35349 l 0,-0.001 z"
         style="fill:#800000;fill-opacity:1;fill-rule:nonzero;stroke:none"
         id="path46-4"
         inkscape:connector-curvature="0" /><path
         d="m -171.46303,206.58075 c 0.088,0.0558 0.19714,0.10627 0.31736,0.1467 0.38856,0.1288 0.77425,0.26154 1.17676,0.38032 0.32165,0.0963 0.90985,0.20251 1.24116,0.26691 2.02507,0.36315 4.18145,0.49876 6.32816,0.57854 0.64438,0.0236 1.28875,0.039 1.93312,0.0587 1.87838,0.007 2.24583,0.0211 4.1632,-0.0265 0.73955,-0.0182 1.47873,-0.0476 2.21828,-0.0726 0.79214,-0.0279 1.58606,-0.0519 2.37856,-0.0894 0.97425,-0.0462 3.73994,-0.22076 4.69881,-0.27979 2.89449,-0.23471 5.79291,-0.46656 8.70994,-0.63579 0.64688,-0.0376 1.29412,-0.0809 1.94386,-0.10054 0.65403,-0.0182 1.31093,-0.009 1.96639,-0.0125 1.79466,0.0182 1.72489,-0.007 3.48162,0.10483 0.51414,0.0322 1.02863,0.0669 1.53741,0.11736 0.63435,0.063 2.10592,0.25832 2.75602,0.36601 0.38999,0.0644 0.76853,0.14276 1.15172,0.21396 1.3052,0.29052 0.69017,0.1424 1.84868,0.44007 0.20966,-0.1424 -0.84974,-0.49446 -1.06048,-0.35206 -1.20502,-0.31306 -0.56459,-0.15635 -1.9231,-0.46548 -1.11558,-0.21252 -1.3349,-0.26977 -2.51846,-0.42898 -2.14564,-0.28945 -4.37179,-0.42899 -6.60115,-0.43614 -0.64974,0.006 -1.29948,0.001 -1.94815,0.0182 -0.66656,0.0168 -1.33061,0.0504 -1.99573,0.0837 -2.12704,0.10484 -2.15244,0.12451 -4.28914,0.27407 -0.74778,0.0519 -1.49698,0.10054 -2.24475,0.15385 -0.76567,0.0544 -1.52882,0.11163 -2.29341,0.16744 -3.45193,0.25045 -1.17676,0.10233 -4.68056,0.28802 -0.75601,0.0394 -1.5095,0.0923 -2.26837,0.12451 -2.11165,0.0909 -4.23762,0.10626 -6.35607,0.10769 -0.61074,-0.009 -1.22184,-0.01 -1.83115,-0.0254 -0.54491,-0.014 -1.08874,-0.0376 -1.63079,-0.0626 -1.234,-0.059 -2.4655,-0.15099 -3.65908,-0.31307 -0.27657,-0.0365 -0.54634,-0.0869 -0.81897,-0.1288 -0.20823,-0.0376 -0.42076,-0.0726 -0.62756,-0.11306 -0.1678,-0.0351 -0.56029,-0.19428 -0.49195,-0.11342 0.0866,0.10197 0.37174,0.13417 0.56458,0.19714 0.0293,0.01 -0.1703,-0.0601 -0.317,-0.13131 -0.0197,-0.01 -0.0365,-0.0225 -0.0547,-0.0336 0.15957,-0.10769 -0.64544,-0.3746 -0.80502,-0.26691 z"
         style="fill:#800000;fill-opacity:1;fill-rule:nonzero;stroke:none"
         id="path48-6"
         inkscape:connector-curvature="0" /><path
         d="m -237.0803,207.37325 c 0.088,0.0558 0.19714,0.10626 0.31735,0.14526 0.38856,0.12988 0.77425,0.26154 1.17676,0.38176 0.32129,0.0948 0.90985,0.20108 1.2408,0.26548 2.02543,0.36458 4.18181,0.49875 6.32853,0.57854 0.64437,0.0236 1.28838,0.039 1.93276,0.0587 1.87838,0.007 2.24618,0.0211 4.16356,-0.025 0.73918,-0.0182 1.47873,-0.0476 2.21791,-0.0741 0.7925,-0.0279 1.58643,-0.0504 2.37892,-0.088 0.97533,-0.0461 3.73994,-0.22111 4.69845,-0.28122 2.89449,-0.23471 5.79328,-0.46512 8.70995,-0.63435 0.64723,-0.0376 1.29411,-0.0823 1.94421,-0.10054 0.65403,-0.0197 1.31093,-0.009 1.96639,-0.0125 1.7943,0.0164 1.72453,-0.009 3.48126,0.1034 0.5145,0.0318 1.02864,0.0683 1.53741,0.11878 0.63471,0.0626 2.10629,0.25832 2.75603,0.36459 0.38998,0.0644 0.76888,0.14275 1.15171,0.21395 1.30556,0.29196 0.69053,0.14383 1.84904,0.44008 0.20966,-0.1424 -0.84974,-0.49339 -1.06084,-0.35206 -1.20466,-0.31163 -0.56458,-0.15528 -1.9231,-0.46405 -1.11522,-0.21396 -1.33454,-0.2712 -2.51845,-0.43042 -2.14529,-0.28802 -4.37179,-0.42755 -6.6008,-0.43614 -0.64974,0.007 -1.29984,0.001 -1.94815,0.0182 -0.66691,0.0182 -1.3306,0.0519 -1.99609,0.0837 -2.12704,0.10483 -2.15208,0.12451 -4.28914,0.27406 -0.74777,0.053 -1.49662,0.10197 -2.24439,0.15385 -0.76602,0.0544 -1.52918,0.11306 -2.29341,0.16888 -3.45228,0.25045 -1.17676,0.10197 -4.68056,0.28658 -0.75636,0.0404 -1.5095,0.0923 -2.26836,0.12451 -2.11202,0.0909 -4.23762,0.1077 -6.35643,0.10877 -0.61075,-0.008 -1.22149,-0.0111 -1.8308,-0.0265 -0.54526,-0.0139 -1.08874,-0.0361 -1.63114,-0.063 -1.23401,-0.0587 -2.46515,-0.15062 -3.65873,-0.31163 -0.27692,-0.0376 -0.54669,-0.0866 -0.81897,-0.12987 -0.20823,-0.0376 -0.42076,-0.0712 -0.62756,-0.11306 -0.1678,-0.0336 -0.56065,-0.19285 -0.49195,-0.11342 0.0866,0.1034 0.37174,0.13417 0.56458,0.19714 0.0293,0.01 -0.17066,-0.0587 -0.31735,-0.13131 -0.0193,-0.01 -0.0361,-0.0211 -0.0544,-0.0322 0.15922,-0.10769 -0.6458,-0.37603 -0.80501,-0.26691 z"
         style="fill:#800000;fill-opacity:1;fill-rule:nonzero;stroke:none"
         id="path50-6"
         inkscape:connector-curvature="0" /><text
         style="font-variant:normal;font-weight:normal;font-size:10.36651611px;font-family:'Palatino Linotype';-inkscape-font-specification:PalatinoLinotype-Roman;writing-mode:lr-tb;fill:url(#linearGradient4655);fill-opacity:1;fill-rule:nonzero;stroke:none"
         id="text52-4"
         x="-232.89247"
         y="219.20015"><tspan
           sodipodi:role="line"
           x="-232.89247"
           y="219.20015"
           id="tspan4182-3"
           style="fill:url(#linearGradient4655);fill-opacity:1">amin duna - ilya lanta</tspan></text>
</g></g></svg>