<?xml version="1.0" encoding="UTF-8" standalone="no"?>
<svg
   xmlns:dc="http://purl.org/dc/elements/1.1/"
   xmlns:cc="http://creativecommons.org/ns#"
   xmlns:rdf="http://www.w3.org/1999/02/22-rdf-syntax-ns#"
   xmlns:svg="http://www.w3.org/2000/svg"
   xmlns="http://www.w3.org/2000/svg"
   xmlns:sodipodi="http://sodipodi.sourceforge.net/DTD/sodipodi-0.dtd"
   xmlns:inkscape="http://www.inkscape.org/namespaces/inkscape"
   version="1.1"
   width="76"
   height="76"
   viewBox="0 0 76.00 76.00"
   enable-background="new 0 0 76.00 76.00"
   xml:space="preserve"
   id="svg2"
   inkscape:version="0.91 r13725"
   sodipodi:docname="appbar.card.2.svg"><metadata
     id="metadata10"><rdf:RDF><cc:Work
         rdf:about=""><dc:format>image/svg+xml</dc:format><dc:type
           rdf:resource="http://purl.org/dc/dcmitype/StillImage" /><dc:title></dc:title></cc:Work></rdf:RDF></metadata><defs
     id="defs8" /><sodipodi:namedview
     pagecolor="#ffffff"
     bordercolor="#666666"
     borderopacity="1"
     objecttolerance="10"
     gridtolerance="10"
     guidetolerance="10"
     inkscape:pageopacity="0"
     inkscape:pageshadow="2"
     inkscape:window-width="2560"
     inkscape:window-height="1377"
     id="namedview6"
     showgrid="false"
     inkscape:zoom="3.1052632"
     inkscape:cx="38"
     inkscape:cy="38"
     inkscape:window-x="2552"
     inkscape:window-y="-8"
     inkscape:window-maximized="1"
     inkscape:current-layer="svg2" /><path
     d="m 11.589784,6.6949152 40.168831,0 c 1.135483,0 2.055886,0.8677475 2.055886,1.9379335 l 0,9.5405983 c 0,1.070336 -0.920403,1.937933 -2.055886,1.937933 l -24.354331,0 c -2.008758,0 -3.637336,1.535143 -3.637336,3.428653 l 0,31.901371 c 0,1.070336 -0.920402,1.937935 -2.055883,1.937935 l -10.121281,0 c -1.135482,0 -2.055885,-0.867599 -2.055885,-1.937935 l 0,-46.8085553 c 0,-1.0703357 0.920403,-1.9379335 2.055885,-1.9379335 z m 18.9774,17.8886198 33.843032,0 c 1.135483,0 2.055885,0.867599 2.055885,1.937935 l 0,40.845682 c 0,1.070335 -0.920402,1.937933 -2.055885,1.937933 l -33.843032,0 c -1.135482,0 -2.055885,-0.867598 -2.055885,-1.937933 l 0,-40.845682 c 0,-1.070336 0.920403,-1.937935 2.055885,-1.937935 z m 25.628981,34.286522 0,-3.670298 -12.657611,0 0,-0.09436 c 0,-0.527119 0.185821,-1.052298 0.557145,-1.575541 0.371482,-0.523241 0.857621,-1.04544 1.458571,-1.566595 l 2.025047,-1.602075 2.256729,-1.687642 2.447611,-2.047503 c 0.730314,-0.66486 1.353246,-1.366094 1.868641,-2.1037 0.515394,-0.737608 0.912814,-1.533204 1.192572,-2.386791 0.2796,-0.853733 0.4194,-1.815544 0.4194,-2.885583 0,-1.180052 -0.199262,-2.225493 -0.597946,-3.136173 -0.398525,-0.910679 -0.962945,-1.669902 -1.693259,-2.277668 -0.730313,-0.607766 -1.609757,-1.0681 -2.63849,-1.380853 -1.028735,-0.312752 -2.175286,-0.469129 -3.439813,-0.469129 l -2.212923,0.147581 -1.975073,0.451389 -1.818351,0.755348 -1.743391,1.059155 0,4.112892 c 1.097526,-1.00713 2.238859,-1.763371 3.424156,-2.268873 1.185139,-0.505503 2.351616,-0.758329 3.499274,-0.758329 0.667689,0 1.281133,0.08959 1.840334,0.268479 0.5592,0.179035 1.04439,0.443637 1.455408,0.793658 0.411178,0.35017 0.731421,0.786801 0.960889,1.310044 0.229628,0.523241 0.344282,1.134884 0.344282,1.835074 0,0.637281 -0.09805,1.230289 -0.294149,1.779172 -0.1961,0.548733 -0.470482,1.068994 -0.823146,1.560633 l -1.270853,1.428108 -1.643127,1.41022 -1.956253,1.50175 -1.956253,1.549005 -1.799691,1.660958 c -0.561256,0.572436 -1.050557,1.181245 -1.467902,1.826279 -0.417345,0.645183 -0.75024,1.333596 -0.998528,2.065241 -0.248287,0.731794 -0.372432,1.51457 -0.372432,2.348627 l 0,2.047502 17.609132,0 z"
     id="path4"
     style="fill:#ffffff;fill-opacity:1;stroke-linejoin:round"
     inkscape:connector-curvature="0" /></svg>