<?xml version="1.0" encoding="UTF-8" standalone="no"?>
<svg
   xmlns:dc="http://purl.org/dc/elements/1.1/"
   xmlns:cc="http://creativecommons.org/ns#"
   xmlns:rdf="http://www.w3.org/1999/02/22-rdf-syntax-ns#"
   xmlns:svg="http://www.w3.org/2000/svg"
   xmlns="http://www.w3.org/2000/svg"
   xmlns:sodipodi="http://sodipodi.sourceforge.net/DTD/sodipodi-0.dtd"
   xmlns:inkscape="http://www.inkscape.org/namespaces/inkscape"
   version="1.1"
   width="76"
   height="76"
   viewBox="0 0 76.00 76.00"
   enable-background="new 0 0 76.00 76.00"
   xml:space="preserve"
   id="svg2"
   inkscape:version="0.91 r13725"
   sodipodi:docname="appbar.book.hardcover.open.svg"><metadata
     id="metadata10"><rdf:RDF><cc:Work
         rdf:about=""><dc:format>image/svg+xml</dc:format><dc:type
           rdf:resource="http://purl.org/dc/dcmitype/StillImage" /><dc:title></dc:title></cc:Work></rdf:RDF></metadata><defs
     id="defs8" /><sodipodi:namedview
     pagecolor="#ffffff"
     bordercolor="#666666"
     borderopacity="1"
     objecttolerance="10"
     gridtolerance="10"
     guidetolerance="10"
     inkscape:pageopacity="0"
     inkscape:pageshadow="2"
     inkscape:window-width="2560"
     inkscape:window-height="1377"
     id="namedview6"
     showgrid="false"
     inkscape:zoom="3.1052632"
     inkscape:cx="38"
     inkscape:cy="38"
     inkscape:window-x="2552"
     inkscape:window-y="-8"
     inkscape:window-maximized="1"
     inkscape:current-layer="svg2" /><path
     d="M 38.000081,22.402899 C 43.133763,5.0769037 66.23509,14.702456 66.23509,14.702456 l -1.62e-4,3.208572 0,1.878907 5.133682,-1.237096 -1.62e-4,39.143861 c 0,0 -28.234847,1.283299 -33.368367,10.267202 C 32.866398,58.979999 4.6313903,57.6967 4.6313903,57.6967 l 0,-39.144023 5.1336815,1.237096 0,-1.878745 0,-3.208409 c 0,0 23.1013262,-9.6257153 28.2350092,7.70028 z m 25.667924,28.269377 1.64e-4,-32.03919 c -7.700443,-0.722058 -15.400886,-5.85574 -24.384627,6.442595 l -1.62e-4,33.848713 c 4.418756,-5.528107 17.213487,-6.139766 24.384625,-8.252118 z m -51.336172,-32.03919 0,32.03919 c 7.171137,2.112352 19.965868,2.724011 24.384787,8.252118 l 0,-33.848713 C 27.732879,12.777346 20.032436,17.911028 12.331833,18.633086 Z"
     id="path4"
     inkscape:connector-curvature="0"
     style="fill:#ffffff;fill-opacity:1;stroke-width:0.2;stroke-linejoin:round" /><path
     inkscape:connector-curvature="0"
     style="fill:#ffffff;fill-opacity:1;stroke-width:0.2;stroke-linejoin:round"
     d="m 50.200394,43.575177 c 1.43585,0 2.5998,1.163944 2.5998,2.599795 0,1.435785 -1.16395,2.599729 -2.5998,2.599729 -1.43578,0 -2.59973,-1.163944 -2.59973,-2.599729 0,-1.435851 1.16395,-2.599795 2.59973,-2.599795 z m 0.51998,-20.797964 c 4.59456,0 8.31915,2.97186 8.31915,7.279281 0,1.55985 -1.03987,4.159579 -3.11963,5.199523 -2.07982,1.039879 -3.1197,2.436651 -3.1197,4.15958 l 0,2.079823 -5.19953,0 0,-1.559851 c 0,-3.536493 3.11971,-5.719496 4.15958,-6.759374 2.07983,-2.079823 2.07983,-2.368346 2.07983,-3.119701 0,-1.722929 -1.39678,-3.119702 -3.1197,-3.119702 -1.723,0 -3.11971,1.396773 -3.11971,3.119702 l 0,1.55985 -5.19952,0 0,-1.039878 c 0,-4.307421 3.72466,-7.799253 8.31923,-7.799253 z"
     id="path4-2" /></svg>