<?xml version="1.0" encoding="UTF-8" standalone="no"?>
<svg
   xmlns:dc="http://purl.org/dc/elements/1.1/"
   xmlns:cc="http://creativecommons.org/ns#"
   xmlns:rdf="http://www.w3.org/1999/02/22-rdf-syntax-ns#"
   xmlns:svg="http://www.w3.org/2000/svg"
   xmlns="http://www.w3.org/2000/svg"
   xmlns:sodipodi="http://sodipodi.sourceforge.net/DTD/sodipodi-0.dtd"
   xmlns:inkscape="http://www.inkscape.org/namespaces/inkscape"
   version="1.1"
   width="76"
   height="76"
   viewBox="0 0 76.00 76.00"
   enable-background="new 0 0 76.00 76.00"
   xml:space="preserve"
   id="svg2"
   inkscape:version="0.91 r13725"
   sodipodi:docname="appbar.card.7.svg"><metadata
     id="metadata10"><rdf:RDF><cc:Work
         rdf:about=""><dc:format>image/svg+xml</dc:format><dc:type
           rdf:resource="http://purl.org/dc/dcmitype/StillImage" /><dc:title></dc:title></cc:Work></rdf:RDF></metadata><defs
     id="defs8" /><sodipodi:namedview
     pagecolor="#ffffff"
     bordercolor="#666666"
     borderopacity="1"
     objecttolerance="10"
     gridtolerance="10"
     guidetolerance="10"
     inkscape:pageopacity="0"
     inkscape:pageshadow="2"
     inkscape:window-width="2560"
     inkscape:window-height="1377"
     id="namedview6"
     showgrid="false"
     inkscape:zoom="3.1052632"
     inkscape:cx="38"
     inkscape:cy="38"
     inkscape:window-x="2552"
     inkscape:window-y="-8"
     inkscape:window-maximized="1"
     inkscape:current-layer="svg2" /><path
     d="m 11.589878,6.695 40.168689,0 c 1.135477,0 2.055877,0.8677448 2.055877,1.9379286 l 0,9.5405714 c 0,1.070333 -0.9204,1.937929 -2.055877,1.937929 l -24.354245,0 c -2.008751,0 -3.637322,1.535137 -3.637322,3.428642 l 0,31.901286 c 0,1.070333 -0.920401,1.937929 -2.055878,1.937929 l -10.121244,0 C 10.454401,57.379286 9.534,56.51169 9.534,55.441357 l 0,-46.8084284 C 9.534,7.5625957 10.454401,6.695 11.589878,6.695 Z m 18.977333,17.888571 33.842911,0 c 1.135477,0 2.055878,0.867745 2.055878,1.937929 l 0,40.845571 c 0,1.070333 -0.920401,1.937929 -2.055878,1.937929 l -33.842911,0 c -1.135477,0 -2.055878,-0.867596 -2.055878,-1.937929 l 0,-40.845571 c 0,-1.070184 0.920401,-1.937929 2.055878,-1.937929 z m 27.018662,9.981227 0,-2.136045 -18.742014,0 0,3.646735 13.283342,0 -3.101687,5.773834 c -0.970374,1.905879 -1.846652,3.802067 -2.629151,5.688268 -0.782499,1.88635 -1.464892,3.773594 -2.047022,5.661733 -0.582129,1.888288 -1.029678,3.778513 -1.342646,5.670677 l 4.757459,0 c 0.337955,-2.128144 0.819979,-4.209181 1.446073,-6.242962 0.625936,-2.033782 1.362573,-4.052805 2.209752,-6.057071 0.847022,-2.004414 1.79241,-3.998841 2.835688,-5.983429 l 3.330206,-6.02174 z"
     id="path4"
     inkscape:connector-curvature="0"
     style="fill:#ffffff;fill-opacity:1;stroke-linejoin:round" /></svg>