<?xml version="1.0" encoding="UTF-8" standalone="no"?>
<svg
   xmlns:dc="http://purl.org/dc/elements/1.1/"
   xmlns:cc="http://creativecommons.org/ns#"
   xmlns:rdf="http://www.w3.org/1999/02/22-rdf-syntax-ns#"
   xmlns:svg="http://www.w3.org/2000/svg"
   xmlns="http://www.w3.org/2000/svg"
   id="svg2"
   xml:space="preserve"
   enable-background="new 0 0 76.00 76.00"
   viewBox="0 0 40 40"
   height="40"
   width="40"
   version="1.1"><metadata
     id="metadata10"><rdf:RDF><cc:Work
         rdf:about=""><dc:format>image/svg+xml</dc:format><dc:type
           rdf:resource="http://purl.org/dc/dcmitype/StillImage" /><dc:title></dc:title></cc:Work></rdf:RDF></metadata><defs
     id="defs8" /><path
     style="fill:#FFFFFF;fill-opacity:1;stroke-width:0.2;stroke-linejoin:round"
     id="path4"
     d="M 6.1586303,2.6539075 6.4566739,2.3515001 37.751206,34.104355 c 0.96022,0.974283 1.293804,2.215341 0.745107,2.772074 l -0.496739,0.504015 c -0.548697,0.556732 -1.77184,0.218262 -2.732061,-0.756021 L 26.574587,27.804185 25.58111,28.812212 C 5.5873811,8.5256658 6.1586303,2.6539075 6.1586303,2.6539075 Z" /><path
     style="fill:#FFFFFF;fill-opacity:1;stroke-width:0.2;stroke-linejoin:round"
     id="path4-1"
     d="M 33.84137,2.6539075 33.543327,2.3515001 2.248795,34.104355 c -0.9602204,0.974283 -1.29380504,2.215341 -0.7451073,2.772074 l 0.4967386,0.504015 c 0.5486977,0.556732 1.7718412,0.218262 2.7320615,-0.756021 l 8.6929262,-8.820238 0.993477,1.008027 C 34.41262,8.5256658 33.84137,2.6539075 33.84137,2.6539075 Z" /></svg>