<?xml version="1.0" encoding="UTF-8" standalone="no"?>
<svg
   xmlns:dc="http://purl.org/dc/elements/1.1/"
   xmlns:cc="http://creativecommons.org/ns#"
   xmlns:rdf="http://www.w3.org/1999/02/22-rdf-syntax-ns#"
   xmlns:svg="http://www.w3.org/2000/svg"
   xmlns="http://www.w3.org/2000/svg"
   xmlns:sodipodi="http://sodipodi.sourceforge.net/DTD/sodipodi-0.dtd"
   xmlns:inkscape="http://www.inkscape.org/namespaces/inkscape"
   version="1.1"
   width="76"
   height="76"
   viewBox="0 0 76.00 76.00"
   enable-background="new 0 0 76.00 76.00"
   xml:space="preserve"
   id="svg2"
   inkscape:version="0.91 r13725"
   sodipodi:docname="appbar.hardware.headset.svg"><metadata
     id="metadata10"><rdf:RDF><cc:Work
         rdf:about=""><dc:format>image/svg+xml</dc:format><dc:type
           rdf:resource="http://purl.org/dc/dcmitype/StillImage" /><dc:title></dc:title></cc:Work></rdf:RDF></metadata><defs
     id="defs8" /><sodipodi:namedview
     pagecolor="#ffffff"
     bordercolor="#666666"
     borderopacity="1"
     objecttolerance="10"
     gridtolerance="10"
     guidetolerance="10"
     inkscape:pageopacity="0"
     inkscape:pageshadow="2"
     inkscape:window-width="2560"
     inkscape:window-height="1377"
     id="namedview6"
     showgrid="false"
     inkscape:zoom="3.1052632"
     inkscape:cx="38"
     inkscape:cy="38"
     inkscape:window-x="2552"
     inkscape:window-y="-8"
     inkscape:window-maximized="1"
     inkscape:current-layer="svg2" /><path
     d="m 37.590975,5.6964034 0.818049,0 c 0,0 30.676867,0 30.676867,32.7219896 0,14.724895 -3.272199,19.633194 -4.908299,21.269293 0,0 -4.908299,3.272199 -3.272363,-1.227074 0,-3.785607 1.636263,-11.861722 1.636263,-11.861722 0,0 1.6361,0 1.6361,-8.180497 0,-9.816597 -6.544399,-26.995641 -24.541493,-26.995641 l -3.272199,0 c -17.997095,0 -24.541493,17.179044 -24.541493,26.995641 0,8.180497 1.6361,8.180497 1.6361,8.180497 0,0 1.636263,8.076115 1.636263,11.861722 1.635936,4.499273 -3.272363,1.227074 -3.272363,1.227074 C 10.186309,58.051587 6.9141095,53.143288 6.9141095,38.418393 6.9141095,5.6964034 37.590975,5.6964034 37.590975,5.6964034 Z M 19.272059,38.689167 c 2.68435,-0.377284 5.166313,1.493105 5.543596,4.177453 l 1.757825,12.50749 9.192916,9.81856 c 0.899691,-0.26832 1.950558,-0.365177 2.776788,-0.09669 1.718723,0.558564 3.689732,1.507502 3.091738,3.032837 -1.180773,3.011569 -3.707729,2.193682 -5.426452,1.635282 -1.26765,-0.411807 -2.097643,-1.568365 -2.333896,-2.491943 l -6.577938,-6.752674 0.02372,0.169009 c 0.377284,2.684349 -1.493104,5.166312 -4.177453,5.543596 -2.684348,0.377285 -5.984361,-1.492941 -6.361646,-4.177453 l -2.5047,-17.821871 c -0.377285,-2.684348 2.31099,-5.166311 4.995502,-5.543596 z m 37.45588,0 c 2.684349,0.377285 5.372624,2.859248 4.995503,5.543596 l -2.504705,17.821868 c -0.377284,2.684512 -3.677297,4.554738 -6.361808,4.177453 -2.684348,-0.377284 -4.554575,-2.859247 -4.17729,-5.543596 L 51.184344,42.86662 c 0.377285,-2.684348 2.859247,-4.554737 5.543595,-4.177453 z"
     id="path4"
     inkscape:connector-curvature="0"
     style="fill:#ffffff;fill-opacity:1;stroke-linejoin:round" /></svg>