<?xml version="1.0" encoding="UTF-8" standalone="no"?>
<svg
   xmlns:dc="http://purl.org/dc/elements/1.1/"
   xmlns:cc="http://creativecommons.org/ns#"
   xmlns:rdf="http://www.w3.org/1999/02/22-rdf-syntax-ns#"
   xmlns:svg="http://www.w3.org/2000/svg"
   xmlns="http://www.w3.org/2000/svg"
   id="svg2"
   xml:space="preserve"
   enable-background="new 0 0 76.00 76.00"
   viewBox="0 0 40 40"
   height="40"
   width="40"
   version="1.1"><metadata
     id="metadata10"><rdf:RDF><cc:Work
         rdf:about=""><dc:format>image/svg+xml</dc:format><dc:type
           rdf:resource="http://purl.org/dc/dcmitype/StillImage" /><dc:title></dc:title></cc:Work></rdf:RDF></metadata><defs
     id="defs8" /><path
     style="fill:#000000;fill-opacity:1;stroke-linejoin:round"
     id="path4"
     d="M 5.6857131,2 27.457152,2 c 0.615414,0 1.114267,0.4989421 1.114267,1.1142863 l 0,5.4857177 c 0,0.615421 -0.498853,1.114276 -1.114267,1.114276 l -13.200017,0 c -1.088729,0 -1.971431,0.8827 -1.971431,1.971429 l 0,18.34287 c 0,0.615414 -0.498852,1.114287 -1.114277,1.114287 l -5.4857139,0 c -0.6154287,0 -1.1142866,-0.498873 -1.1142866,-1.114287 l 0,-26.9142927 C 4.5714265,2.4988577 5.0702844,2 5.6857131,2 Z m 10.2857069,10.285726 18.342867,0 c 0.615414,0 1.114286,0.498853 1.114286,1.114267 l 0,23.485716 C 35.428573,37.501147 34.929701,38 34.314287,38 L 15.97142,38 c -0.615414,0 -1.114267,-0.498853 -1.114267,-1.114291 l 0,-23.485716 c 0,-0.615414 0.498853,-1.114267 1.114267,-1.114267 z" /></svg>