<?xml version="1.0" encoding="UTF-8" standalone="no"?>
<svg
   xmlns:dc="http://purl.org/dc/elements/1.1/"
   xmlns:cc="http://creativecommons.org/ns#"
   xmlns:rdf="http://www.w3.org/1999/02/22-rdf-syntax-ns#"
   xmlns:svg="http://www.w3.org/2000/svg"
   xmlns="http://www.w3.org/2000/svg"
   xmlns:sodipodi="http://sodipodi.sourceforge.net/DTD/sodipodi-0.dtd"
   xmlns:inkscape="http://www.inkscape.org/namespaces/inkscape"
   version="1.1"
   id="symbols"
   inkscape:version="0.91 r13725"
   sodipodi:docname="symbols.svg"><metadata
   id="metadata34">
  <rdf:RDF>
    <cc:Work
       rdf:about="">
      <dc:format>image/svg+xml</dc:format>
      <dc:type
         rdf:resource="http://purl.org/dc/dcmitype/StillImage" />
    </cc:Work>
  </rdf:RDF>
</metadata>
<defs
   id="defs32" />
<sodipodi:namedview
   pagecolor="#ffffff"
   bordercolor="#666666"
   borderopacity="1"
   objecttolerance="10"
   gridtolerance="10"
   guidetolerance="10"
   inkscape:pageopacity="0"
   inkscape:pageshadow="2"
   inkscape:window-width="1536"
   inkscape:window-height="801"
   id="namedview30"
   showgrid="false"
   inkscape:zoom="2.36"
   inkscape:cx="50"
   inkscape:cy="50"
   inkscape:window-x="-8"
   inkscape:window-y="-8"
   inkscape:window-maximized="1"
   inkscape:current-layer="symbols" />
<path
   id="a"
   d="m -125.72934,53.048199 c -0.54361,0 -0.96875,0.42514 -0.96875,0.96875 l 0,6.03125 c 0,0.54361 0.42514,0.96875 0.96875,0.96875 l 11.59375,0 c 0.54362,0 1,-0.42514 1,-0.96875 l 0,-6.03125 c 0,-0.54361 -0.45638,-0.96875 -1,-0.96875 l -11.59375,0 z m 5.125,0.75 1.375,0 c 0.21098,0.44681 0.4202,0.90337 0.625,1.375 0.20478,0.46543 0.42021,0.97873 0.625,1.5 0.21099,0.52128 0.4078,1.06672 0.625,1.65625 0.2172,0.58954 0.44548,1.24247 0.6875,1.9375 l -1.5625,0 c -0.0683,-0.2234 -0.13187,-0.45168 -0.21875,-0.6875 -0.0807,-0.23581 -0.16933,-0.48294 -0.25,-0.71875 l -2.5,0 c -0.0807,0.23581 -0.16312,0.48294 -0.25,0.71875 -0.0807,0.23582 -0.15049,0.4641 -0.21875,0.6875 l -1.53125,0 c 0.24202,-0.69503 0.4703,-1.34796 0.6875,-1.9375 0.2172,-0.58953 0.45146,-1.13497 0.65625,-1.65625 0.21099,-0.52127 0.39517,-1.03457 0.59375,-1.5 0.20478,-0.47163 0.43905,-0.92819 0.65625,-1.375 z m 0.65625,1.46875 c -0.031,0.0931 -0.0942,0.21366 -0.15625,0.375 -0.062,0.16135 -0.13808,0.35151 -0.21875,0.5625 -0.0807,0.211 -0.15071,0.46432 -0.25,0.71875 -0.0931,0.25444 -0.18196,0.502 -0.28125,0.78125 l 1.8125,0 c -0.0993,-0.27925 -0.18817,-0.52681 -0.28125,-0.78125 -0.0931,-0.25443 -0.19437,-0.50775 -0.28125,-0.71875 -0.0807,-0.21099 -0.12545,-0.40115 -0.1875,-0.5625 -0.0621,-0.16134 -0.11902,-0.28191 -0.15625,-0.375 z"
   inkscape:connector-curvature="0" />
<path
   id="mi"
   d="m -80.433444,53.44493 c 1.9569,1.9569 -0.23633,3.39567 -1.80885,4.24184 l 0.005,0.22703 1.23549,0.72448 -0.0329,0.41199 -5.07545,1.54295 -0.20521,-0.24699 2.32685,-4.62432 0.47134,0.0311 0.41004,1.38169 0.21788,0.01 c 0.70953,-0.9487 1.5673,-2.43603 0.17537,-3.15068 -1.00647,-0.52917 -1.18605,-0.45116 -1.49746,-0.5346"
   inkscape:connector-curvature="0" />
<path
   id="m"
   d="m -142.82792,52.593882 c -0.7281,0.0111 -1.45845,-0.023 -2.18501,0.0187 -0.71441,0.12091 -0.78114,0.88901 -0.7389,1.47163 0.0123,1.92022 -0.0247,3.84292 0.0188,5.761579 0.12204,0.71399 0.89038,0.77952 1.4729,0.73763 3.70596,0 7.41191,0 11.11787,0 0.7891,0.0197 1.00013,-0.81166 0.92453,-1.443189 -0.0123,-1.93594 0.0247,-3.87434 -0.0187,-5.80873 -0.12124,-0.71406 -0.88942,-0.77953 -1.47163,-0.73762 -0.95853,0 -1.23471,0 -2.19324,0 1.9569,1.9569 -0.23633,3.39567 -1.80885,4.24184 l 0.005,0.22703 1.23549,0.72448 -0.0329,0.41199 -5.07545,1.542949 -0.20521,-0.246989 2.32685,-4.62432 0.47134,0.0311 0.41004,1.38169 0.21788,0.01 c 0.70953,-0.9487 1.5673,-2.43603 0.17537,-3.15068 -1.00647,-0.52917 -3.54156,-0.52011 -4.64648,-0.54888 z"
   inkscape:connector-curvature="0" />
<path
   id="m0"
   d="m -22.747617,28.468028 c -0.54361,0 -0.980469,0.43686 -0.980469,0.98047 l 0,6.00976 c 0,0.54361 0.436859,0.98242 0.980469,0.98242 l 11.597657,0 c 0.54362,0 0.980468,-0.43881 0.980468,-0.98242 l 0,-6.00976 c 0,-0.54361 -0.436848,-0.98047 -0.980468,-0.98047 l -11.597657,0 z m 5.933594,0.33398 c 1.15583,10e-6 2.057158,0.31165 2.705078,0.93555 0.65189,0.62392 0.978506,1.48797 0.978516,2.5918 -1e-5,1.10385 -0.326626,1.96788 -0.978516,2.59179 -0.64792,0.62391 -1.549248,0.93555 -2.705078,0.93555 -1.15984,0 -2.068699,-0.31164 -2.724609,-0.93555 -0.651901,-0.62391 -0.978516,-1.48794 -0.978516,-2.59179 0,-1.10383 0.326615,-1.96788 0.978516,-2.5918 0.65591,-0.6239 1.564769,-0.93554 2.724609,-0.93555 z m 0,1.53516 c -0.47594,0 -0.839837,0.17168 -1.091797,0.51562 -0.24796,0.33996 -0.373057,0.83267 -0.373047,1.47657 -10e-6,0.64392 0.125087,1.13652 0.373047,1.48046 0.25196,0.33996 0.615857,0.50977 1.091797,0.50977 0.46793,0 0.824296,-0.16981 1.072266,-0.50977 0.24796,-0.34394 0.373047,-0.83654 0.373047,-1.48046 0,-0.6439 -0.125087,-1.13661 -0.373047,-1.47657 -0.24797,-0.34394 -0.604336,-0.51562 -1.072266,-0.51562 z"
   inkscape:connector-curvature="0" />
<path
   id="m1"
   d="m -48.15572,33.132945 c -0.54361,0 -1,0.45639 -1,1 l 0,6 c 0,0.54361 0.45639,0.96875 1,0.96875 l 11.59375,0 c 0.54362,0 0.96875,-0.42514 0.96875,-0.96875 l 0,-6 c 0,-0.54361 -0.42513,-1 -0.96875,-1 l -11.59375,0 z m 5.9375,0.46875 1.0625,0 0,7.0625 -1.5,0 0,-5.09375 c -0.2036,0.13574 -0.43639,0.25963 -0.6875,0.375 -0.25112,0.1086 -0.51246,0.19981 -0.75,0.28125 l -0.4375,-1.15625 c 0.19682,-0.0814 0.38336,-0.17944 0.59375,-0.28125 0.21718,-0.10858 0.42139,-0.22158 0.625,-0.34375 0.2036,-0.12894 0.4105,-0.2705 0.59375,-0.40625 0.19003,-0.14251 0.35069,-0.28139 0.5,-0.4375 z"
   inkscape:connector-curvature="0" />
<path
   id="m2"
   d="m -65.885931,32.244467 c -0.57582,0 -1.0625,0.48472 -1.0625,1.06055 l 0,5.88867 c 0,0.57583 0.48668,1.06055 1.0625,1.06055 l 11.43555,0 c 0.57583,0 1.06055,-0.48472 1.06055,-1.06055 l 0,-5.88867 c 0,-0.57583 -0.48472,-1.06055 -1.06055,-1.06055 l -11.43555,0 z m 5.48242,0.43555 c 0.40467,1e-5 0.75303,0.0458 1.04493,0.13867 0.29187,0.0928 0.53105,0.22597 0.71679,0.39844 0.19238,0.16586 0.33173,0.37174 0.41797,0.61718 0.09286,0.23883 0.14062,0.50932 0.14063,0.81446 -1e-5,0.25209 -0.05088,0.49438 -0.15039,0.72656 -0.0995,0.23218 -0.22947,0.45881 -0.38868,0.67773 -0.1592,0.21228 -0.3381,0.41819 -0.5371,0.61719 -0.19902,0.19902 -0.39357,0.3873 -0.58594,0.56641 -0.09951,0.0928 -0.20872,0.19895 -0.32813,0.31836 -0.11278,0.11278 -0.22198,0.22825 -0.32812,0.34765 -0.10614,0.11941 -0.20283,0.23371 -0.28907,0.33985 -0.07955,0.0995 -0.13048,0.18171 -0.15039,0.24804 l 2.9668,0 0,1.24415 -4.59765,0 c -0.01329,-0.073 -0.01954,-0.16652 -0.01954,-0.2793 l 0,-0.23828 c 0,-0.31842 0.04894,-0.60965 0.14844,-0.875 0.10614,-0.26535 0.24236,-0.51078 0.4082,-0.73633 0.16585,-0.23218 0.351,-0.44944 0.55664,-0.64844 0.21229,-0.19902 0.4213,-0.39668 0.62696,-0.5957 0.15921,-0.15257 0.30795,-0.29507 0.44726,-0.42774 0.13931,-0.13931 0.263,-0.27238 0.36914,-0.39843 0.10615,-0.13267 0.18835,-0.26263 0.24805,-0.38868 0.05972,-0.13267 0.08984,-0.26575 0.08985,-0.39843 0,-0.29188 -0.08218,-0.49583 -0.24805,-0.61524 -0.16585,-0.11941 -0.37174,-0.17969 -0.61719,-0.17969 -0.17911,0 -0.34861,0.0301 -0.50781,0.0899 -0.15258,0.0531 -0.29506,0.11963 -0.42774,0.19922 -0.12604,0.073 -0.23525,0.14891 -0.32812,0.22851 -0.09286,0.073 -0.16255,0.13131 -0.20899,0.17774 l -0.73632,-1.03321 c 0.29188,-0.27198 0.63086,-0.49547 1.01562,-0.66796 0.39139,-0.17909 0.8075,-0.26757 1.25195,-0.26758 z"
   inkscape:connector-curvature="0" />
<path
   id="m3"
   d="m -90.885925,31.822698 c -0.57583,0 -1.0625,0.48472 -1.0625,1.06055 l 0,5.88672 c 0,0.57583 0.48667,1.06054 1.0625,1.06054 l 11.435547,0 c 0.57583,0 1.060547,-0.48471 1.060547,-1.06054 l 0,-5.88672 c 0,-0.57583 -0.484717,-1.06055 -1.060547,-1.06055 l -11.435547,0 z m 5.3125,0.27148 c 0.41399,1e-5 0.769739,0.0505 1.068359,0.15235 0.30541,0.095 0.557087,0.23473 0.753907,0.41797 0.19681,0.17647 0.34248,0.38654 0.4375,0.63086 0.095,0.23754 0.142578,0.49816 0.142578,0.7832 0,0.27827 -0.07823,0.54977 -0.234375,0.81445 -0.1561,0.2579 -0.36618,0.45607 -0.63086,0.5918 0.36649,0.14932 0.64693,0.37325 0.84375,0.67187 0.2036,0.29183 0.306631,0.64461 0.306641,1.0586 -1e-5,0.32577 -0.05547,0.62799 -0.164062,0.90625 -0.10859,0.27148 -0.277063,0.50733 -0.507813,0.71094 -0.23075,0.19682 -0.527019,0.35337 -0.886719,0.46875 -0.35291,0.10859 -0.773079,0.16406 -1.261718,0.16406 -0.183251,0 -0.376469,-0.0139 -0.580079,-0.041 -0.2036,-0.0204 -0.399813,-0.0511 -0.589843,-0.0918 -0.19003,-0.0407 -0.363442,-0.0853 -0.519532,-0.13282 -0.1561,-0.0475 -0.278957,-0.0921 -0.367187,-0.13281 l 0.294922,-1.26172 c 0.17645,0.0747 0.400405,0.15591 0.671875,0.24414 0.27826,0.0814 0.622087,0.12305 1.029297,0.12305 0.46829,0 0.810163,-0.0891 1.027343,-0.26563 0.21717,-0.17646 0.326172,-0.41427 0.326172,-0.71289 0,-0.18324 -0.04159,-0.33486 -0.123047,-0.45703 -0.0747,-0.12895 -0.178723,-0.23198 -0.314453,-0.30664 -0.13574,-0.0814 -0.298251,-0.13496 -0.488281,-0.16211 -0.18324,-0.0339 -0.381407,-0.0508 -0.591797,-0.0508 l -0.589844,0 0,-1.22266 0.671875,0 c 0.14931,1e-5 0.291995,-0.012 0.427735,-0.0391 0.14252,-0.0271 0.268363,-0.0718 0.376953,-0.13281 0.10859,-0.0679 0.192816,-0.15703 0.253906,-0.26563 0.0679,-0.11537 0.101563,-0.25805 0.101563,-0.42773 0,-0.12894 -0.02588,-0.24092 -0.08008,-0.33594 -0.0543,-0.095 -0.126614,-0.17133 -0.214844,-0.23242 -0.0814,-0.0611 -0.179552,-0.10566 -0.294922,-0.13281 -0.1086,-0.0339 -0.220568,-0.0508 -0.335938,-0.0508 -0.29184,0 -0.563343,0.0426 -0.814453,0.13086 -0.24433,0.0882 -0.468275,0.19722 -0.671875,0.32617 l -0.539062,-1.10938 c 0.10859,-0.0679 0.234433,-0.13823 0.376953,-0.21289 0.14931,-0.0747 0.311821,-0.14399 0.488281,-0.20508 0.17646,-0.0611 0.361784,-0.11161 0.558594,-0.15234 0.20361,-0.0407 0.418608,-0.0605 0.642578,-0.0605 z"
   inkscape:connector-curvature="0" />
<path
   id="m4"
   d="m -120.12321,33.093885 c -0.57583,0 -1.0625,0.48472 -1.0625,1.06055 l 0,5.88672 c 0,0.57583 0.48667,1.06054 1.0625,1.06054 l 11.43554,0 c 0.57583,0 1.06055,-0.48471 1.06055,-1.06054 l 0,-5.88672 c 0,-0.57583 -0.48472,-1.06055 -1.06055,-1.06055 l -11.43554,0 z m 6.15625,0.43359 1.43554,0 0,4.23633 0.75391,0 0,1.24219 -0.75391,0 0,1.57617 -1.48632,0 0,-1.57617 -3.04297,0 0,-1.11133 c 0.14931,-0.29862 0.33658,-0.63454 0.56054,-1.00781 0.22397,-0.38006 0.47071,-0.76652 0.74219,-1.16016 0.27826,-0.40042 0.56959,-0.78986 0.875,-1.16992 0.3054,-0.38006 0.61061,-0.72388 0.91602,-1.0293 z m -0.0508,1.85352 c -0.26469,0.34614 -0.54513,0.72365 -0.84375,1.13086 -0.29862,0.40721 -0.55031,0.82438 -0.75391,1.25195 l 1.59766,0 0,-2.38281 z"
   inkscape:connector-curvature="0" />
<path
   id="m5"
   d="m -147.66559,32.246427 c -0.57583,0 -1.0625,0.48472 -1.0625,1.06055 l 0,5.88672 c 0,0.57583 0.48667,1.06054 1.0625,1.06054 l 11.43555,0 c 0.57583,0 1.06055,-0.48471 1.06055,-1.06054 l 0,-5.88672 c 0,-0.57583 -0.48472,-1.06055 -1.06055,-1.06055 l -11.43555,0 z m 3.96875,0.43359 3.81641,0 0,1.27344 -2.54492,0 c -0.0136,0.24433 -0.0305,0.48214 -0.0508,0.71289 -0.0136,0.22397 -0.0305,0.42018 -0.0508,0.58985 0.99087,0.0679 1.72116,0.30271 2.18945,0.70312 0.47508,0.39364 0.71288,0.94262 0.71289,1.64844 -1e-5,0.32577 -0.0585,0.62799 -0.17383,0.90625 -0.11539,0.27826 -0.28878,0.51904 -0.51953,0.72265 -0.23075,0.2036 -0.52208,0.36314 -0.875,0.47852 -0.34613,0.11537 -0.75437,0.17383 -1.22266,0.17383 -0.18325,0 -0.37646,-0.0139 -0.58007,-0.041 -0.19681,-0.0204 -0.39005,-0.0511 -0.58008,-0.0918 -0.18324,-0.0339 -0.34874,-0.0707 -0.49805,-0.11133 -0.14931,-0.0407 -0.26426,-0.0823 -0.3457,-0.12305 l 0.27344,-1.25195 c 0.16967,0.0746 0.39361,0.14996 0.67187,0.22461 0.27826,0.0679 0.6112,0.10156 0.99805,0.10156 0.46828,0 0.80718,-0.0921 1.01758,-0.27539 0.21039,-0.19003 0.31639,-0.41099 0.3164,-0.66211 -1e-5,-0.19681 -0.0446,-0.37022 -0.13281,-0.51953 -0.0882,-0.15609 -0.23985,-0.28491 -0.45703,-0.38672 -0.21718,-0.1018 -0.51046,-0.18008 -0.87695,-0.23438 -0.36649,-0.0543 -0.8263,-0.0801 -1.38282,-0.0801 0.0747,-0.63117 0.13413,-1.27229 0.18164,-1.92383 0.0475,-0.65153 0.0861,-1.26389 0.11328,-1.83399 z"
   inkscape:connector-curvature="0" />
<path
   id="m6"
   d="m -34.953721,8.5176137 c -0.57583,0 -1.0625,0.48472 -1.0625,1.06055 l 0,5.8867203 c 0,0.57583 0.48667,1.06054 1.0625,1.06054 l 11.435547,0 c 0.57583,0 1.060547,-0.48471 1.060547,-1.06054 l 0,-5.8867203 c 0,-0.57583 -0.484717,-1.06055 -1.060547,-1.06055 l -11.435547,0 z m 7.734375,0.38281 c 0.0136,0.2104 0.02742,0.41751 0.04102,0.6211 0.0136,0.19683 0.02751,0.40392 0.04101,0.6210903 -0.34613,0.007 -0.671152,0.0405 -0.976562,0.10156 -0.29862,0.0543 -0.575062,0.14347 -0.826172,0.26563 -0.24432,0.12216 -0.457385,0.28169 -0.640625,0.47851 -0.18325,0.19003 -0.325934,0.42292 -0.427735,0.70117 0.149311,-0.0679 0.302885,-0.11542 0.458985,-0.14257 0.1561,-0.0271 0.30176,-0.0391 0.4375,-0.0391 0.44114,0 0.81373,0.0595 1.119141,0.18164 0.312179,0.11538 0.566851,0.27492 0.763671,0.47852 0.19682,0.20361 0.339505,0.44142 0.427735,0.71289 0.0882,0.27147 0.132812,0.55983 0.132812,0.86524 0,0.27147 -0.05054,0.55088 -0.152344,0.83593 -0.095,0.28504 -0.245618,0.54269 -0.449218,0.77344 -0.19682,0.23076 -0.451482,0.421 -0.763672,0.57031 -0.30541,0.14931 -0.667111,0.22266 -1.087891,0.22266 -0.84835,0 -1.494407,-0.26658 -1.935547,-0.80274 -0.44115,-0.53615 -0.662109,-1.27733 -0.662109,-2.2207 0,-0.67867 0.106016,-1.27819 0.316406,-1.80078 0.21039,-0.52257 0.509635,-0.96153 0.896485,-1.31445 0.39363,-0.3597003 0.864332,-0.6312103 1.414062,-0.8144603 0.55652,-0.19003 1.180787,-0.28812 1.873047,-0.29492 z m -2.085937,3.7871103 c -0.149321,0 -0.308856,0.0139 -0.478516,0.041 -0.16968,0.0272 -0.301475,0.0639 -0.396484,0.11133 0,0.0272 -0.0045,0.0688 -0.01172,0.12304 l 0,0.14258 c 0,0.24433 0.01688,0.47423 0.05078,0.69141 0.0339,0.21718 0.09237,0.40743 0.173828,0.57031 0.0814,0.16289 0.190432,0.29171 0.326172,0.38672 0.13573,0.0882 0.304203,0.13281 0.507812,0.13281 0.16967,0 0.312355,-0.0337 0.427735,-0.10156 0.12216,-0.0746 0.220262,-0.1668 0.294922,-0.27539 0.0814,-0.10859 0.139888,-0.22652 0.173828,-0.35547 0.0407,-0.13574 0.06055,-0.26456 0.06055,-0.38672 0,-0.34613 -0.08719,-0.61167 -0.263672,-0.79492 -0.16968,-0.19003 -0.458035,-0.28516 -0.865234,-0.28516 z"
   inkscape:connector-curvature="0" />
<path
   id="m7"
   d="m -57.411354,6.3989697 c -0.57583,0 -1.0625,0.48472 -1.0625,1.06055 l 0,5.8867103 c 0,0.57583 0.48667,1.06055 1.0625,1.06055 l 11.43555,0 c 0.57583,0 1.06055,-0.48472 1.06055,-1.06055 l 0,-5.8867103 c 0,-0.57583 -0.48472,-1.06055 -1.06055,-1.06055 l -11.43555,0 z m 3.29688,0.42383 4.9375,0 0,1.09961 c -0.21718,0.23754 -0.45798,0.5675 -0.72266,0.98828 -0.25791,0.42079 -0.5066,0.89939 -0.74414,1.4355403 -0.23075,0.52937 -0.43488,1.09818 -0.61133,1.70899 -0.16968,0.61081 -0.27373,1.22122 -0.31445,1.83203 l -1.53711,0 c 0.0407,-0.49544 0.12496,-1.01072 0.25391,-1.54688 0.12895,-0.53615 0.28551,-1.06232 0.46875,-1.57812 0.19003,-0.5158 0.40009,-1.0003603 0.63085,-1.4550803 0.23075,-0.4615 0.46559,-0.85884 0.70313,-1.1914 l -3.06445,0 0,-1.29297 z"
   inkscape:connector-curvature="0" />
<path
   id="m8"
   d="m -80.294657,5.1258232 c -0.57583,0 -1.060547,0.48473 -1.060547,1.06055 l 0,5.8867198 c 0,0.57583 0.484717,1.0625 1.060547,1.0625 l 11.4375,0 c 0.57582,0 1.060547,-0.48667 1.060547,-1.0625 l 0,-5.8867198 c 0,-0.57582 -0.484727,-1.06055 -1.060547,-1.06055 l -11.4375,0 z m 5.75,0.27149 c 0.41399,10e-6 0.766763,0.0615 1.058593,0.18359 0.29862,0.11539 0.544335,0.26404 0.734376,0.44727 0.19002,0.18325 0.324799,0.39034 0.40625,0.62109 0.0882,0.22397 0.132812,0.44791 0.132812,0.67187 0,0.32577 -0.08913,0.63098 -0.265625,0.91602 -0.16967,0.27827 -0.382735,0.49923 -0.640625,0.66211 0.38684,0.25111 0.661329,0.51667 0.824219,0.79492 0.16966,0.27148 0.255859,0.5905398 0.255859,0.9570298 0,0.3054 -0.05548,0.58586 -0.164062,0.84375 -0.10181,0.25112 -0.25836,0.47208 -0.46875,0.66211 -0.2104,0.19003 -0.473989,0.33868 -0.792969,0.44727 -0.31219,0.1018 -0.675854,0.15429 -1.089844,0.15429 -0.47508,0 -0.872426,-0.0644 -1.191406,-0.19335 -0.31219,-0.13574 -0.566862,-0.30319 -0.763672,-0.5 -0.19004,-0.19682 -0.32481,-0.40988 -0.40625,-0.64063 -0.0814,-0.23753 -0.123047,-0.45552 -0.123047,-0.65234 0,-0.2036 0.02773,-0.38893 0.08203,-0.5586 0.0543,-0.16967 0.12959,-0.3232498 0.22461,-0.4589798 0.095,-0.14252 0.199073,-0.27134 0.314453,-0.38672 0.12216,-0.11538 0.250979,-0.22436 0.386719,-0.32617 -0.29184,-0.23754 -0.507871,-0.47237 -0.650391,-0.70313 -0.13574,-0.23074 -0.203125,-0.52505 -0.203125,-0.88476 0,-0.27146 0.05353,-0.5321 0.162109,-0.78321 0.11538,-0.25111 0.274916,-0.46909 0.478516,-0.65234 0.2036,-0.19002 0.447372,-0.33867 0.732422,-0.44727 0.29183,-0.11537 0.613877,-0.17381 0.966797,-0.17382 z m 0,1.22265 c -0.14931,0 -0.278129,0.0228 -0.386719,0.0703 -0.10859,0.0475 -0.198777,0.11192 -0.273438,0.19335 -0.0679,0.0747 -0.120366,0.15592 -0.154296,0.24415 -0.0339,0.0882 -0.05078,0.17442 -0.05078,0.25585 0,0.21719 0.07823,0.41935 0.234375,0.60938 0.16289,0.19003 0.437369,0.35254 0.824219,0.48828 0.21718,-0.13574 0.38462,-0.29034 0.5,-0.4668 0.11538,-0.17646 0.171865,-0.39443 0.171875,-0.65234 -1e-5,-0.0746 -0.01688,-0.15293 -0.05078,-0.23437 -0.0272,-0.0882 -0.07773,-0.16949 -0.152344,-0.24415 -0.0679,-0.0746 -0.155092,-0.13608 -0.263672,-0.18359 -0.10859,-0.0543 -0.242347,-0.0801 -0.398437,-0.0801 z m -0.345703,2.91016 c -0.19003,0.14253 -0.349566,0.30997 -0.478516,0.4999998 -0.12895,0.19003 -0.193369,0.41695 -0.193359,0.68164 -1e-5,0.0814 0.01688,0.17359 0.05078,0.27539 0.0407,0.095 0.102154,0.18223 0.183594,0.26367 0.0814,0.0814 0.187456,0.14884 0.316406,0.20313 0.12895,0.0543 0.283547,0.082 0.466797,0.082 0.35291,1e-5 0.610547,-0.0842 0.773437,-0.25391 0.16288,-0.16967 0.246094,-0.35992 0.246094,-0.57031 0,-0.1561 -0.0386,-0.29581 -0.113281,-0.41797 -0.0679,-0.12216 -0.162996,-0.22622 -0.285157,-0.3144498 -0.12216,-0.095 -0.26783,-0.17626 -0.4375,-0.24414 -0.16288,-0.0746 -0.339266,-0.144 -0.529296,-0.20508 z"
   inkscape:connector-curvature="0" />
<path
   id="m9"
   d="m -103.67982,4.7392044 c -0.54361,0 -0.98047,0.43882 -0.98047,0.98243 l 0,6.0097596 c 0,0.54361 0.43686,0.98047 0.98047,0.98047 l 11.597655,0 c 0.54362,0 0.98047,-0.43686 0.98047,-0.98047 l 0,-6.0097596 c 0,-0.54361 -0.43685,-0.98243 -0.98047,-0.98243 l -11.597655,0 z m 5.716795,0.45508 c 0.88777,0 1.5741,0.29951 2.06055,0.89844 0.48644,0.59895 0.73046,1.44456 0.73046,2.53906 0,1.12491 -0.28498,2.0097596 -0.85351,2.6542996 -0.56854,0.64151 -1.34872,0.96289 -2.33985,0.96289 -0.31924,0 -0.62415,-0.0255 -0.91601,-0.0742 -0.29187,-0.0456 -0.57771,-0.11473 -0.857415,-0.20898 l 0,-1.25782 c 0.279705,0.13073 0.547345,0.22804 0.802725,0.29493 0.25538,0.0638 0.5085,0.0957 0.75781,0.0957 0.52292,0 0.93079,-0.14281 1.22266,-0.43164 0.29187,-0.29186 0.46198,-0.7252996 0.51367,-1.2968796 -0.20674,0.15202 -0.42605,0.26775 -0.66015,0.34375 -0.23411,0.076 -0.4881,0.11329 -0.76172,0.11328 -0.69623,1e-5 -1.25882,-0.20305 -1.6875,-0.60742 -0.425635,-0.40739 -0.638665,-0.94268 -0.638665,-1.60547 0,-0.73271 0.23664,-1.31891 0.710925,-1.75976 0.47732,-0.44084 1.11643,-0.66016 1.91602,-0.66016 z m -0.0098,1.10352 c -0.30707,10e-6 -0.53831,0.10013 -0.69336,0.30078 -0.15506,0.20067 -0.23242,0.49735 -0.23242,0.89258 0,0.39828 0.07733,0.69778 0.23242,0.89843 0.15505,0.19763 0.38629,0.29689 0.69336,0.29688 0.30707,10e-6 0.5383,-0.0992 0.69336,-0.29688 0.15505,-0.20065 0.23242,-0.50015 0.23242,-0.89843 0,-0.39523 -0.07734,-0.69191 -0.23242,-0.89258 -0.15506,-0.20065 -0.38629,-0.30077 -0.69336,-0.30078 z"
   inkscape:connector-curvature="0" />
 /&gt;
  <path
   id="mx"
   d="m -129.10355,4.7392144 c -0.54361,0 -0.98047,0.43686 -0.98047,0.98047 l 0,6.0097596 c 0,0.54361 0.43686,0.98242 0.98047,0.98242 l 11.59766,0 c 0.54362,0 0.98047,-0.43881 0.98047,-0.98242 l 0,-6.0097596 c 0,-0.54361 -0.43685,-0.98047 -0.98047,-0.98047 l -11.59766,0 z m 2.44336,0.39258 2.06445,0 1.44336,2.1621 1.48633,-2.1621 1.98047,0 -2.42187,3.37304 2.45898,3.5644596 -2.06836,0 -1.49609,-2.2832096 -1.52344,2.2832096 -1.97461,0 2.45898,-3.4941396 -2.4082,-3.44336 z"
   inkscape:connector-curvature="0" />
<path
   id="mt"
   d="m -151.56118,5.586672 c -0.54361,0 -0.98046,0.43686 -0.98046,0.98047 l 0,6.00976 c 0,0.54361 0.43685,0.98242 0.98046,0.98242 l 11.59766,0 c 0.54362,0 0.98047,-0.43881 0.98047,-0.98242 l 0,-6.00976 c 0,-0.54361 -0.43685,-0.98047 -0.98047,-0.98047 l -11.59766,0 z m 2.40821,0.64258 6.53125,0 0,1.34179 -2.31055,0 0,5.59571 -1.91016,0 0,-5.59571 -2.31054,0 0,-1.34179 z"
   inkscape:connector-curvature="0" />
<path
   id="g0"
   d="m -94.160487,-28.762712 c -2.15526,0 -3.90625,1.79086 -3.90625,4 0,2.20914 1.75099,4 3.90625,4 2.15525,0 3.90625,-1.79086 3.90625,-4 0,-2.20914 -1.751,-4 -3.90625,-4 z m 0,0.53125 c 1.15583,10e-6 2.070836,0.3136 2.71875,0.9375 0.6519,0.62392 0.968742,1.48992 0.96875,2.59375 -8e-6,1.10385 -0.31685,1.93859 -0.96875,2.5625 -0.647914,0.62391 -1.56292,0.9375 -2.71875,0.9375 -1.15984,0 -2.06284,-0.31359 -2.71875,-0.9375 -0.65191,-0.62391 -0.96875,-1.45865 -0.96875,-2.5625 0,-1.10383 0.31684,-1.96983 0.96875,-2.59375 0.65591,-0.6239 1.55891,-0.93749 2.71875,-0.9375 z m 0,1.53125 c -0.47594,0 -0.84179,0.15606 -1.09375,0.5 -0.24797,0.33996 -0.375,0.8561 -0.375,1.5 0,0.64392 0.12703,1.12481 0.375,1.46875 0.25196,0.33996 0.61781,0.5 1.09375,0.5 0.46793,0 0.84578,-0.16004 1.09375,-0.5 0.24796,-0.34394 0.374994,-0.82483 0.375,-1.46875 -6e-6,-0.6439 -0.12704,-1.16004 -0.375,-1.5 -0.24797,-0.34394 -0.62582,-0.5 -1.09375,-0.5 z"
   inkscape:connector-curvature="0" />
<path
   id="g1"
   d="m -112.80456,-30.033898 c -2.15526,0 -3.90625,1.79086 -3.90625,4 0,2.20914 1.75099,4 3.90625,4 2.15525,0 3.90625,-1.79086 3.90625,-4 0,-2.20914 -1.751,-4 -3.90625,-4 z m -0.15625,0.4375 1.0625,0 0,7.0625 -1.53125,0 0,-5.0625 c -0.2036,0.13574 -0.43639,0.25963 -0.6875,0.375 -0.25112,0.1086 -0.48121,0.19981 -0.71875,0.28125 l -0.46875,-1.1875 c 0.19682,-0.0814 0.41461,-0.17944 0.625,-0.28125 0.21718,-0.10858 0.42139,-0.22158 0.625,-0.34375 0.2036,-0.12894 0.37925,-0.23925 0.5625,-0.375 0.19003,-0.14251 0.38194,-0.31264 0.53125,-0.46875 z"
   inkscape:connector-curvature="0" />
<path
   id="g2"
   d="m -128.48252,-31.728814 c -2.15526,0 -3.90625,1.79086 -3.90625,4 0,1.32369 0.62725,2.49068 1.59375,3.21875 -0.001,-0.0328 0,-0.0566 0,-0.0937 l 0,-0.25 c 0,-0.31842 0.0567,-0.60965 0.15625,-0.875 0.10614,-0.26535 0.24041,-0.49321 0.40625,-0.71875 0.16584,-0.23218 0.35686,-0.45724 0.5625,-0.65625 0.21228,-0.19902 0.41935,-0.39473 0.625,-0.59375 0.15921,-0.15257 0.29818,-0.30482 0.4375,-0.4375 0.13931,-0.13931 0.26886,-0.24895 0.375,-0.375 0.10614,-0.13267 0.1903,-0.2802 0.25,-0.40625 0.0597,-0.13267 0.0937,-0.27357 0.0937,-0.40625 0,-0.29189 -0.0841,-0.47434 -0.25,-0.59375 -0.16585,-0.11941 -0.37955,-0.1875 -0.625,-0.1875 -0.17911,0 -0.34079,0.034 -0.5,0.0937 -0.15258,0.0531 -0.30482,0.10791 -0.4375,0.1875 -0.12604,0.073 -0.25087,0.1704 -0.34375,0.25 -0.0929,0.073 -0.14106,0.10982 -0.1875,0.15625 l -0.75,-1.03125 c 0.29188,-0.27197 0.64649,-0.48376 1.03125,-0.65625 0.39139,-0.1791 0.80555,-0.28124 1.25,-0.28125 0.40466,10e-6 0.73936,0.0634 1.03125,0.15625 0.29187,0.0929 0.533,0.20253 0.71875,0.375 0.19238,0.16585 0.32001,0.37956 0.40625,0.625 0.0929,0.23883 0.15624,0.50736 0.15625,0.8125 -1e-5,0.25209 -0.0567,0.51783 -0.15625,0.75 -0.0995,0.23218 -0.2158,0.43733 -0.375,0.65625 -0.15921,0.21228 -0.33224,0.42599 -0.53125,0.625 -0.19902,0.19902 -0.40138,0.38339 -0.59375,0.5625 -0.0995,0.0929 -0.22435,0.19309 -0.34375,0.3125 -0.11278,0.11278 -0.20636,0.22434 -0.3125,0.34375 -0.10614,0.1194 -0.19502,0.23762 -0.28125,0.34375 -0.0796,0.0995 -0.13635,0.18366 -0.15625,0.25 l 2.96875,0 0,1.0625 c 0.96422,-0.72829 1.59375,-1.89689 1.59375,-3.21875 0,-2.20914 -1.751,-4 -3.90625,-4 z m 2.3125,7.21875 c -0.0898,0.0678 -0.18586,0.12763 -0.28125,0.1875 l 0.28125,0 0,-0.1875 z m -0.28125,0.1875 -4.0625,0 c 0.59129,0.3697 1.28796,0.59375 2.03125,0.59375 0.74559,0 1.43877,-0.22194 2.03125,-0.59375 z m -4.0625,0 c -0.0959,-0.06 -0.19102,-0.11953 -0.28125,-0.1875 0.003,0.0668 0.0223,0.13853 0.0312,0.1875 l 0.25,0 z"
   inkscape:connector-curvature="0" />
<path
   id="g3"
   d="m -144.58422,-30.881356 c -2.15526,0 -3.90625,1.79086 -3.90625,4 0,2.20914 1.75099,4 3.90625,4 2.15525,0 3.90625,-1.79086 3.90625,-4 0,-2.20914 -1.751,-4 -3.90625,-4 z m -0.0625,0.4375 c 0.39627,10e-6 0.74541,0.0588 1.03125,0.15625 0.29234,0.0909 0.53036,0.23085 0.71875,0.40625 0.18839,0.16892 0.3153,0.35989 0.40625,0.59375 0.0909,0.22737 0.15625,0.47716 0.15625,0.75 0,0.26636 -0.10054,0.5279 -0.25,0.78125 -0.14941,0.24686 -0.3404,0.43258 -0.59375,0.5625 0.35081,0.14293 0.62411,0.37041 0.8125,0.65625 0.19489,0.27934 0.28124,0.60373 0.28125,1 -1e-5,0.31183 -0.0523,0.60865 -0.15625,0.875 -0.10394,0.25986 -0.24787,0.4926 -0.46875,0.6875 -0.22087,0.18839 -0.49945,0.32706 -0.84375,0.4375 -0.3378,0.10394 -0.75103,0.15625 -1.21875,0.15625 -0.17541,0 -0.36761,-0.005 -0.5625,-0.0312 -0.19489,-0.0195 -0.3806,-0.0548 -0.5625,-0.0937 -0.1819,-0.039 -0.35059,-0.0795 -0.5,-0.125 -0.14942,-0.0455 -0.2593,-0.086 -0.34375,-0.125 l 0.28125,-1.21875 c 0.1689,0.0715 0.3964,0.16555 0.65625,0.25 0.26635,0.0779 0.57897,0.0937 0.96875,0.0937 0.44825,0 0.79212,-0.0811 1,-0.25 0.20787,-0.16891 0.3125,-0.40166 0.3125,-0.6875 0,-0.1754 -0.047,-0.32056 -0.125,-0.4375 -0.0715,-0.12343 -0.18258,-0.20979 -0.3125,-0.28125 -0.12993,-0.0779 -0.28685,-0.13026 -0.46875,-0.15625 -0.1754,-0.0325 -0.36112,-0.0625 -0.5625,-0.0625 l -0.5625,0 0,-1.15625 0.65625,0 c 0.14292,10e-6 0.27632,-0.005 0.40625,-0.0312 0.13642,-0.0259 0.23981,-0.0666 0.34375,-0.125 0.10394,-0.065 0.19152,-0.14605 0.25,-0.25 0.065,-0.11043 0.0937,-0.27508 0.0937,-0.4375 0,-0.12342 -0.0106,-0.22155 -0.0625,-0.3125 -0.052,-0.0909 -0.1343,-0.16028 -0.21875,-0.21875 -0.0779,-0.0585 -0.17082,-0.099 -0.28125,-0.125 -0.10395,-0.0325 -0.20207,-0.0625 -0.3125,-0.0625 -0.27935,0 -0.54089,0.0405 -0.78125,0.125 -0.23387,0.0844 -0.46136,0.18907 -0.65625,0.3125 l -0.5,-1.0625 c 0.10394,-0.065 0.20733,-0.11604 0.34375,-0.1875 0.14292,-0.0715 0.29984,-0.12903 0.46875,-0.1875 0.16891,-0.0585 0.34286,-0.11726 0.53125,-0.15625 0.19489,-0.039 0.41062,-0.0625 0.625,-0.0625 z"
   inkscape:connector-curvature="0" />
<path
   id="g4"
   d="m 2.873411,-49.101695 c -2.15525998,0 -3.90625,1.79086 -3.90625,4 0,2.20914 1.75099002,4 3.90625,4 2.15525,0 3.90625,-1.79086 3.90625,-4 0,-2.20914 -1.751,-4 -3.90625,-4 z m -0.0625,0.5 1.4375,0 0,4.21875 0.75,0 0,1.25 -0.75,0 0,1.59375 -1.5,0 0,-1.59375 -3.03124998,0 0,-1.09375 c 0.14931,-0.29862 0.33854,-0.65798 0.5625,-1.03125 0.22397,-0.38007 0.47852,-0.7626 0.74999998,-1.15625 0.27826,-0.40043 0.56959,-0.77619 0.875,-1.15625 0.3054,-0.38007 0.60084,-0.72583 0.90625,-1.03125 z m -0.0625,1.84375 c -0.26469,0.34614 -0.54513,0.71778 -0.84375,1.125 -0.29862,0.40722 -0.5464,0.82242 -0.75,1.25 l 1.59375,0 0,-2.375 z"
   inkscape:connector-curvature="0" />
<path
   id="g5"
   d="m -13.228284,-50.79671 c -2.15526,0 -3.90625,1.79086 -3.90625,4 0,1.32358 0.62739,2.49067 1.59375,3.21875 l 0.25,-1.15625 c 0.16608,0.073 0.41513,0.14568 0.6875,0.21875 0.27237,0.0665 0.59009,0.0937 0.96875,0.0937 0.45837,0 0.79405,-0.10187 1,-0.28125 0.20594,-0.18601 0.31249,-0.3792 0.3125,-0.625 -10e-6,-0.19264 -0.06987,-0.3851 -0.15625,-0.53125 -0.08633,-0.15279 -0.22492,-0.27535 -0.4375,-0.375 -0.21258,-0.0996 -0.48502,-0.1656 -0.84375,-0.21875 -0.35873,-0.0532 -0.83026,-0.0937 -1.375,-0.0937 0.07312,-0.61781 0.141,-1.23725 0.1875,-1.875 0.04649,-0.63774 0.06715,-1.22322 0.09375,-1.78125 l 3.65625,0 c -0.591289,-0.3697 -1.28797,-0.59375 -2.03125,-0.59375 z m 2.03125,0.59375 c 0.03187,0.0199 0.06249,0.0417 0.09375,0.0625 l 0,-0.0625 -0.09375,0 z m 0.09375,0.0625 0,1.1875 -2.5,0 c -0.01331,0.23916 -0.01138,0.46163 -0.03125,0.6875 -0.01331,0.21923 -0.04263,0.39642 -0.0625,0.5625 0.96989,0.0665 1.69787,0.29557 2.15625,0.6875 0.465022,0.38531 0.68749,0.93412 0.6875,1.625 -10e-6,0.31887 -0.04333,0.60263 -0.15625,0.875 -0.112947,0.27237 -0.305385,0.51945 -0.53125,0.71875 -0.225865,0.19929 -0.4983,0.35581 -0.84375,0.46875 -0.3388,0.11293 -0.72912,0.1875 -1.1875,0.1875 -0.17937,0 -0.39445,-0.036 -0.59375,-0.0625 -0.19264,-0.02 -0.37649,-0.0539 -0.5625,-0.0937 -0.17936,-0.0332 -0.3226,-0.0539 -0.46875,-0.0937 -0.06721,-0.0183 -0.10309,-0.0442 -0.15625,-0.0625 0.61124,0.40726 1.34165,0.65625 2.125,0.65625 2.15525,0 3.9062501,-1.79086 3.9062501,-4 0,-1.4062 -0.7107751,-2.63051 -1.7812501,-3.34375 z m -4.4375,6.5625 0,0.0625 c 0.02793,0.014 0.08891,0.0173 0.125,0.0312 -0.04295,-0.0298 -0.08329,-0.0623 -0.125,-0.0937 z"
   inkscape:connector-curvature="0" />
<path
   id="g6"
   d="m -29.329979,-51.644068 c -2.15526,0 -3.90625,1.79086 -3.90625,4 0,2.20914 1.75099,4 3.90625,4 2.15525,0 3.90625,-1.79086 3.90625,-4 0,-1.51383 -0.82128,-2.82067 -2.03125,-3.5 0.0119,0.18377 0.01933,0.38411 0.03125,0.5625 0.01324,0.19158 0.01811,0.38237 0.03125,0.59375 -0.336898,0.007 -0.64024,0.0343 -0.9375,0.0937 -0.29066,0.0529 -0.56809,0.16235 -0.8125,0.28125 -0.2378,0.1189 -0.44665,0.24593 -0.625,0.4375 -0.17836,0.18496 -0.30717,0.41667 -0.40625,0.6875 0.14533,-0.0661 0.28556,-0.0986 0.4375,-0.125 0.15194,-0.0264 0.30538,-0.0312 0.4375,-0.0312 0.42937,0 0.79649,0.0374 1.09375,0.15625 0.303854,0.1123 0.527179,0.27058 0.71875,0.46875 0.191571,0.19818 0.351623,0.42327 0.4375,0.6875 0.08585,0.26423 0.125,0.54649 0.125,0.84375 0,0.26423 -0.05716,0.53505 -0.15625,0.8125 -0.09247,0.27744 -0.23933,0.5254 -0.4375,0.75 -0.191571,0.22461 -0.44614,0.41717 -0.75,0.5625 -0.29726,0.14533 -0.65294,0.21875 -1.0625,0.21875 -0.82572,0 -1.44563,-0.25939 -1.875,-0.78125 -0.42938,-0.52185 -0.625,-1.23804 -0.625,-2.15625 0,-0.66057 0.07647,-1.24135 0.28125,-1.75 0.20478,-0.50863 0.49847,-0.93774 0.875,-1.28125 0.38313,-0.35011 0.83993,-0.60289 1.375,-0.78125 0.51571,-0.1761 1.11453,-0.29806 1.75,-0.3125 -0.53192,-0.27849 -1.14296,-0.4375 -1.78125,-0.4375 z m 1.78125,0.4375 c 0.03339,0.0175 0.06093,0.0441 0.09375,0.0625 -0.0013,-0.0204 0.0013,-0.0421 0,-0.0625 -0.0323,3.2e-4 -0.06175,-7.3e-4 -0.09375,0 z m -1.9375,3.6875 c -0.14534,0 -0.30362,0.0361 -0.46875,0.0625 -0.16515,0.0265 -0.31377,0.0475 -0.40625,0.0937 0,0.0265 0.007,0.0722 0,0.125 l 0,0.125 c 0,0.23781 0.0295,0.47611 0.0625,0.6875 0.033,0.21139 0.07696,0.40396 0.15625,0.5625 0.07923,0.15855 0.18038,0.28252 0.3125,0.375 0.13211,0.0858 0.30182,0.125 0.5,0.125 0.16514,0 0.29395,-0.0277 0.40625,-0.0937 0.1189,-0.0726 0.23983,-0.17556 0.3125,-0.28125 0.07923,-0.10569 0.12322,-0.21824 0.15625,-0.34375 0.03961,-0.13212 0.0625,-0.2561 0.0625,-0.375 0,-0.3369 -0.07823,-0.60289 -0.25,-0.78125 -0.16515,-0.18496 -0.44741,-0.28125 -0.84375,-0.28125 z"
   inkscape:connector-curvature="0" />
<path
   id="g7"
   d="m -64.923199,-58.423729 c -0.84061,0 -1.613,0.28658 -2.25,0.75 l 4.5,0 c -0.637003,-0.46342 -1.40939,-0.75 -2.25,-0.75 z m 2.25,0.75 c 0.136102,0.099 0.252594,0.19684 0.375,0.3125 l 0,-0.3125 -0.375,0 z m 0.375,0.3125 0,0.78125 c -0.21687,0.2372 -0.454448,0.57982 -0.71875,1 -0.257542,0.42019 -0.5128,0.87086 -0.75,1.40625 -0.23042,0.52861 -0.41755,1.10881 -0.59375,1.71875 -0.16944,0.60994 -0.27184,1.23381 -0.3125,1.84375 l -1.34375,0 c 0.34883,0.10483 0.71184,0.1875 1.09375,0.1875 2.15525,0 3.90625,-1.79086 3.90625,-4 0,-1.16342 -0.507687,-2.20658 -1.28125,-2.9375 z m -3.71875,6.75 c -0.06221,-0.0187 -0.12662,-0.0408 -0.1875,-0.0625 -0.0017,0.0196 0.0016,0.043 0,0.0625 l 0.1875,0 z m -0.1875,-0.0625 c 0.04238,-0.47676 0.12631,-0.98572 0.25,-1.5 0.12877,-0.53539 0.28577,-1.04744 0.46875,-1.5625 0.18976,-0.51506 0.39457,-1.01468 0.625,-1.46875 0.23042,-0.46084 0.4503,-0.85541 0.6875,-1.1875 l -3.0625,0 0,-1.25 c -0.96422,0.72829 -1.59375,1.89689 -1.59375,3.21875 0,1.74787 1.10078,3.20564 2.625,3.75 z m -1.03125,-6.96875 c 0.01871,-0.0141 0.04353,-0.0174 0.0625,-0.0312 l -0.0625,0 0,0.0312 z"
   inkscape:connector-curvature="0" />
<path
   id="g8"
   d="m -88.228284,-58.847458 c -2.15526,0 -3.90625,1.79086 -3.90625,4 0,2.20914 1.75099,4 3.90625,4 2.15525,0 3.90625,-1.79086 3.90625,-4 0,-2.20914 -1.751,-4 -3.90625,-4 z m 0.03125,0.46875 c 0.39682,1e-5 0.72027,0.0704 1,0.1875 0.28623,0.1106 0.536593,0.23062 0.71875,0.40625 0.182138,0.17565 0.296928,0.37257 0.375,0.59375 0.08454,0.21468 0.125,0.44158 0.125,0.65625 0,0.31226 -0.08083,0.60178 -0.25,0.875 -0.162632,0.26673 -0.377807,0.46888 -0.625,0.625 0.370794,0.24069 0.656367,0.51454 0.8125,0.78125 0.162623,0.26022 0.21875,0.55496 0.21875,0.90625 0,0.29273 -0.05217,0.56531 -0.15625,0.8125 -0.09759,0.2407 -0.235837,0.44285 -0.4375,0.625 -0.201673,0.18215 -0.44425,0.33341 -0.75,0.4375 -0.29924,0.0976 -0.66568,0.15625 -1.0625,0.15625 -0.45537,0 -0.81925,-0.0639 -1.125,-0.1875 -0.29924,-0.13011 -0.56135,-0.2801 -0.75,-0.46875 -0.18216,-0.18866 -0.29694,-0.40382 -0.375,-0.625 -0.07802,-0.22768 -0.125,-0.43634 -0.125,-0.625 0,-0.19515 0.0417,-0.36862 0.09375,-0.53125 0.05205,-0.16263 0.12767,-0.3074 0.21875,-0.4375 0.09106,-0.13661 0.17066,-0.26441 0.28125,-0.375 0.11709,-0.11059 0.24489,-0.21491 0.375,-0.3125 -0.27973,-0.22769 -0.48839,-0.46631 -0.625,-0.6875 -0.13011,-0.22117 -0.1875,-0.49896 -0.1875,-0.84375 0,-0.2602 0.05217,-0.50931 0.15625,-0.75 0.11059,-0.24069 0.2736,-0.44935 0.46875,-0.625 0.19515,-0.18214 0.41427,-0.3334 0.6875,-0.4375 0.27973,-0.11058 0.59922,-0.15624 0.9375,-0.15625 z m 0,1.15625 c -0.14312,0 -0.27091,0.0482 -0.375,0.0937 -0.10409,0.0455 -0.20969,0.10945 -0.28125,0.1875 -0.06508,0.0716 -0.09248,0.13418 -0.125,0.21875 -0.03249,0.0845 -0.0625,0.17195 -0.0625,0.25 0,0.20818 0.06909,0.4116 0.21875,0.59375 0.15613,0.18215 0.4417,0.33864 0.8125,0.46875 0.20817,-0.13011 0.35816,-0.29961 0.46875,-0.46875 0.11059,-0.16914 0.15624,-0.37779 0.15625,-0.625 -1e-5,-0.0715 0.0012,-0.14069 -0.03125,-0.21875 -0.02607,-0.0845 -0.08473,-0.14719 -0.15625,-0.21875 -0.06508,-0.0715 -0.14592,-0.14196 -0.25,-0.1875 -0.10409,-0.0521 -0.22538,-0.0937 -0.375,-0.0937 z m -0.34375,2.8125 c -0.18215,0.13662 -0.34515,0.2866 -0.46875,0.46875 -0.1236,0.18215 -0.18751,0.40254 -0.1875,0.65625 -1e-5,0.078 0.03001,0.15242 0.0625,0.25 0.03901,0.0911 0.10944,0.20319 0.1875,0.28125 0.07802,0.078 0.15765,0.13546 0.28125,0.1875 0.1236,0.0521 0.2931,0.0625 0.46875,0.0625 0.33827,1e-5 0.56262,-0.0873 0.71875,-0.25 0.15612,-0.16263 0.25,-0.32959 0.25,-0.53125 0,-0.14963 -0.05342,-0.28916 -0.125,-0.40625 -0.06508,-0.11709 -0.13291,-0.22793 -0.25,-0.3125 -0.11709,-0.0911 -0.27487,-0.15369 -0.4375,-0.21875 -0.15612,-0.0715 -0.31785,-0.12895 -0.5,-0.1875 z"
   inkscape:connector-curvature="0" />
<path
   id="g9"
   d="m -116.19439,-63.508475 c -2.15526,0 -3.90625,1.79086 -3.90625,4 0,2.20914 1.75099,4 3.90625,4 2.15525,0 3.90625,-1.79086 3.90625,-4 0,-2.20914 -1.751,-4 -3.90625,-4 z m 0.0312,0.375 c 0.88777,0 1.57605,0.27607 2.0625,0.875 0.48644,0.59895 0.75,1.468 0.75,2.5625 0,1.12491 -0.30647,2.01171 -0.875,2.65625 -0.56854,0.64151 -1.32137,0.9375 -2.3125,0.9375 -0.31924,0 -0.64564,-0.0138 -0.9375,-0.0625 -0.29187,-0.0456 -0.56404,-0.1245 -0.84375,-0.21875 l 0,-1.25 c 0.27971,0.13073 0.52587,0.21436 0.78125,0.28125 0.25538,0.0638 0.53194,0.125 0.78125,0.125 0.52292,0 0.92688,-0.14867 1.21875,-0.4375 0.29187,-0.29186 0.44831,-0.74092 0.5,-1.3125 -0.20674,0.15202 -0.42215,0.26775 -0.65625,0.34375 -0.23411,0.076 -0.47638,0.12501 -0.75,0.125 -0.69623,10e-6 -1.25882,-0.22063 -1.6875,-0.625 -0.42564,-0.40739 -0.65625,-0.93096 -0.65625,-1.59375 0,-0.73271 0.24446,-1.30915 0.71875,-1.75 0.47732,-0.44084 1.10666,-0.65625 1.90625,-0.65625 z m 0,1.09375 c -0.30707,10e-6 -0.53245,0.11185 -0.6875,0.3125 -0.15506,0.20067 -0.21875,0.47977 -0.21875,0.875 0,0.39828 0.0637,0.7056 0.21875,0.90625 0.15505,0.19763 0.38043,0.28126 0.6875,0.28125 0.30707,10e-6 0.53244,-0.0836 0.6875,-0.28125 0.15505,-0.20065 0.25,-0.50797 0.25,-0.90625 0,-0.39523 -0.0949,-0.67433 -0.25,-0.875 -0.15506,-0.20065 -0.38043,-0.31249 -0.6875,-0.3125 z"
   inkscape:connector-curvature="0" />
<path
   id="gx"
   d="m -131.02489,-63.084696 c -0.80822,0 -1.56467,0.2562 -2.1875,0.6875 l 0.96875,0 1.28125,2.0625 1.25,-2.0625 0.875,0 c -0.62283,-0.4313 -1.37928,-0.6875 -2.1875,-0.6875 z m -2.71875,1.125 c -0.725,0.72627 -1.1875,1.75383 -1.1875,2.875 0,1.07981 0.44651,2.03035 1.125,2.75 0.20261,-0.34731 0.38458,-0.69358 0.625,-1.0625 0.37534,-0.5662 0.79195,-1.17632 1.25,-1.8125 l -1.8125,-2.75 z m 5.4375,0.0312 -1.8125,2.75 c 0.53438,0.69344 1.01237,1.31461 1.375,1.90625 0.22704,0.36645 0.36406,0.64337 0.53125,0.9375 0.67003,-0.71821 1.09375,-1.6778 1.09375,-2.75 0,-1.11362 -0.47107,-2.11854 -1.1875,-2.84375 z m -2.75,3.875 c -0.0891,0.11451 -0.20379,0.26517 -0.34375,0.46875 -0.1336,0.20358 -0.26629,0.42723 -0.40625,0.65625 -0.1336,0.22902 -0.25413,0.44631 -0.375,0.65625 -0.12088,0.20994 -0.224,0.37913 -0.28125,0.5 l -0.75,0 c 0.62283,0.4313 1.37928,0.6875 2.1875,0.6875 0.80822,0 1.56467,-0.2562 2.1875,-0.6875 l -0.84375,0 c -0.1845,-0.36898 -0.40234,-0.74966 -0.625,-1.125 -0.2163,-0.38171 -0.46372,-0.76182 -0.75,-1.15625 z"
   inkscape:connector-curvature="0" />
<path
   id="gt"
   d="m -143.73676,-61.813559 c -1.10889,0 -2.10204,0.45756 -2.8125,1.21875 l 5.625,0 c -0.71038,-0.76036 -1.70431,-1.21875 -2.8125,-1.21875 z m -2.90625,1.34375 c -0.60832,0.70541 -1,1.64074 -1,2.65625 0,2.20914 1.75099,4 3.90625,4 2.15525,0 3.90625,-1.79086 3.90625,-4 0,-1.00208 -0.37474,-1.92316 -0.96875,-2.625 l 0,1.125 -2.125,0 0,5.34375 -1.59375,0 0,-5.34375 -2.125,0 0,-1.15625 z"
   inkscape:connector-curvature="0" />
</svg>
