<?xml version="1.0" encoding="UTF-8" standalone="no"?>
<svg
   xmlns:dc="http://purl.org/dc/elements/1.1/"
   xmlns:cc="http://creativecommons.org/ns#"
   xmlns:rdf="http://www.w3.org/1999/02/22-rdf-syntax-ns#"
   xmlns:svg="http://www.w3.org/2000/svg"
   xmlns="http://www.w3.org/2000/svg"
   id="svg2"
   version="1.1"
   width="2048"
   height="2048">
  <metadata
     id="metadata36">
    <rdf:RDF>
      <cc:Work
         rdf:about="">
        <dc:format>image/svg+xml</dc:format>
        <dc:type
           rdf:resource="http://purl.org/dc/dcmitype/StillImage" />
        <dc:title></dc:title>
      </cc:Work>
    </rdf:RDF>
  </metadata>
  <defs
     id="defs6">
    <font
       horiz-adv-x="1800"
       id="WTactics Symbols">
      <font-face
         id="font-face9"
         descent="-410"
         ascent="1638"
         units-per-em="2048"
         font-stretch="normal"
         font-weight="400"
         font-family="WTactics Symbols" />
      <missing-glyph
         id="missing-glyph11"
         d="m 123.07748,1000 1454.54062,0 c 68.1859,0 123.0775,-54.89287 123.0775,-123.07748 l 0,-753.84504 C 1700.6956,54.89287 1645.804,0 1577.6181,0 L 123.07748,0 C 54.89287,0 0,54.89287 0,123.07748 L 0,876.92252 C 0,945.10713 54.89287,1000 123.07748,1000 Z" />
      <glyph
         id="glyph55"
         d="M 122.9712,1000 C 54.7876,1000 0,945.2124 0,877.0288 L 0,123.222 C 0,55.0385 54.7876,0 122.9712,0 L 1577.666,0 c 68.1835,0 122.9837,55.0385 122.9837,123.222 l 0,753.8068 c 0,68.1836 -54.8002,122.9712 -122.9837,122.9712 l -1454.6948,0 z m 744.249,-41.8809 c 144.9841,0 258.0338,-39.0964 339.2996,-117.352 81.7676,-78.2555 122.7329,-186.6392 122.7329,-325.0884 0,-138.4492 -40.9653,-246.8329 -122.7329,-325.0884 C 1125.254,112.3347 1012.2043,73.2509 867.2202,73.2509 c -145.4732,0 -259.4762,39.0838 -341.7454,117.3394 -81.7676,78.2555 -122.7329,186.6392 -122.7329,325.0884 0,138.4492 40.9653,246.8329 122.7329,325.0884 82.2692,78.2556 196.2722,117.352 341.7454,117.352 z m 0,-192.5596 c -59.6919,0 -105.3357,-21.5362 -136.944,-64.6715 -31.094,-42.646 -46.7852,-104.4452 -46.7852,-185.2093 0,-80.7641 15.6912,-142.5507 46.7852,-185.686 31.6083,-42.646 77.2521,-63.944 136.944,-63.944 58.7011,0 103.3916,21.298 134.4982,63.944 31.1065,43.1353 46.7978,104.9219 46.7978,185.686 0,80.7641 -15.6913,142.5633 -46.7978,185.2093 -31.1066,43.1353 -75.7971,64.6715 -134.4982,64.6715 z"
         unicode="0"
         glyph-name="zero" />
      <glyph
         id="glyph57"
         d="M 125.4902,1000 C 57.2612,1000 0,942.7275 0,874.5098 L 0,121.5686 C 0,53.3509 57.2612,0 125.4902,0 l 1454.8957,0 c 68.2165,0 121.5749,53.3509 121.5749,121.5686 l 0,752.9412 c 0,68.2177 -53.3584,125.4902 -121.5749,125.4902 l -1454.8957,0 z m 745.09804,-58.8235 133.33336,0 0,-886.2745 -188.23533,0 0,639.2156 c -25.5498,-17.034 -54.76392,-32.581 -86.27451,-47.0588 -31.52313,-13.6282 -64.31372,-25.0742 -94.11764,-35.2941 l -54.90196,145.098 c 24.69647,10.2149 48.10039,22.518 74.50353,35.2942 27.25647,13.6257 52.88156,27.8061 78.43137,43.1372 25.5498,16.1807 51.51372,33.9451 74.51608,50.9804 23.84313,17.8836 43.99686,35.3117 62.7451,54.902 z"
         unicode="1"
         glyph-name="one" />
      <glyph
         id="glyph59"
         d="M 132.6505,1000 C 60.7633,1000 0,939.48391 0,867.59295 L 0,132.40705 C 0,60.51609 60.7633,0 132.6505,0 l 1427.7064,0 c 71.8872,0 132.4008,60.51609 132.4008,132.40705 l 0,735.1859 c 0,71.89096 -60.5136,132.40705 -132.4008,132.40705 l -1427.7064,0 z m 684.4766,-54.37734 c 50.5133,-0.001 94.0102,-5.71802 130.4532,-17.31261 36.443,-11.58585 66.294,-28.2118 89.4907,-49.74425 24.0206,-20.70721 41.4119,-46.41082 52.1738,-77.0534 11.6108,-29.81733 17.566,-63.58734 17.566,-101.68332 0,-31.47281 -6.3672,-61.72212 -18.7771,-90.70922 -12.4847,-28.9871 -28.6525,-57.28129 -48.5282,-84.61291 -19.8757,-26.50264 -42.2109,-52.20999 -67.0556,-77.05465 -24.8447,-24.84716 -49.14,-48.35345 -73.1482,-70.71489 -12.4847,-11.58585 -26.0681,-24.83842 -40.9749,-39.74646 -14.0703,-14.0803 -27.7037,-28.49645 -40.9625,-43.40324 -13.2463,-14.90805 -25.3191,-29.17812 -36.0934,-42.42944 -9.9878,-12.42233 -16.2801,-22.68604 -18.7646,-30.96718 l 370.3976,0 0,-155.32905 -574.0114,0 c -1.6231,9.11387 -2.497,20.78961 -2.497,34.86991 l 0,29.74867 c 0,39.75395 6.1175,76.1133 18.5274,109.24159 13.2463,33.12829 30.263,63.76962 50.9627,91.92898 20.7122,28.9871 43.8215,56.11148 69.4902,80.95613 26.5051,24.84716 52.5982,49.52452 78.2794,74.37168 19.8757,19.04799 38.453,36.83876 55.8443,53.40228 17.3912,17.39251 32.8349,34.00597 46.0812,49.743 13.2588,16.56352 23.5213,32.78871 30.9747,48.52574 7.4908,16.56352 11.2362,33.17823 11.2362,49.743 0,36.4405 -10.2375,61.90315 -30.9621,76.8112 -20.7122,14.90804 -46.4184,22.43385 -77.0559,22.43385 -22.3602,0 -43.5219,-3.75791 -63.3976,-11.22379 -19.0517,-6.62941 -36.8425,-14.93551 -53.4098,-24.87213 -15.7308,-9.11387 -29.3641,-18.59105 -40.9625,-28.52891 -11.6108,-9.11387 -20.3002,-16.39373 -26.0931,-22.1904 l -91.9252,128.99372 c 36.443,33.95603 78.7538,61.8582 126.7951,83.39315 48.8653,22.35895 100.8144,33.40546 156.3091,33.40671 z"
         unicode="2"
         glyph-name="two" />
      <glyph
         id="glyph61"
         d="M 132.683,1000 C 60.7782,1000 0,939.46909 0,867.56054 L 0,132.43821 C 0,60.52966 60.7782,0 132.683,0 l 1428.0558,0 c 71.9048,0 132.4332,60.52966 132.4332,132.43821 l 0,735.12233 C 1693.172,939.46909 1632.6436,1000 1560.7388,1000 l -1428.0558,0 z m 663.4148,-33.9019 c 51.6995,-0.001 96.1312,-6.30635 133.4198,-19.02518 38.1377,-11.86342 69.5695,-29.31263 94.1455,-52.19529 24.5761,-22.03724 42.7708,-48.27038 54.6342,-78.78059 11.8634,-29.66355 17.8076,-62.20927 17.8076,-97.80452 0,-34.74983 -9.7405,-68.65423 -29.2714,-101.70696 -19.4935,-32.20606 -45.7304,-56.95315 -78.7856,-73.90285 45.7678,-18.6468 80.7961,-46.61075 105.3721,-83.90184 25.4252,-36.44318 38.2877,-80.49767 38.2877,-132.19595 0,-40.68153 -6.8683,-78.42219 -20.48,-113.17077 -13.5618,-33.9019 -34.6038,-63.3544 -63.4131,-88.78082 C 1018.9927,100.05482 981.9913,80.50516 937.0727,66.09672 893.0032,52.53621 840.5419,45.60922 779.514,45.60922 c -22.8777,0 -47.0166,1.73581 -72.4418,5.12001 -25.4252,2.54751 -49.9262,6.38127 -73.6531,11.4638 -23.7268,5.08254 -45.3932,10.6521 -64.8741,16.58631 -19.4935,5.93171 -34.841,11.50127 -45.8553,16.58506 l 36.8266,157.56118 c 22.0285,-9.32839 50.0012,-19.46974 83.9056,-30.48774 34.741,-10.16507 77.6866,-15.36624 128.537,-15.36624 58.4804,0 101.1637,11.12663 128.2872,33.17136 27.1236,22.03599 40.7353,51.73325 40.7353,89.02434 0,22.88266 -5.2449,41.81668 -15.3725,57.07304 -9.3659,16.10302 -22.3157,28.96921 -39.2617,38.29261 -16.9584,10.16508 -37.2511,16.85355 -60.978,20.24399 -22.8776,4.23337 -47.6285,6.34381 -73.9028,6.34381 l -73.6531,0 0,152.68344 83.8931,0 c 18.6443,-10e-4 36.4644,1.49854 53.4228,4.88273 17.7952,3.3842 33.5048,8.96625 47.0666,16.58506 13.5617,8.47922 24.0765,19.60961 31.7065,33.17137 8.4917,14.40718 12.6876,32.22479 12.6876,53.4141 0,16.10178 -3.2468,30.08563 -9.9902,41.95155 -6.7434,11.86341 -15.8096,21.39536 -26.8238,29.02416 -10.1151,7.63005 -22.4281,13.19462 -36.8391,16.58506 -13.5617,4.23337 -27.5356,6.34381 -41.9465,6.34381 -36.4394,0 -70.3438,-5.31981 -101.7007,-16.34155 -30.5202,-11.01425 -58.4804,-24.62846 -83.9056,-40.73149 l -67.3218,138.53726 c 13.5618,8.47922 29.2839,17.2619 47.0791,26.58529 18.6443,9.3284 38.9369,17.9812 60.9779,25.61 22.0285,7.63005 45.1684,13.93765 69.7444,19.02393 25.4377,5.08254 52.2865,7.55512 80.2467,7.55512 z"
         unicode="3"
         glyph-name="three" />
      <glyph
         id="glyph63"
         d="M 132.68297,1000 C 60.77442,1000 0,939.469 0,867.5605 L 0,132.43816 C 0,60.52961 60.77442,0 132.68297,0 L 1560.7313,0 c 71.9085,0 132.4395,60.52961 132.4395,132.43816 l 0,735.12234 c 0,71.9085 -60.531,132.4395 -132.4395,132.4395 l -1428.04833,0 z m 768.78077,-54.1459 179.26736,0 0,-529.0248 94.1469,0 0,-155.12234 -94.1469,0 0,-196.8291 -185.60876,0 0,196.8291 -380.00023,0 0,138.78074 c 18.64555,37.2911 42.03147,79.2402 69.99917,125.8534 27.96894,47.4612 58.78136,95.7216 92.68326,144.8786 34.74858,50.0037 71.12931,98.6362 109.26833,146.0973 38.13777,47.4612 76.25177,90.3968 114.39087,128.5371 z M 895.11984,714.39 C 862.06594,671.1647 827.04514,624.022 789.754,573.1704 752.46291,522.3188 721.03234,470.2234 695.60716,416.8293 l 199.51268,0 0,297.5607 z"
         unicode="4"
         glyph-name="four" />
      <glyph
         id="glyph65"
         d="M 132.683,1000 C 60.7782,1000 0,939.46909 0,867.56054 L 0,132.43821 C 0,60.52966 60.7782,0 132.683,0 l 1428.0558,0 c 71.9048,0 132.4332,60.52966 132.4332,132.43821 l 0,735.12233 C 1693.172,939.46909 1632.6436,1000 1560.7388,1000 l -1428.0558,0 z m 495.6161,-54.14589 476.5848,0 0,-159.02475 -317.8023,0 c -1.7483,-30.51147 -3.8712,-60.20872 -6.3688,-89.02434 -1.7483,-27.96895 -3.7463,-52.47128 -6.3688,-73.65934 123.7293,-8.47922 214.9277,-37.80185 273.4081,-87.80428 59.3296,-49.15701 89.0256,-117.71259 89.0256,-205.85404 0,-40.68153 -7.3678,-78.42219 -21.7038,-113.17076 -14.4109,-34.74858 -36.0648,-64.81673 -64.8742,-90.24315 C 1021.3779,101.64827 985.0009,81.72522 940.9314,67.31678 897.6986,52.9096 846.7234,45.60922 788.243,45.60922 c -22.8902,0 -47.0166,1.73581 -72.4418,5.12001 -24.576,2.54751 -48.7025,6.38127 -72.4418,11.4638 -22.8776,4.23337 -43.545,8.82889 -62.1893,13.90268 -18.6443,5.08254 -33.0052,10.27747 -43.1703,15.36625 l 34.1416,156.34112 c 21.1919,-9.3159 49.1521,-18.72672 83.9056,-28.04886 34.7536,-8.47923 76.3255,-12.68262 124.6409,-12.68262 58.4679,0 100.7891,11.50127 127.0634,34.39017 26.2744,23.73059 39.5114,51.32365 39.5114,82.68303 0,24.57726 -5.6195,46.23237 -16.5838,64.87792 -10.9892,19.49222 -29.9457,35.57901 -57.0693,48.29285 -27.1235,12.71259 -63.7502,22.48805 -109.518,29.26893 -45.7554,6.78088 -103.1868,10.00273 -172.6815,10.00273 9.3659,78.8193 16.7587,158.88114 22.6904,240.24421 5.8693,81.36182 10.7395,157.83217 14.1362,229.02517 z"
         unicode="5"
         glyph-name="five" />
      <glyph
         id="glyph67"
         d="M 132.68313,1000 C 60.77449,1000 0,939.47152 0,867.56662 L 0,132.4459 C 0,60.5285 60.77449,0 132.68313,0 L 1560.7333,0 c 71.9086,0 132.4396,60.5285 132.4396,132.4459 l 0,735.12072 c 0,71.9049 -60.531,132.43338 -132.4396,132.43338 l -1428.05017,0 z m 965.85457,-47.80339 c 1.6983,-26.27438 3.4217,-52.13667 5.12,-77.56188 1.6983,-24.57604 3.4342,-50.43832 5.12,-77.56188 -43.2241,-1.24878 -83.812,-5.12 -121.95112,-12.67514 -37.2911,-6.74342 -71.8125,-17.92003 -103.1706,-33.16766 -30.5103,-15.26012 -57.1181,-35.1782 -80.0008,-59.76673 -22.8839,-23.72686 -40.7016,-52.81101 -53.4142,-87.55213 18.6456,8.49172 37.8232,14.41095 57.3167,17.79515 19.4934,3.37171 37.6832,4.87025 54.6342,4.87025 55.0888,0 101.6172,-7.4927 139.75622,-22.67789 38.9845,-14.41095 70.7873,-34.32903 95.3658,-59.75424 24.5785,-25.42521 42.3974,-55.12126 53.4154,-89.0257 11.0143,-33.90444 16.5851,-69.90684 16.5851,-108.04466 0,-33.90444 -6.3064,-68.79542 -19.024,-104.39821 -11.8634,-35.5903 -30.6726,-67.77142 -56.0978,-96.58083 -24.5785,-28.82186 -56.38,-52.57376 -95.36572,-71.21806 -38.1391,-18.6443 -83.3076,-27.8104 -135.8538,-27.8104 -105.9405,0 -186.6193,33.2925 -241.7081,100.25226 -55.0901,66.94723 -82.6831,159.50698 -82.6831,277.31712 0,84.74238 13.2395,159.60688 39.5127,224.86825 26.2731,65.26137 63.6417,120.08292 111.9508,164.15245 49.1558,44.91871 107.936,78.82315 176.5854,101.70085 69.4972,23.73935 147.45492,35.98991 233.90312,36.83908 z M 838.04918,479.27021 c -18.6468,0 -38.5687,-1.74829 -59.7555,-5.12001 -21.1894,-3.37171 -37.6483,-7.9922 -49.513,-13.89894 0,-3.37172 -0.6244,-8.6166 -1.4611,-15.36003 l 0,-17.80764 c 0,-30.52024 2.1105,-59.22975 6.3438,-86.34081 4.2334,-27.12356 11.5388,-50.88789 21.7076,-71.21807 10.1651,-20.34266 23.7806,-36.43947 40.7316,-48.3029 16.9497,-10.98929 37.9892,-16.58383 63.4156,-16.58383 21.1881,0 39.0058,4.24586 53.4142,12.68763 15.2551,9.36587 27.5057,20.82969 36.8291,34.39147 10.1651,13.56177 17.4692,28.28492 21.7076,44.38172 5.0825,16.95847 7.5676,33.04279 7.5676,48.30291 0,43.22036 -10.8894,76.37553 -32.9266,99.26571 -21.1894,23.72687 -57.1993,35.60279 -108.0484,35.60279 z"
         unicode="6"
         glyph-name="six" />
      <glyph
         id="glyph69"
         d="M 132.683,1000 C 60.7657,1000 0,939.46909 0,867.56054 L 0,132.43946 C 0,60.53091 60.7657,0 132.683,0 l 1428.0433,0 c 71.9173,0 132.4457,60.53091 132.4457,132.43946 l 0,735.12108 C 1693.172,939.46909 1632.6436,1000 1560.7263,1000 l -1428.0433,0 z m 411.7105,-52.92708 616.5856,0 0,-137.31719 c -27.1235,-29.66355 -57.1942,-70.86832 -90.2494,-123.41452 -32.2061,-52.54745 -63.2632,-112.3141 -92.9218,-179.26749 C 948.9861,440.96701 923.4984,369.9351 901.4575,293.65832 880.2656,217.38153 867.2783,141.1547 862.1958,64.87791 l -191.9501,0 c 5.12,61.8696 15.5972,126.21678 31.7065,193.17142 16.0968,66.95339 35.6527,132.66049 58.5304,197.07261 23.7393,64.41211 49.9637,124.92304 78.7856,181.7076 28.8093,57.63124 58.1432,107.2503 87.8017,148.77976 l -382.6764,0 0,161.46362 z"
         unicode="7"
         glyph-name="seven" />
      <glyph
         id="glyph71"
         d="M 132.4003,1000 C 60.5134,1000 0,939.47414 0,867.58721 L 0,132.65 C 0,60.76307 60.5134,0 132.4003,0 l 1427.9383,0 c 71.8869,0 132.4128,60.76307 132.4128,132.65 l 0,734.93721 c 0,71.88693 -60.5259,132.41279 -132.4128,132.41279 l -1427.9383,0 z m 717.8706,-33.89598 c 51.6867,0 95.7327,-7.61567 132.1631,-22.92192 37.2794,-14.40735 67.9543,-32.97211 91.6877,-55.84409 23.7209,-22.87198 40.5503,-48.72781 50.7129,-77.54251 10.9865,-27.96574 16.5797,-55.919 16.5797,-83.88474 0,-40.66269 -11.1114,-78.76601 -33.1594,-114.35991 -21.1741,-34.73245 -47.779,-62.32365 -79.977,-82.66124 48.2908,-31.3491 82.5613,-64.50848 102.8989,-99.24093 21.1866,-33.89598 31.9484,-73.72219 31.9484,-119.47864 0,-38.12829 -6.8666,-73.14789 -20.4874,-105.34595 -12.7095,-31.3491 -32.248,-58.9403 -58.5158,-82.66124 -26.2679,-23.72094 -59.1776,-42.2857 -99.0038,-55.84409 -38.9772,-12.70943 -84.3841,-19.2639 -136.0583,-19.2639 -59.3148,0 -108.9291,7.99021 -148.7553,24.14542 -38.9647,16.94175 -70.7633,37.85363 -95.3332,62.42353 -23.7334,24.5699 -40.5503,51.17481 -50.7254,79.97703 -10.1126,29.66366 -15.3561,56.86784 -15.3561,81.45022 0,25.41886 3.4957,48.55302 10.2374,69.73957 6.7418,21.17406 16.1802,40.35057 28.0407,57.29232 11.8604,17.80319 24.857,33.88349 39.2644,48.29084 15.2438,14.39487 31.3241,28.0032 48.2783,40.71263 -36.4428,29.66366 -63.4098,58.97775 -81.2005,87.79245 -16.9417,28.80222 -25.3564,65.54471 -25.3564,110.4522 0,33.89598 6.6169,66.43112 20.2377,97.78022 14.4073,31.3491 34.3204,58.56576 59.7393,81.45022 25.4189,23.72094 55.8566,42.27322 91.438,55.83161 36.4304,14.40735 76.6436,21.7109 120.7021,21.7109 z m 0,-152.6505 c -18.6396,0 -34.7199,-2.87148 -48.2783,-8.73929 -13.5584,-5.86782 -24.8196,-13.97039 -34.1332,-24.13294 -8.4896,-9.36353 -15.0316,-19.47614 -19.2639,-30.48765 -4.2448,-10.98655 -6.3672,-21.77333 -6.3672,-31.93588 0,-27.11679 9.738,-52.36086 29.2641,-76.0818 20.3251,-23.72094 54.5956,-44.02108 102.899,-60.96282 27.1168,16.94174 48.0162,36.2431 62.4235,58.27861 14.4074,22.0355 21.4487,49.23968 21.4612,81.43773 -0.012,9.36353 -2.1224,19.1016 -6.3672,29.26416 -3.3709,10.98654 -9.7381,21.16157 -19.0267,30.48765 -8.4896,9.36353 -19.3638,16.9792 -32.9097,22.92192 -13.5584,6.74174 -30.2629,9.98776 -49.7515,9.98776 z M 807.1113,450.13608 c -23.721,-17.80319 -43.6465,-38.70259 -59.7393,-62.42353 -16.1053,-23.73342 -24.1455,-52.06122 -24.1455,-85.10824 0,-10.11261 2.1224,-21.67345 6.3672,-34.38288 5.1188,-11.86047 12.7594,-22.74714 22.922,-32.90969 10.1126,-10.11261 23.4088,-18.58972 39.5016,-25.36892 16.1052,-6.74174 35.4066,-10.23746 58.2786,-10.23746 44.0585,0 76.2316,10.48715 96.5692,31.69867 20.3251,21.18655 30.7124,44.94494 30.7124,71.20028 0,19.48863 -4.8691,36.94225 -14.1327,52.18607 -8.4896,15.25631 -20.3501,28.24041 -35.6064,39.2644 -15.2563,11.86047 -33.434,21.99806 -54.6206,30.47517 -20.3376,9.36353 -42.3606,17.97798 -66.0815,25.60613 z"
         unicode="8"
         glyph-name="eight" />
      <glyph
         id="glyph73"
         d="M 122.9822,1000 C 54.787,1000 0,944.9496 0,876.767 L 0,122.9822 C 0,54.7995 54.787,0 122.9822,0 l 1454.664,0 c 68.1827,0 122.9822,54.7995 122.9822,122.9822 l 0,753.7848 c 0,68.1826 -54.7995,123.233 -122.9822,123.233 l -1454.664,0 z m 717.0469,-57.0823 c 111.3425,0 197.4363,-37.5657 258.4444,-112.6971 61.0082,-75.1188 91.6252,-181.1808 91.6252,-318.4617 0,-141.094 -35.747,-252.0853 -107.0528,-332.9236 C 1011.7275,98.3732 913.8686,58.0606 789.5569,58.0606 c -40.0367,0 -78.2797,3.1357 -114.8921,9.2817 -36.6124,5.7697 -72.4598,14.3866 -107.542,26.2145 l 0,157.7633 c 35.0822,-16.3934 68.6468,-28.5976 100.6811,-36.9887 32.0343,-8.0274 63.7801,-12.0411 95.0493,-12.0411 65.5863,0 116.7484,17.9111 153.3609,54.1348 36.5999,36.6124 57.9477,90.9729 64.4198,162.6676 -25.926,-19.0651 -53.4323,-33.5897 -82.795,-43.1222 -29.3627,-9.5325 -61.2214,-14.211 -95.5386,-14.1985 -87.3355,-0.013 -157.8887,25.4619 -211.6597,76.185 -53.3947,51.0994 -80.1109,118.241 -80.1109,201.3622 0,91.9136 29.6763,165.4395 89.1668,220.7282 59.8793,55.2887 140.0404,82.8076 240.3326,82.8076 z m -1.2543,-138.4098 c -38.5189,0 -67.5304,-12.5679 -86.9718,-37.7288 -19.4539,-25.1734 -29.1494,-62.3879 -29.1494,-111.957 0,-49.958 9.6579,-87.5237 29.1494,-112.6846 19.4414,-24.7971 48.4529,-37.2395 86.9718,-37.2395 38.5064,0 67.5179,12.4173 86.9593,37.2395 19.4539,25.1609 29.1494,62.7266 29.1494,112.6846 0,49.5691 -9.6579,86.7836 -29.1494,111.957 -19.4414,25.1609 -48.4529,37.7288 -86.9593,37.7288 z"
         unicode="9"
         glyph-name="nine" />
      <glyph
         id="glyph91"
         d="M 121.5631,1000 C 53.3462,1000 0,946.6538 0,878.4369 L 0,121.5631 C 0,53.3462 53.3462,0 121.5631,0 l 1454.9174,0 c 68.2169,0 125.491,53.3462 125.491,121.5631 l 0,756.8738 c 0,68.2169 -57.2741,121.5631 -125.491,121.5631 l -1454.9174,0 z m 643.1413,-94.1182 172.5501,0 c 26.4786,-56.0694 52.7313,-113.356 78.4319,-172.5501 25.7005,-58.4035 52.7313,-122.8181 78.4318,-188.2365 26.4786,-65.4185 51.1753,-133.8612 78.4319,-207.8382 27.2566,-73.9895 55.9062,-155.9225 86.2751,-243.1388 l -196.0797,0 c -8.5334,28.0347 -16.5523,56.6843 -27.4449,86.2751 -10.1648,29.5908 -21.2582,60.5996 -31.3727,90.1904 l -313.7275,0 C 680.0356,240.9929 669.7203,209.9841 658.8277,180.3933 648.6629,150.8025 639.9413,122.1529 631.3702,94.1182 l -192.1518,0 c 30.3689,87.2163 59.0185,169.1493 86.2751,243.1388 27.2566,73.977 56.6466,142.4197 82.3472,207.8382 26.4786,65.4184 49.594,129.833 74.5165,188.2365 25.688,59.1941 55.0906,116.4807 82.3472,172.5501 z m 82.3597,-184.3086 c -3.8902,-11.6707 -11.7961,-26.8175 -19.6142,-47.0592 -7.7804,-20.2542 -17.3303,-44.11 -27.4449,-70.5886 -10.1648,-26.4786 -18.9115,-58.2655 -31.3727,-90.203 -11.6707,-31.9249 -22.8394,-62.9964 -35.3006,-98.0335 l 227.4524,0 c -12.4236,35.0371 -23.6174,66.1086 -35.2881,98.0335 -11.6707,31.9375 -24.3954,63.7244 -35.3006,90.203 -10.1648,26.4786 -15.7366,50.3344 -23.5296,70.5886 -7.7804,20.2417 -14.9334,35.3759 -19.6017,47.0592 z"
         unicode="A"
         glyph-name="A" />
      <glyph
         id="glyph115"
         d="m 366.29998,998.81338 c -90.9079,-1.37342 -182.0968,2.87172 -272.812401,-2.37227 C 4.2888992,981.34597 -4.0427608,885.44379 1.2311692,812.68998 2.7668992,572.94077 -1.8527808,332.87941 3.5784692,93.32997 18.815939,4.1825 114.74808,-4.0081 187.47938,1.2234 c 462.7128,0 925.42432,0 1388.13702,0 98.5242,-2.4971 124.8726,101.34594 115.4335,180.19274 -1.5358,241.72195 3.0839,483.74355 -2.3349,725.25323 -15.1375,89.15994 -111.0497,97.33803 -183.7423,92.10655 -119.6786,0 -154.1615,0 -273.84,0 244.3314,-244.33144 -29.5073,-423.97479 -225.8465,-529.62826 l 0.6243,-28.3424 154.2588,-90.45844 -4.1078,-51.44083 -633.70232,-192.6409 -25.6217,30.83953 290.522,577.37333 58.8498,-3.87054 51.1961,-172.51406 27.2037,-1.24856 c 88.58942,118.45124 195.68742,304.15013 21.8961,393.38498 -125.6642,66.06151 -442.1864,64.9378 -580.1427,68.53366 z"
         unicode="M"
         glyph-name="M" />
      <glyph
         id="glyph129"
         d="M 122.9712,1000 C 54.7876,1000 0,945.21235 0,877.01628 L 0,123.222 C 0,55.0385 54.7876,0 122.9712,0 L 1577.666,0 c 68.1835,0 122.9837,55.0385 122.9837,123.222 l 0,753.79428 C 1700.6497,945.21235 1645.8495,1000 1577.666,1000 l -1454.6948,0 z m 302.0721,-80.60106 819.2058,0 0,-168.30143 -289.8051,0 0,-701.86641 -239.5956,0 0,701.86641 -289.8051,0 0,168.30143 z"
         unicode="T"
         glyph-name="T" />
      <glyph
         id="glyph137"
         d="M 122.9704,1000 C 54.7873,1000 0,945.20517 0,877.02081 L 0,123.22377 C 0,55.03942 54.7873,0 122.9704,0 l 1454.6857,0 c 68.1831,0 122.983,55.03942 122.983,123.22377 l 0,753.79704 c 0,68.18436 -54.7999,122.97919 -122.983,122.97919 l -1454.6857,0 z m 306.4728,-49.24084 258.9477,0 181.0314,-271.18963 186.4249,271.18963 248.4117,0 -303.776,-423.07639 308.4294,-447.08598 -259.4244,0 -187.654,286.38031 -191.0908,-286.38031 -247.6717,0 308.4294,438.26582 -302.0576,431.89655 z"
         unicode="X"
         glyph-name="X" />
      <glyph
         id="glyph157"
		 horiz-adv-x="1000"
         d="M 488.28125,1000 C 218.87375,1000 0,776.1425 0,500 0,223.8575 218.87375,0 488.28125,0 c 269.4125,0 488.2875,223.8575 488.2875,500 0,276.1425 -218.875,500 -488.2875,500 z m -19.5312,-54.6875 132.8125,0 0,-882.8125 -191.4063,0 0,632.8125 c -25.45,-16.9675 -54.5487,-32.45375 -85.9375,-46.875 -31.39,-13.575 -60.1513,-24.97625 -89.8437,-35.15625 l -58.5938,148.4375 c 24.6025,10.175 51.8263,22.43 78.125,35.15625 27.1475,13.5725 52.6738,27.6975 78.125,42.96875 25.45,16.1175 47.4063,29.90625 70.3125,46.875 23.7538,17.81375 47.7425,39.08 66.4063,58.59375 z"
         unicode="b"
         glyph-name="b" />
      <glyph
         id="glyph159"
		 horiz-adv-x="1000"
         d="M 488.28125,1000 C 218.87375,1000 0,776.15 0,500 0,334.55 78.40625,188.675 199.21875,97.6625 c -0.125,4.125 0,7.125 0,11.75 l 0,31.25 c 0,39.8 7.0875,76.2 19.53125,109.375 13.2675,33.1625 30.05125,61.65 50.78125,89.8375 20.73,29.025 44.6075,57.1625 70.3125,82.0375 26.535,24.875 52.41875,49.3375 78.125,74.2125 19.90125,19.075 37.2725,38.1125 54.6875,54.6875 17.41375,17.425 33.6075,31.125 46.87501,46.875 13.2675,16.5875 23.7875,35.025 31.25,50.7875 7.4625,16.5875 11.7125,34.2 11.7125,50.775 0,36.4875 -10.5125,59.3 -31.25,74.225 -20.7313,14.925 -47.44376,23.4375 -78.12501,23.4375 -22.38875,0 -42.59875,-4.25 -62.5,-11.75 -19.0725,-6.625 -38.1025,-13.4875 -54.6875,-23.4375 -15.755,-9.125 -31.35875,-21.3 -42.96875,-31.25 C 281.35,721.35 275.33,716.75 269.525,710.9375 L 175.775,839.85 c 36.485,34 80.81125,60.475 128.90625,82.025 48.92375,22.3875 100.69375,35.1625 156.25,35.1625 50.58251,0 92.42001,-7.875 128.90621,-19.5375 36.4838,-11.625 66.625,-25.3125 89.8438,-46.875 24.0475,-20.725 40.0012,-47.4375 50.7812,-78.125 11.6125,-29.85 19.53,-63.4125 19.5313,-101.5625 0,-31.5 -7.0875,-64.725 -19.5313,-93.75 -12.4375,-29.0125 -26.975,-54.6625 -46.875,-82.025 -19.9012,-26.5375 -41.53,-53.25 -66.4062,-78.125 -24.8775,-24.875 -50.1725,-47.925 -74.2188,-70.3125 -12.4375,-11.625 -28.0437,-24.1375 -42.96871,-39.0625 -14.0975,-14.1 -25.795,-28.0375 -39.0625,-42.975 -13.2675,-14.925 -24.3775,-29.7 -35.15625,-42.9625 -9.95,-12.5 -17.04375,-22.9625 -19.53125,-31.25 l 371.09371,0 0,-132.8125 C 897.86496,188.7 976.55626,334.775 976.55626,500 c 0,276.15 -218.875,500 -488.28126,500 z M 777.34376,97.6625 c -11.225,-8.5 -23.2325,-15.95 -35.1563,-23.4375 l 35.1563,0 0,23.4375 z m -35.1563,-23.4375 -507.81246,0 C 308.28625,28.0125 395.37,0 488.28125,0 581.47996,0 668.12746,27.75 742.18746,74.225 Z m -507.81246,0 c -11.9875,7.5 -23.8775,14.9375 -35.15625,23.4375 0.375,-8.375 2.7875,-17.3125 3.9,-23.4375 l 31.25,0 z"
         unicode="c"
         glyph-name="c" />
      <glyph
         id="glyph161"
		 horiz-adv-x="1000"
         d="M 488.275,1000 C 218.875,1000 0,776.1425 0,500 0,223.8575 218.875,0 488.275,0 c 269.4125,0 488.2875,223.8575 488.2875,500 0,276.1425 -218.875,500 -488.2875,500 z m -7.75,-54.6875 c 49.5375,-0.001 93.175,-7.35 128.9125,-19.53125 C 645.975,914.41875 675.725,896.925 699.275,875 c 23.55,-21.115 39.4125,-44.98625 50.7875,-74.21875 11.375,-28.42125 19.525,-59.645 19.525,-93.75 0,-33.295 -12.5625,-65.9875 -31.25,-97.65625 -18.675,-30.8575 -42.55,-54.0725 -74.2125,-70.3125 43.85,-17.86625 78.0125,-46.30125 101.5625,-82.03125 24.3625,-34.9175 35.15,-75.46625 35.15,-125 0,-38.97875 -6.5,-76.08125 -19.525,-109.375 -13,-32.4825 -30.9875,-61.575 -58.6,-85.9375 C 695.1125,113.17 660.2875,95.83625 617.25,82.03125 575.025,69.03875 523.3625,62.5 464.9,62.5 c -21.925,0 -45.95,0.625 -70.3125,3.9 -24.3625,2.4375 -47.575,6.85 -70.3125,11.7125 -22.7375,4.875 -43.825,9.9375 -62.5,15.625 -18.675,5.6875 -32.4125,10.75 -42.9625,15.625 l 35.15,152.34375 c 21.1125,-8.9375 49.55,-20.69375 82.0375,-31.25 33.2875,-9.7375 72.3625,-11.7125 121.0875,-11.7125 56.0375,0 99.0125,10.1375 125,31.25 25.9875,21.11375 39.0625,50.2075 39.0625,85.9375 0,21.925 -5.875,40.07 -15.625,54.6875 -9,15.42875 -22.825,26.22375 -39.0625,35.15625 -16.2375,9.7375 -35.85,16.2825 -58.5875,19.53125 -21.925,4.0625 -45.1375,7.8125 -70.3125,7.8125 l -70.3125,0 0,144.53125 82.025,0 c 17.8625,-10e-4 34.5375,0.625 50.7875,3.9 17.05,3.2375 29.975,8.325 42.9625,15.625 13,8.125 23.9375,18.25625 31.25,31.25 8.125,13.80375 11.75,34.385 11.75,54.6875 0,15.4275 -1.375,27.69375 -7.75,39.0625 -6.5,11.3625 -16.7875,20.035 -27.3375,27.34375 -9.75,7.3125 -21.35,12.375 -35.1625,15.625 -12.9875,4.0625 -25.25,7.8125 -39.0625,7.8125 -34.9125,0 -67.6125,-5.0625 -97.65,-15.625 -29.2375,-10.55 -57.675,-23.63375 -82.0375,-39.0625 l -62.5,132.8125 c 13,8.125 25.925,14.505 42.975,23.4375 17.8625,8.9375 37.475,16.12875 58.5875,23.4375 21.1125,7.3125 42.8625,14.6575 66.4125,19.53125 24.3625,4.875 51.325,7.8125 78.125,7.8125 z"
         unicode="d"
         glyph-name="d" />
      <glyph
         id="glyph163"
		 horiz-adv-x="1000"
         d="M 488.275,1000 C 218.875,1000 0,776.1425 0,500 0,223.8575 218.875,0 488.275,0 c 269.4125,0 488.2875,223.8575 488.2875,500 0,276.1425 -218.875,500 -488.2875,500 z m -7.75,-62.5 179.6875,0 0,-527.34375 93.75,0 0,-156.25 -93.75,0 0,-199.21875 -187.5,0 0,199.21875 -378.9,0 0,136.71875 c 18.6625,37.3275 42.3125,82.2475 70.3125,128.90625 28,47.50875 59.8125,95.325 93.75,144.53125 34.7875,50.05375 71.2,97.02375 109.375,144.53125 38.175,47.50875 75.1,90.72875 113.275,128.90625 z m -7.75,-230.46875 c -33.075,-43.2675 -68.1375,-89.7225 -105.4625,-140.625 -37.325,-50.9025 -68.3,-102.8025 -93.75,-156.25 l 199.2125,0 0,296.875 z"
         unicode="e"
         glyph-name="e" />
      <glyph
         id="glyph165"
		 horiz-adv-x="1000"
         d="M 488.2814,1000 C 218.8723,1000 0,776.1453 0,500.00625 0,334.56082 78.424,188.67639 199.2225,97.66753 l 31.2496,144.52944 c 20.7498,-9.12488 51.8869,-18.20977 85.9364,-27.34341 34.0371,-8.31239 73.7491,-11.71235 121.086,-11.71235 57.2993,0 99.2613,12.73359 124.9985,35.15581 25.7371,23.25096 39.062,47.39941 39.062,78.12402 0,24.0797 -8.7499,48.1369 -19.5248,66.40543 -10.7498,19.09851 -28.1246,34.41831 -54.6868,46.87441 -26.5747,12.44984 -60.6367,20.69974 -105.4737,27.34341 -44.8369,6.64991 -103.7862,11.71235 -171.8728,11.71235 9.1249,77.22529 17.6248,154.65432 23.4372,234.37207 5.7499,79.7165 8.3749,152.90059 11.7498,222.65347 l 457.0193,0 C 668.2916,971.9941 581.2052,1000 488.3064,1000 Z m 253.8968,-74.21782 c 4,-2.48747 7.7499,-5.21244 11.7499,-7.8124 l 0,7.8124 -11.7499,0 z m 11.7499,-7.8124 0,-148.43565 -312.4961,0 c -1.625,-29.89463 -1.375,-57.70303 -3.875,-85.93642 -1.6249,-27.40341 -5.3749,-49.55189 -7.7499,-70.31163 121.236,-8.31239 212.2349,-36.94578 269.5342,-85.93642 58.1242,-48.16315 85.9239,-116.76354 85.9364,-203.12246 -0.012,-39.85825 -5.3749,-75.32781 -19.5373,-109.37364 C 751.6281,180.80774 727.5659,149.92313 699.3413,125.01094 671.1041,100.1 637.0545,80.53524 593.8676,66.41792 551.5181,52.30185 502.7312,42.98071 445.4319,42.98071 c -22.4247,0 -49.2994,4.49995 -74.2115,7.81241 -24.0872,2.49996 -47.062,6.73741 -70.3117,11.71235 -22.4247,4.14995 -40.3245,6.73741 -58.5992,11.71235 -8.3749,2.28747 -12.8874,5.52493 -19.5248,7.8124 C 299.1838,31.12336 390.4826,0 488.4064,0 757.803,0 976.6753,223.8547 976.6753,499.99375 c 0,175.7728 -88.8489,328.80964 -222.6472,417.96353 z M 199.2475,97.66753 l 0,-7.8124 c 3.5,-1.74998 11.1249,-2.16248 15.6248,-3.89995 -5.3749,3.72495 -10.3749,7.7874 -15.6248,11.71235 z"
         unicode="f"
         glyph-name="f" />
      <glyph
         id="glyph167"
		 horiz-adv-x="1000"
         d="M 488.2812,1000 C 218.8737,1000 0,776.1425 0,500 0,223.8575 218.8737,0 488.2812,0 c 269.4063,0 488.2813,223.8575 488.2813,500 0,189.22875 -102.66,352.58375 -253.9063,437.5 1.4875,-22.97125 2.4126,-48.01375 3.9,-70.3125 1.65,-23.9475 2.2625,-47.79625 3.9001,-74.21875 -42.1126,-0.875 -80.03,-4.2875 -117.1875,-11.7125 C 576.9362,774.64375 542.2575,760.9625 511.7063,746.1 481.9812,731.2375 455.875,715.35875 433.5813,691.4125 411.2863,668.2925 395.185,639.32875 382.8,605.475 c 18.1662,8.2625 35.695,12.325 54.6875,15.625 18.9925,3.3 38.1725,3.9 54.6875,3.9 53.6712,0 99.5612,-4.675 136.7188,-19.53125 37.9812,-14.0375 65.8975,-33.8225 89.8437,-58.59375 23.9462,-24.7725 43.9525,-52.90875 54.6875,-85.9375 10.7375,-33.02875 15.625,-68.31125 15.625,-105.46875 0,-33.02875 -7.15,-66.88125 -19.5312,-101.5625 -11.5625,-34.68 -29.9163,-65.675 -54.6875,-93.75 C 690.885,132.08 659.0638,108.01 621.0813,89.84375 583.9237,71.6775 539.4638,62.5 488.2688,62.5 c -103.2151,0 -180.7038,32.42375 -234.375,97.65625 -53.6726,65.23125 -78.12505,154.755 -78.12505,269.53125 0,82.57125 9.5625,155.16875 35.15625,218.75 25.5975,63.57875 62.3087,117.2175 109.375,160.15625 47.8913,43.76375 104.9912,75.36125 171.875,97.65625 64.4637,22.0125 139.3162,37.2575 218.75,39.0625 C 644.435,980.12375 568.055,1000 488.2688,1000 Z m 222.6563,-54.6875 c 4.175,-2.1875 7.6125,-5.5125 11.7125,-7.8125 -0.125,2.55 0.125,5.2625 0,7.8125 -4.0375,-0.04 -7.7125,0.0913 -11.7125,0 z M 468.75,484.375 c -18.1675,0 -37.9525,-4.5125 -58.5938,-7.8125 C 389.5125,473.25 370.935,470.625 359.375,464.85 c 0,-3.3125 0.875,-9.025 0,-15.625 l 0,-15.625 c 0,-29.72625 3.6875,-59.51375 7.8125,-85.9375 4.125,-26.42375 9.625,-50.495 19.5312,-70.3125 9.9,-19.81875 22.5476,-35.315 39.0625,-46.875 16.5138,-10.725 37.7275,-15.625 62.5,-15.625 20.6425,0 36.7438,3.4625 50.7813,11.7125 14.8625,9.075 29.9787,21.945 39.0625,35.15625 9.9,13.21125 15.4025,27.28 19.5312,42.96875 4.95,16.515 7.8125,32.0125 7.8125,46.875 0,42.1125 -9.775,75.36125 -31.25,97.65625 -20.6437,23.12 -55.9262,35.15625 -105.4687,35.15625 z"
         unicode="g"
         glyph-name="g" />
      <glyph
         id="glyph169"
		 horiz-adv-x="1000"
         d="M 488.28122,1000 C 383.205,1000 286.65625,964.1775 207.03125,906.25 l 562.49997,0 c -79.625,57.9275 -176.1737,93.75 -281.25,93.75 z m 281.25,-93.75 c 17.0125,-12.375 31.5738,-24.605 46.875,-39.0625 l 0,39.0625 -46.875,0 z m 46.875,-39.0625 0,-97.65625 c -27.1087,-29.65 -56.8062,-72.4775 -89.8437,-125 -32.1925,-52.52375 -64.1,-108.8575 -93.75,-175.78125 -28.8025,-66.07625 -52.1938,-138.60125 -74.2188,-214.84375 -21.18,-76.2425 -33.98,-154.22625 -39.0625,-230.46875 l -167.96872,0 C 395.16625,10.33375 440.5425,0 488.28122,0 c 269.4063,0 488.2813,223.8575 488.2813,500 0,145.4275 -63.4613,275.8225 -160.1563,367.1875 z M 351.5625,23.4375 c -7.775,2.3375 -15.8275,5.1 -23.4375,7.8125 -0.25,-2.45 0.25,-5.375 0,-7.8125 l 23.4375,0 z M 328.125,31.25 c 5.3,59.595 15.78875,123.215 31.25,187.5 16.09625,66.92375 35.72125,130.93 58.59375,195.3125 23.72,64.3825 49.32127,126.835 78.12497,183.59375 28.8025,57.605 56.2875,106.92625 85.9375,148.4375 l -382.81247,0 0,156.25 C 78.69125,811.3075 0,665.2325 0,500 0,281.51625 137.5975,99.295 328.125,31.25 Z M 199.21875,902.34375 c 2.3375,1.7625 5.4375,2.175 7.8125,3.9 l -7.8125,0 0,-3.9 z"
         unicode="h"
         glyph-name="h" />
      <glyph
         id="glyph171"
		 horiz-adv-x="1000"
         d="M 488.275,1000 C 218.875,1000 0,776.1425 0,500 0,223.8575 218.875,0 488.275,0 c 269.4125,0 488.2875,223.8575 488.2875,500 0,276.1425 -218.875,500 -488.2875,500 z m 3.875,-58.59375 c 49.6,-0.001 90.025,-8.8 125,-23.4375 35.775,-13.825 67.075,-28.8275 89.8375,-50.78125 22.775,-21.95625 37.125,-46.57125 46.875,-74.21875 10.625,-26.835 15.625,-55.1975 15.625,-82.03125 0,-39.0325 -10.125,-75.2225 -31.25,-109.375 -20.325,-33.34125 -47.225,-58.61 -78.125,-78.125 46.35,-30.08625 82.05,-64.3175 101.5625,-97.65625 20.3375,-32.5275 27.35,-69.37 27.35,-113.28125 0,-36.59125 -6.5,-70.66375 -19.5375,-101.5625 C 757.2375,180.85 740.0125,155.58125 714.8,132.8125 689.6,110.04375 659.275,91.13625 621.05,78.125 583.65,65.925 537.8375,58.59375 488.2375,58.59375 c -56.9125,0 -102.4,7.9875 -140.625,23.4375 -37.4,16.26375 -70.1625,35.0125 -93.75,58.59375 -22.7625,23.5825 -37.1125,50.4775 -46.875,78.125 -9.75,28.46 -15.625,54.5425 -15.625,78.125 0,24.39375 5.25,46.0775 11.75,66.40625 6.5,20.32875 15.95,38.425 27.3375,54.6875 11.375,17.07625 21.3375,33.05125 35.1625,46.875 14.6375,13.82375 30.6125,26.86375 46.875,39.0625 -34.975,28.46125 -61.05,58.28875 -78.125,85.9375 -16.2625,27.64625 -23.4375,62.37 -23.4375,105.46875 0,32.525 6.5,63.66375 19.525,93.75 13.825,30.08625 34.2,56.16875 58.6,78.125 24.3875,22.7675 51.775,41.675 85.9375,54.6875 34.9625,13.8225 74.9,19.53 117.1875,19.53125 z m 0,-144.53125 c -17.8875,0 -33.8625,-6.025 -46.875,-11.7125 -13.0125,-5.6875 -26.2125,-13.68125 -35.1625,-23.4375 -8.125,-8.95 -11.5,-16.7725 -15.625,-27.34375 -4.125,-10.5625 -7.75,-21.49375 -7.75,-31.25 0,-26.0225 8.625,-51.45 27.35,-74.21875 19.5125,-22.76875 55.2125,-42.33 101.5625,-58.59375 26.0125,16.26375 44.7625,37.45125 58.5875,58.59375 13.825,21.1425 19.5375,47.22375 19.5375,78.125 0,8.9375 0,17.58625 -3.875,27.34375 -3.25,10.5625 -10.625,18.39875 -19.525,27.34375 -8.125,8.9375 -18.2375,17.745 -31.25,23.4375 -13.0125,6.5125 -28.175,11.7125 -46.875,11.7125 z M 449.175,445.3125 C 426.4125,428.235 406.0375,409.4875 390.5875,386.71875 375.1375,363.95 367.15,336.40125 367.15,304.6875 c 0,-9.75 3.75,-19.0525 7.75,-31.25 4.875,-11.3875 13.675,-25.39875 23.4375,-35.15625 9.75,-9.75 19.7,-16.9325 35.15,-23.4375 15.45,-6.5125 36.6375,-7.8125 58.6,-7.8125 42.275,-0.001 70.325,10.9125 89.8375,31.25 19.5125,20.32875 31.25,41.19875 31.25,66.40625 0,18.70375 -6.625,36.145 -15.625,50.78125 -8.125,14.63625 -16.6125,28.49125 -31.25,39.0625 -14.6375,11.3875 -34.35,19.21125 -54.6875,27.34375 -19.5125,8.9375 -39.725,16.11875 -62.5,23.4375 z"
         unicode="i"
         glyph-name="i" />
      <glyph
         id="glyph173"
		 horiz-adv-x="1000"
         d="M 488.2875,1000 C 218.875,1000 0,776.1425 0,500 0,223.8575 218.875,0 488.2875,0 c 269.4,0 488.275,223.8575 488.275,500 0,276.1425 -218.875,500 -488.275,500 z m 3.875,-46.875 c 110.9625,0 197,-34.50875 257.8125,-109.375 60.8,-74.86875 93.75,-183.5 93.75,-320.3125 0,-140.61375 -38.3125,-251.46375 -109.375,-332.03125 C 663.275,111.2175 569.175,74.21875 445.2875,74.21875 c -39.9125,0 -80.7125,1.725 -117.1875,7.8125 -36.4875,5.7 -70.5125,15.5625 -105.475,27.34375 l 0,156.25 c 34.9625,-16.34125 65.7375,-26.795 97.6625,-35.15625 31.9125,-7.975 66.4875,-15.625 97.65,-15.625 65.3625,0 115.8625,18.58375 152.35,54.6875 36.475,36.4825 56.0375,92.615 62.5,164.0625 C 606.9375,414.59125 580.0125,400.125 550.75,390.625 521.4875,381.125 491.2,374.99875 457,375 c -87.025,-10e-4 -157.35,27.57875 -210.9375,78.125 -53.2,50.92375 -82.025,116.37 -82.025,199.21875 0,91.58875 30.55,163.64375 89.8375,218.75 59.6625,55.105 138.3375,82.03125 238.2875,82.03125 z m 0,-136.71875 C 453.775,816.40525 425.6,802.425 406.225,777.34375 386.8375,752.26 378.875,717.3725 378.875,667.96875 c 0,-49.785 8,-88.2 27.35,-113.28125 19.375,-24.70375 47.55,-35.1575 85.9375,-35.15625 38.375,-10e-4 66.55,10.45 85.9375,35.15625 19.375,25.08125 31.25,63.49625 31.25,113.28125 0,49.40375 -11.875,84.29125 -31.25,109.375 -19.3875,25.08125 -47.5625,39.06125 -85.9375,39.0625 z"
         unicode="j"
         glyph-name="j" />
      <glyph
         id="glyph175"
		 horiz-adv-x="1000"
         d="M 488.275,1000 C 218.875,1000 0,776.1425 0,500 0,223.8575 218.875,0 488.275,0 c 269.4125,0 488.2875,223.8575 488.2875,500 0,276.1425 -218.875,500 -488.2875,500 z m 0,-66.40625 c 144.4875,-10e-4 258.8625,-39.2 339.85,-117.1875 81.4875,-77.99 121.0875,-186.24 121.0875,-324.21875 0,-137.98125 -39.6,-242.32375 -121.0875,-320.3125 C 747.1375,93.88625 632.7625,54.6875 488.275,54.6875 c -144.975,0 -257.85,39.19875 -339.8375,117.1875 -81.4875,77.98875 -121.1,182.33125 -121.1,320.3125 0,137.97875 39.6125,246.22875 121.1,324.21875 81.9875,77.9875 194.8625,117.18625 339.8375,117.1875 z m 0,-191.40625 c -59.4875,0 -105.2125,-19.5075 -136.7125,-62.5 -31,-42.495 -46.875,-107.0125 -46.875,-187.5 0,-80.49 15.875,-140.60125 46.875,-183.59375 31.5,-42.495 77.225,-62.5 136.7125,-62.5 58.5,0 105.725,20.005 136.725,62.5 31,42.9925 46.875,103.10375 46.875,183.59375 0,80.4875 -15.875,145.005 -46.875,187.5 -31,42.9925 -78.225,62.5 -136.725,62.5 z"
         unicode="k"
         glyph-name="k" />
      <glyph
         id="glyph179"
		 horiz-adv-x="1000"
         d="M 822.1547,1000 C 1095.9124,726.24222 789.0978,524.96751 569.1151,406.59374 L 570.5141,374.8337 743.3526,273.48359 738.7361,215.84883 28.7062,0 0,34.55232 l 325.5184,646.91276 65.9319,-4.35069 57.3563,-193.28959 30.4829,-1.39893 c 99.2545,132.71705 219.2552,340.785 24.5373,440.75995 -140.8029,74.0275 -165.9278,63.1144 -209.4907,74.78712 z"
         unicode="m"
         glyph-name="m" />
      <glyph
         id="glyph193"
		 horiz-adv-x="1000"
         d="M 488.2875,1000 C 349.675,1000 225.525,942.805 136.725,847.65625 l 703.125,0 C 751.05,942.70125 626.8,1000 488.2875,1000 Z M 125,832.03125 C 48.9625,743.855 0,626.93875 0,500 0,223.8575 218.875,0 488.2875,0 c 269.4,0 488.275,223.8575 488.275,500 0,125.26 -46.8375,240.395 -121.0875,328.125 l 0,-140.625 -265.625,0 0,-667.96875 -199.225,0 0,667.96875 -265.625,0 0,144.53125 z"
         unicode="t"
         glyph-name="t" />
      <glyph
         id="glyph201"
		 horiz-adv-x="1000"
         d="M 488.2933,1000 C 387.2645,1000 292.711,967.9738 214.8456,914.05928 l 121.1045,0 160.156,-257.82217 156.2559,257.82217 109.3791,0 C 683.8881,967.9738 589.3346,1000 488.2933,1000 Z M 148.4431,859.36973 C 57.8147,768.59132 0,640.13651 0,499.98125 0,365.00119 55.8146,246.18423 140.6303,156.2184 c 25.3259,43.4141 48.0768,86.7032 78.1279,132.81744 46.9143,70.77765 98.9912,147.04301 156.2559,226.571 l -226.571,343.76289 z m 679.713,-3.87515 -226.571,-343.76289 C 668.3876,425.05344 728.1398,347.40053 773.4665,273.44775 801.8426,227.6335 818.9682,193.0197 839.869,156.2559 c 83.7656,89.77833 136.7301,209.73282 136.7301,343.76285 0,139.20522 -58.8897,264.82243 -148.443,355.47583 z M 484.3932,371.10142 c -11.1255,-14.31304 -25.476,-33.13875 -42.9766,-58.5897 -16.7007,-25.45096 -33.2888,-53.4145 -50.777,-82.04062 -16.7006,-28.626 -31.7636,-55.7895 -46.8767,-82.028 -15.1131,-26.251 -28.0011,-47.4018 -35.1638,-62.5024 l -93.7535,0 C 292.711,32.0262 387.2645,0 488.2933,0 589.3346,0 683.8881,32.0262 761.7411,85.9407 l -105.4665,0 c -23.0634,46.1268 -50.3019,93.7035 -78.1279,140.6303 -27.0385,47.71429 -57.9647,95.22857 -93.7535,144.53042 z"
         unicode="x"
         glyph-name="x" />
    </font>
</defs>
</svg>
