<svg width="0" height="0" style="position:absolute"><symbol viewBox="0 0 24 24" id="adding-new" xmlns="http://www.w3.org/2000/svg"><path d="M22.351 10.851h-9.2v-9.2a1.15 1.15 0 00-2.3 0v9.2h-9.2a1.15 1.15 0 000 2.3h9.2v9.2a1.15 1.15 0 002.3 0v-9.2h9.2a1.15 1.15 0 000-2.3z"/></symbol><symbol viewBox="0 0 24 24" id="clear" xmlns="http://www.w3.org/2000/svg"><path d="M19.765 4.234a.8.8 0 00-1.13 0L12 10.87 5.366 4.234a.8.8 0 10-1.132 1.132L10.87 12l-6.635 6.634a.8.8 0 101.132 1.131L12 13.131l6.634 6.634a.798.798 0 001.132 0 .8.8 0 000-1.13L13.13 12l6.635-6.634a.8.8 0 000-1.132z"/></symbol><symbol viewBox="0 0 24 24" id="contact" xmlns="http://www.w3.org/2000/svg"><path d="M12 1C5.935 1 1 5.935 1 12s4.935 11 11 11 11-4.935 11-11S18.065 1 12 1zm0 21.083c-3.015 0-5.717-1.336-7.567-3.44.053-.032.106-.067.158-.094 1.747-.897 4.45-1.966 7.409-1.966 2.958 0 5.662 1.07 7.408 1.966.052.027.106.062.159.094-1.85 2.104-4.552 3.44-7.567 3.44zm7.827-4.35c-1.836-.942-4.686-2.066-7.827-2.066s-5.99 1.124-7.828 2.067c-.106.055-.21.117-.317.186A10.017 10.017 0 011.917 12C1.917 6.44 6.44 1.917 12 1.917c5.56 0 10.083 4.523 10.083 10.083 0 2.213-.725 4.256-1.938 5.92a3.644 3.644 0 00-.318-.186z"/><path d="M12 4.208A5.277 5.277 0 006.73 9.48 5.277 5.277 0 0012 14.75a5.277 5.277 0 005.27-5.27A5.277 5.277 0 0012 4.207zm0 9.625A4.36 4.36 0 017.646 9.48 4.36 4.36 0 0112 5.125a4.36 4.36 0 014.354 4.354A4.36 4.36 0 0112 13.833z"/></symbol><symbol viewBox="0 0 24 24" id="data-input" xmlns="http://www.w3.org/2000/svg"><path d="M22.64 1.727H1.359a.86.86 0 00-.859.86v18.826c0 .291.146.547.368.703v.135h.308c.059.013.12.021.183.021H22.64a.846.846 0 00.182-.021h.042v-.013a.86.86 0 00.635-.826V2.587a.86.86 0 00-.859-.86zM3.896 21.514H1.295a.119.119 0 01-.059-.102v-2.231h2.66v2.333zm0-3.069h-2.66v-2.419h2.66v2.419zm0-3.155h-2.66v-2.554h2.66v2.554zm0-3.29h-2.66V9.237h2.66V12zm0-3.499h-2.66V5.799h2.66v2.702zm6.2 13.013H4.633v-2.333h5.464l-.001 2.333zm0-3.069H4.633v-2.419h5.464l-.001 2.419zm0-3.155H4.633v-2.554h5.464l-.001 2.554zm0-3.29H4.633V9.237h5.464L10.096 12zm0-3.499H4.633V5.799h5.464l-.001 2.702zm0-3.438H4.633V2.464h5.464l-.001 2.599zm6.262 16.451h-5.526v-2.333h5.526v2.333zm0-3.069h-5.526v-2.419h5.526v2.419zm0-3.155h-5.526v-2.554h5.526v2.554zm0-3.29h-5.526V9.237h5.526V12zm0-3.499h-5.526V5.799h5.526v2.702zm0-3.438h-5.526V2.464h5.526v2.599zm6.405 16.35c0 .043-.025.08-.059.102h-5.609v-2.333h5.668v2.231zm0-2.968h-5.668v-2.419h5.668v2.419zm0-3.155h-5.668v-2.554h5.668v2.554zm0-3.29h-5.668V9.237h5.668V12zm0-3.499h-5.668V5.799h5.668v2.702zm0-3.438h-5.668V2.464h5.545c.068 0 .123.055.123.123v2.476zM9.549 14.715H5.128v-1.538h4.421v1.538zm6.247.057h-4.421v-1.538h4.421v1.538zm6.401-.033h-4.421v-1.538h4.421v1.538z"/></symbol><symbol viewBox="0 0 23 23" id="data-sets" xmlns="http://www.w3.org/2000/svg"><path d="M20.272 5.309c-.024 0-.024-.024-.048-.048s-.024-.048-.048-.073L16.008.511c-.024-.024-.073-.048-.097-.073-.024 0-.024-.024-.048-.024a.458.458 0 00-.194-.048H5.442a2.751 2.751 0 00-2.738 2.738v16.793a2.751 2.751 0 002.738 2.738h12.116a2.751 2.751 0 002.738-2.738V5.478c0-.048-.024-.121-.024-.169zm-4.144-3.296l2.69 3.029h-2.69V2.013zm3.247 17.859c0 1.018-.8 1.842-1.817 1.842H5.442a1.814 1.814 0 01-1.817-1.817V3.079c0-1.018.824-1.817 1.817-1.817h9.766v4.216c0 .242.194.46.46.46h3.708l-.001 13.934z"/><path d="M5.975 5.939h4.047a.46.46 0 00.46-.46.445.445 0 00-.46-.46H5.975a.46.46 0 100 .92zm4.047 11.122H5.975a.46.46 0 100 .92h4.047a.46.46 0 00.46-.46.476.476 0 00-.46-.46zM5.514 8.532c0 .242.194.46.46.46h10.808a.46.46 0 100-.92H5.975a.46.46 0 00-.461.46zm11.269 1.817H5.975a.46.46 0 100 .92h10.808c.242 0 .46-.194.46-.46s-.194-.46-.46-.46zm0 2.254H5.975a.46.46 0 100 .92h10.808a.46.46 0 00.46-.46.445.445 0 00-.46-.46zm0 2.253H5.975a.46.46 0 100 .92h10.808a.46.46 0 100-.92z"/></symbol><symbol viewBox="0 0 24 24" id="delete" xmlns="http://www.w3.org/2000/svg"><path d="M22.781 3.375h-6.469V1.219A.718.718 0 0015.593.5H8.406a.718.718 0 00-.719.719v2.156H1.219a.72.72 0 000 1.438H2.71l1.386 18.024a.719.719 0 00.717.663h14.375a.719.719 0 00.717-.663l1.386-18.024h1.491a.718.718 0 10-.001-1.438zM9.125 1.938h5.75v1.438h-5.75V1.938zm9.397 20.125H5.478L4.151 4.813h15.698l-1.327 17.25z"/><path d="M12 7.688a.718.718 0 00-.719.719v10.062a.72.72 0 001.438 0V8.406A.718.718 0 0012 7.688zm2.875.718v10.062a.718.718 0 101.438 0V8.406a.718.718 0 10-1.438 0zm-6.469-.718a.718.718 0 00-.719.719v10.062a.72.72 0 001.438 0V8.406a.718.718 0 00-.719-.718z"/></symbol><symbol viewBox="0 0 24 24" id="download" xmlns="http://www.w3.org/2000/svg"><path d="M19.1 6.8c-.8-3.9-4.6-6.4-8.5-5.7C7.8 1.7 5.5 4 5 6.8 2.2 7.1.3 9.6.6 12.4c.3 2.5 2.4 4.5 5 4.5h3.6c.4 0 .7-.3.7-.7 0-.4-.3-.7-.7-.7H5.5c-2 0-3.6-1.6-3.6-3.6s1.6-3.6 3.6-3.6c.4 0 .7-.3.7-.6.4-3.2 3.2-5.4 6.4-5.1 2.7.3 4.7 2.4 5.1 5.1.1.4.4.6.8.6 2 0 3.6 1.6 3.6 3.6s-1.6 3.6-3.6 3.6h-3.6c-.4 0-.7.3-.7.7 0 .4.3.7.7.7h3.6c2.8 0 5-2.3 5-5.1 0-2.5-1.9-4.7-4.4-5z"/><path d="M9.5 18.7c-.3-.3-.7-.3-1 0-.3.3-.3.7 0 1l3.1 3.1c.3.3.7.3 1 0l3.1-3.1c.3-.3.3-.7 0-1-.3-.3-.7-.3-1 0l-1.8 1.8v-9.1c0-.4-.3-.7-.7-.7-.4 0-.7.3-.7.7v9.1l-2-1.8z"/></symbol><symbol viewBox="0 0 24 24" id="edit" xmlns="http://www.w3.org/2000/svg"><path d="M22.887 4.234l-3.136-3.139c-.79-.791-2.165-.792-2.958.002L2.743 15.285a.535.535 0 00-.132.225L.52 22.834a.523.523 0 00.646.646l7.318-2.093a.525.525 0 00.225-.132L22.887 7.193c.395-.395.613-.921.613-1.48s-.218-1.084-.613-1.479zm-8.372.665l1.924 1.924L6.393 16.869l-.721-1.442a.524.524 0 00-.468-.289h-.837L14.515 4.899zM1.784 22.217l.681-2.383 1.703 1.703-2.384.68zm6.034-1.724l-2.501.714-2.524-2.524.714-2.501h1.374l.901 1.802a.53.53 0 00.234.234l1.802.901v1.374zm1.046-.859v-.837a.524.524 0 00-.289-.468l-1.442-.721L17.178 7.562l1.924 1.924L8.864 19.634zM22.15 6.466L19.845 8.75l-4.594-4.594 2.283-2.303a1.07 1.07 0 011.478 0l3.136 3.136c.198.198.306.46.306.739s-.108.542-.304.738z"/></symbol><symbol viewBox="0 0 23 23" id="groups" xmlns="http://www.w3.org/2000/svg"><path d="M11.499.928a1.86 1.86 0 00-1.858 1.858 1.86 1.86 0 001.858 1.858 1.86 1.86 0 001.858-1.858A1.86 1.86 0 0011.499.928zm0 2.975a1.117 1.117 0 110-2.231 1.117 1.117 0 010 2.231zm-.693 1.314l-.072-.001a2.581 2.581 0 00-2.579 2.506v.419c0 .194.211.296.42.296h5.851c.209 0 .42-.102.42-.296v-.396a2.559 2.559 0 00-.787-1.806 2.56 2.56 0 00-1.788-.723h-.051l-.001-.114-.009.115h-1.404zm3.248 2.346l.009.133H8.936l.009-.133c.057-.854.926-1.604 1.86-1.604h1.388c.934 0 1.804.749 1.861 1.604zM3.072 12.902a.37.37 0 00.742 0 7.654 7.654 0 012.873-5.999.374.374 0 00-.002-.516.373.373 0 00-.471-.05 8.354 8.354 0 00-3.142 6.565zm6.008 7.282a.374.374 0 00-.461.242.346.346 0 00.194.455 8.417 8.417 0 005.373.009.393.393 0 00.243-.489.362.362 0 00-.188-.206.36.36 0 00-.284-.015l-.012.003-.03-.121.029.121a7.708 7.708 0 01-4.864.001zm4.835-.122zm2.019-13.436a7.673 7.673 0 013.252 6.276.37.37 0 00.741 0 8.493 8.493 0 00-3.566-6.889.375.375 0 00-.427.613zM4.062 14.563c-1.025 0-1.858.834-1.858 1.858s.833 1.858 1.858 1.858c1.024 0 1.858-.834 1.858-1.858s-.833-1.858-1.858-1.858zm0 2.975a1.118 1.118 0 01-1.117-1.117 1.118 1.118 0 012.234 0c0 .616-.501 1.117-1.117 1.117zm.771 1.314H3.368l-.072-.001a2.581 2.581 0 00-2.579 2.507v.419c0 .194.211.296.42.296h5.851c.169 0 .42-.079.42-.296v-.397a2.556 2.556 0 00-.788-1.806 2.554 2.554 0 00-1.787-.722zm-3.334 2.479l.009-.134c.057-.854.926-1.604 1.86-1.604h1.388c.934 0 1.803.75 1.86 1.604l.009.133H1.499zm3.284-2.604v-.001zm14.154-4.164c-1.024 0-1.858.834-1.858 1.858s.834 1.858 1.858 1.858 1.858-.834 1.858-1.858-.834-1.858-1.858-1.858zm0 2.975a1.118 1.118 0 01-1.117-1.117 1.118 1.118 0 111.117 1.117zm.769 1.314h-1.464l-.072-.001a2.582 2.582 0 00-2.579 2.507v.419c0 .217.251.296.42.296h5.851c.209 0 .421-.102.421-.296v-.397a2.58 2.58 0 00-2.577-2.528zm-3.333 2.479l.009-.134c.058-.854.927-1.604 1.86-1.604h1.389c.935 0 1.803.75 1.859 1.604l.009.133h-5.126zm3.284-2.604v-.001z"/></symbol><symbol viewBox="0 0 24 24" id="hamburger" xmlns="http://www.w3.org/2000/svg"><path d="M3 18h18v-2H3v2zm0-5h18v-2H3v2zm0-7v2h18V6H3z"/></symbol><symbol viewBox="0 0 612 612" id="help" xmlns="http://www.w3.org/2000/svg"><path d="M230.724 181.208a1489.01 1489.01 0 01-5.119 5.508c2.17-2.337 5.119-5.508 5.119-5.508z"/><path d="M336.962 200.875c7.956 9.792 11.906 21.337 11.906 34.634 0 9.514-2.727 18.666-8.151 27.512-2.977 5.007-6.898 9.848-11.795 14.465l-16.301 16.107c-15.634 15.356-25.732 28.958-30.35 40.865-4.618 11.878-6.927 27.54-6.927 46.957h36.275c0-17.108 1.947-30.044 5.814-38.807 3.866-8.763 12.323-19.444 25.37-32.102 17.942-17.387 29.849-30.572 35.746-39.53s8.874-20.641 8.874-35.051c0-23.756-8.039-43.285-24.146-58.585-16.106-15.3-37.526-22.922-64.288-22.922-28.931 0-51.686 8.929-68.266 26.789s-24.87 41.449-24.87 70.797h36.275c.667-17.665 3.478-31.184 8.346-40.559 8.679-16.83 24.369-25.259 47.068-25.259 18.333.001 31.491 4.897 39.42 14.689z"/><path d="M612 306C612 137.004 474.995 0 306 0 137.004 0 0 137.004 0 306c0 168.995 137.004 306 306 306 168.995 0 306-137.005 306-306zm-584.182 0C27.818 152.36 152.36 27.818 306 27.818S584.182 152.36 584.182 306 459.64 584.182 306 584.182 27.818 459.64 27.818 306z"/><path d="M274.51 415.214h40.559v42.367H274.51z"/></symbol><symbol viewBox="0 0 25.512 24" id="hospital" xmlns="http://www.w3.org/2000/svg"><path d="M18.975 10.445v2.332h3.109v-2.332h-3.109zM21.307 12h-1.555v-.777h1.555V12zm-2.332 1.555v2.332h3.109v-2.332h-3.109zm2.332 1.554h-1.555v-.777h1.555v.777zm-2.332 1.555v2.332h3.109v-2.332h-3.109zm2.332 1.555h-1.555v-.777h1.555v.777zm-2.332 1.555v2.332h3.109v-2.332h-3.109zm2.332 1.554h-1.555v-.777h1.555v.777zM14.311 4.226V1.894h-3.109v2.332H8.869v3.109h2.332v2.332h3.109V7.336h2.332v-3.11h-2.331zm1.554 2.333h-2.332v2.332h-1.555V6.559H9.646V5.004h2.332V2.672h1.555v2.332h2.332v1.555z"/><path d="M18.197 8.891V.34H7.314v8.551H1.873v14.77h21.766V8.891h-5.442zM7.314 22.883H2.65V9.668h4.664v13.215zm5.053 0h-1.943v-6.996h1.943v6.996zm2.721 0h-1.943v-6.996h1.943v6.996zm2.332 0h-1.555v-7.774H9.646v7.774H8.092V1.117h9.328v21.766zm5.442 0h-4.664V9.668h4.664v13.215z"/><path d="M3.428 10.445v2.332h3.109v-2.332H3.428zM5.76 12H4.205v-.777H5.76V12zm-2.332 1.555v2.332h3.109v-2.332H3.428zm2.332 1.554H4.205v-.777H5.76v.777zm-2.332 1.555v2.332h3.109v-2.332H3.428zm2.332 1.555H4.205v-.777H5.76v.777zm-2.332 1.555v2.332h3.109v-2.332H3.428zm2.332 1.554H4.205v-.777H5.76v.777z"/></symbol><symbol viewBox="0 0 24 24" id="link" xmlns="http://www.w3.org/2000/svg"><path d="M7.8 20C6.7 21.1 5 21.1 4 20c-1-1-1.1-2.7 0-3.8l5.7-5.7c-1.8-.5-3.7 0-5.1 1.3L2 14.4c-2 2.1-2 5.5.1 7.5 2.1 2.1 5.5 2.1 7.6 0l2.3-2.3c1.4-1.4 1.9-3.4 1.4-5.2L7.8 20zM21.9 2.1C19.8 0 16.5 0 14.4 2l-2.5 2.5c-1.3 1.4-1.8 3.4-1.3 5.1l5.7-5.7c1.1-1 2.7-1 3.8 0 1.1 1.1 1.1 2.8 0 3.8l-5.6 5.6c1.8.5 3.8 0 5.2-1.4L22 9.6c2-2 2-5.4-.1-7.5z"/><path d="M7.9 16.1c.5.5 1.4.5 1.9 0l6.3-6.3c.5-.5.5-1.4 0-1.9s-1.4-.5-1.9 0l-6.3 6.3c-.5.5-.5 1.4 0 1.9z"/></symbol><symbol viewBox="0 0 24 24" id="logout" xmlns="http://www.w3.org/2000/svg"><path d="M15.27 17.25a.396.396 0 00-.395.396v2.77a.793.793 0 01-.792.792h-9.5a.793.793 0 01-.791-.791V4.583c0-.436.355-.791.791-.791h9.5c.437 0 .792.355.792.791v2.771a.396.396 0 10.792 0v-2.77c0-.874-.71-1.584-1.584-1.584h-9.5C3.71 3 3 3.71 3 4.583v15.834C3 21.29 3.71 22 4.583 22h9.5c.874 0 1.584-.71 1.584-1.583v-2.771a.396.396 0 00-.396-.396z"/><path d="M21.872 12.208l-4.75-4.354a.396.396 0 00-.535.584l4 3.666H8.146a.396.396 0 100 .792h12.44l-4 3.666a.396.396 0 00.536.584l4.75-4.354a.396.396 0 000-.584z"/></symbol><symbol viewBox="0 0 24 24" id="role-admin" xmlns="http://www.w3.org/2000/svg"><path d="M21.919 10.263c-.001 0-.001 0 0 0-.745-.745-1.735-1.155-2.788-1.155s-2.043.41-2.787 1.155A3.946 3.946 0 0015.2 12.74a3.973 3.973 0 00.554 2.347l-6.536 6.535a.94.94 0 00-.277.67c0 .254.098.492.277.672a.971.971 0 001.341 0l.621-.621.812.812a.95.95 0 101.342-1.342l-.389-.388.353-.353.388.387a.974.974 0 001.343.001.946.946 0 00-.001-1.342l-.812-.811 2.879-2.88c.612.37 1.313.565 2.036.565a3.92 3.92 0 002.788-1.153c.744-.745 1.154-1.735 1.154-2.789s-.41-2.043-1.154-2.787zm-8.446 8.796c-.064.065-.102.155-.102.248s.036.181.102.247l1.059 1.059a.247.247 0 010 .353.253.253 0 01-.352-.001l-.635-.635a.352.352 0 00-.248-.102h-.001a.34.34 0 00-.245.102l-.848.847a.349.349 0 000 .494l.635.637a.25.25 0 010 .352.254.254 0 01-.353 0l-1.059-1.058a.35.35 0 00-.495-.001l-.868.868a.258.258 0 01-.354 0c-.047-.047-.073-.109-.073-.176s.026-.129.073-.176l6.737-6.736a.348.348 0 00.037-.45 3.232 3.232 0 01.352-4.173c.611-.613 1.427-.95 2.293-.95s1.682.337 2.294.95.95 1.427.95 2.293a3.22 3.22 0 01-.95 2.293l-.001.001a3.217 3.217 0 01-2.292.949c-.68 0-1.33-.207-1.88-.6a.353.353 0 00-.451.038l-3.325 3.327z"/><path d="M19.13 15.572c.674 0 1.308-.262 1.783-.738a2.507 2.507 0 00.736-1.681.345.345 0 00-.33-.356l-.015-.001a.345.345 0 00-.343.33 1.837 1.837 0 01-1.832 1.759c-.489 0-.95-.191-1.297-.537-.346-.346-.536-.807-.536-1.297s.19-.951.536-1.296c.348-.346.808-.537 1.297-.537s.949.191 1.296.537c.197.197.342.427.433.685a.344.344 0 00.649-.23 2.508 2.508 0 00-.595-.941c-.476-.477-1.109-.739-1.783-.739s-1.308.262-1.783.739a2.525 2.525 0 000 3.566 2.513 2.513 0 001.784.737zm-3.396-3.605c-.422-.422-.153-.089-.636-.417a9.307 9.307 0 00-2.192-1.101 5.403 5.403 0 002.347-4.454c0-2.98-2.424-5.405-5.405-5.405S4.443 3.015 4.443 5.995c0 1.846.93 3.478 2.347 4.454a9.31 9.31 0 00-3.552 2.228A9.286 9.286 0 00.5 19.287h1.46c0-4.349 3.538-7.888 7.888-7.888 1.598 0 4.538.81 5.721 2.604M9.848 9.939c-2.175 0-3.944-1.769-3.944-3.944s1.769-3.944 3.944-3.944 3.944 1.769 3.944 3.944-1.769 3.944-3.944 3.944z"/></symbol><symbol viewBox="0 0 24 24" id="role-data-managment" xmlns="http://www.w3.org/2000/svg"><path d="M15.925 12.447c-.422-.422-.575-.511-1.058-.839a9.307 9.307 0 00-2.192-1.101 5.403 5.403 0 002.347-4.454c0-2.98-2.424-5.405-5.405-5.405S4.212 3.073 4.212 6.053c0 1.846.93 3.478 2.347 4.454a9.31 9.31 0 00-3.552 2.228 9.286 9.286 0 00-2.738 6.61H1.73c0-4.349 3.538-7.888 7.888-7.888 1.598 0 3.087.478 4.331 1.298M9.617 9.997c-2.175 0-3.944-1.769-3.944-3.944s1.769-3.944 3.944-3.944 3.944 1.769 3.944 3.944-1.77 3.944-3.944 3.944z"/><path d="M22.826 19.487l.057-.034-.06-.03a.833.833 0 00-.119-.368.81.81 0 00.122-.43v-2.397l.057-.034-.06-.03a.823.823 0 00-.12-.368.802.802 0 00.123-.43v-2.389c0-.375 0-1.37-4.41-1.37s-4.41.995-4.41 1.37v2.389c0 .126.028.277.122.43a.83.83 0 00-.119.368l-.062.03.059.036v2.395c0 .126.028.277.122.43a.833.833 0 00-.119.368l-.06.03.057.034v2.397c0 .374 0 1.368 4.408 1.368a17.88 17.88 0 001.57-.061l2.088-.229a.89.89 0 00.794-.903l-.041-2.14v-.425l.001-.007zm-1.435 1.867l-.227.227a12.8 12.8 0 01-2.749.238c-1.677 0-2.625-.187-2.976-.278v-.925c1.008.22 2.353.248 2.976.248s1.968-.028 2.976-.248v.738zm0-3.084c-.389.111-1.333.29-2.976.29-1.677 0-2.625-.187-2.976-.278v-.925c1.008.22 2.353.248 2.976.248s1.968-.028 2.976-.248v.913zm0-3.259c-.389.111-1.333.29-2.976.29-1.677 0-2.625-.187-2.976-.278v-.925c1.008.22 2.353.248 2.976.248s1.968-.028 2.976-.248v.913zm-2.889-2.093c-1.691 0-3.062-.137-3.062-.306s1.371-.306 3.062-.306 3.062.137 3.062.306-1.371.306-3.062.306z"/></symbol><symbol viewBox="0 0 24 24" id="role-user" xmlns="http://www.w3.org/2000/svg"><path d="M20.132 15.368a11.447 11.447 0 00-4.37-2.741 6.647 6.647 0 002.887-5.479C18.648 3.483 15.666.5 12 .5S5.351 3.483 5.351 7.148a6.647 6.647 0 002.887 5.479 11.459 11.459 0 00-4.37 2.741A11.425 11.425 0 00.5 23.5h1.797c0-5.35 4.353-9.703 9.703-9.703s9.703 4.353 9.703 9.703H23.5c0-3.072-1.196-5.96-3.368-8.132zM12 12c-2.675 0-4.852-2.176-4.852-4.852S9.325 2.297 12 2.297s4.852 2.176 4.852 4.852S14.675 12 12 12z"/></symbol><symbol viewBox="0 0 24 24" id="search" xmlns="http://www.w3.org/2000/svg"><path d="M22.725 21.509L17.68 16.46a8.823 8.823 0 002.003-5.61c0-4.886-3.96-8.85-8.842-8.85C5.957 2 2 5.964 2 10.85c0 4.886 3.957 8.85 8.842 8.85a8.79 8.79 0 005.601-2.001l5.044 5.044a.873.873 0 001.238 0 .87.87 0 000-1.234zm-11.883-3.57c-3.91 0-7.086-3.18-7.086-7.089 0-3.909 3.177-7.093 7.086-7.093 3.905 0 7.087 3.184 7.087 7.093s-3.182 7.089-7.087 7.089z" fill-rule="evenodd"/></symbol><symbol viewBox="0 0 24 24" id="settings" xmlns="http://www.w3.org/2000/svg"><path d="M12 6.752c-2.894 0-5.248 2.354-5.248 5.248S9.106 17.248 12 17.248s5.248-2.354 5.248-5.248S14.894 6.752 12 6.752zm0 9.622A4.379 4.379 0 017.626 12 4.379 4.379 0 0112 7.626 4.379 4.379 0 0116.373 12 4.379 4.379 0 0112 16.374z"/><path d="M23.25 13.947v-3.895a.44.44 0 00-.345-.427l-1.907-.415-.044-.136a9.5 9.5 0 00-.555-1.336l-.065-.128 1.057-1.643a.439.439 0 00-.059-.545l-2.754-2.754a.438.438 0 00-.545-.059L16.39 3.665l-.128-.064a9.37 9.37 0 00-1.337-.554l-.136-.044-.414-1.908a.441.441 0 00-.428-.345h-3.895a.441.441 0 00-.428.345L9.21 3.002l-.136.045a9.49 9.49 0 00-1.336.553l-.128.065L5.967 2.61a.439.439 0 00-.545.058L2.668 5.422a.44.44 0 00-.059.546L3.666 7.61l-.065.128c-.218.43-.405.879-.554 1.336l-.045.137-1.908.414a.44.44 0 00-.344.428v3.895c0 .207.142.383.345.428l1.907.414.044.136c.149.458.336.907.554 1.337l.065.128-1.057 1.643a.439.439 0 00.059.546l2.754 2.754a.439.439 0 00.545.059l1.643-1.057.128.065c.428.218.877.404 1.336.555l.136.044.415 1.908a.44.44 0 00.428.344h3.895a.441.441 0 00.428-.345L14.789 21l.136-.044c.458-.15.907-.337 1.337-.555l.128-.065 1.643 1.057a.44.44 0 00.546-.059l2.754-2.754a.439.439 0 00.059-.545l-1.057-1.644.065-.128c.218-.43.404-.879.555-1.337l.044-.136 1.908-.414a.444.444 0 00.343-.429zm-.875-.352l-1.817.396a.433.433 0 00-.328.31 8.623 8.623 0 01-.784 1.892.433.433 0 00.012.451l1.007 1.566-2.255 2.256-1.565-1.007a.438.438 0 00-.451-.013 8.48 8.48 0 01-1.893.784.442.442 0 00-.311.329l-.395 1.817h-3.19l-.395-1.818a.442.442 0 00-.311-.329 8.462 8.462 0 01-1.891-.783.433.433 0 00-.451.013l-1.566 1.007-2.255-2.256 1.006-1.565a.435.435 0 00.013-.451 8.523 8.523 0 01-.785-1.893.438.438 0 00-.328-.31l-1.818-.396v-3.189l1.817-.395a.44.44 0 00.33-.311 8.523 8.523 0 01.785-1.892.435.435 0 00-.013-.451L3.536 5.791l2.255-2.256 1.566 1.006a.43.43 0 00.451.014A8.52 8.52 0 019.7 3.771a.437.437 0 00.311-.329l.395-1.818h3.19l.395 1.818a.439.439 0 00.311.329c.66.184 1.296.448 1.892.784a.435.435 0 00.452-.013l1.565-1.006 2.255 2.256-1.007 1.565a.437.437 0 00-.013.452c.338.599.602 1.235.785 1.892a.437.437 0 00.327.31l1.818.395v3.189z"/></symbol><symbol viewBox="0 0 24 24" id="simulation" xmlns="http://www.w3.org/2000/svg"><path d="M10.089 2.038a8.047 8.047 0 108.047 8.047 8.056 8.056 0 00-8.047-8.047zm0 .766a7.274 7.274 0 015.946 3.092l-.958.958a1.504 1.504 0 00-.773-.218c-.847 0-1.533.686-1.533 1.533.001.273.076.54.217.774l-2.509 2.509a1.484 1.484 0 00-1.547 0L7.189 9.709c.141-.233.216-.501.217-.774a1.53 1.53 0 00-3.011-.383H2.974a7.29 7.29 0 017.115-5.748zm4.981 5.365a.766.766 0 11-1.532 0 .766.766 0 011.532 0zm-4.598 4.598a.766.766 0 11-1.532 0 .766.766 0 011.532 0zM6.64 8.935a.766.766 0 11-1.532 0 .766.766 0 011.532 0zm6.986 7.516a7.274 7.274 0 01-3.537.915 7.276 7.276 0 01-7.24-8.047h1.546a1.533 1.533 0 001.478 1.15 1.51 1.51 0 00.774-.217l1.743 1.743a1.51 1.51 0 00-.217.774 1.533 1.533 0 103.066 0 1.51 1.51 0 00-.217-.774l2.509-2.509c.234.141.501.216.774.217.847 0 1.533-.686 1.533-1.533a1.51 1.51 0 00-.217-.774l.835-.835a7.275 7.275 0 01-2.83 9.89z"/><path d="M19.668 4.337a1.532 1.532 0 001.478-1.15H23.5v-.766h-2.354a1.533 1.533 0 00-1.478-1.15c-.847 0-1.533.686-1.533 1.533.001.273.076.54.217.774l-.672.673C14.458.054 8.444-.736 4.247 2.485S-.74 11.72 2.481 15.917a9.58 9.58 0 0012.807 2.208l1.156 1.156.542.542 3.085 3.085a2.008 2.008 0 102.841-2.841l-3.085-3.085-.542-.542-1.156-1.156a9.547 9.547 0 000-10.398l.766-.766c.233.14.501.216.773.217zm0-2.299a.766.766 0 110 1.532.766.766 0 010-1.532zm2.702 18.571a1.242 1.242 0 11-1.737 1.777l-.02-.02-3.085-3.085 1.757-1.757 3.085 3.085zm-3.627-3.627l-1.757 1.757-1.061-1.061c.054-.041.105-.087.158-.13l.172-.141c.084-.071.167-.142.248-.215l.123-.115c.157-.147.309-.299.456-.456l.115-.123a10.33 10.33 0 00.356-.42c.042-.053.088-.103.129-.157l1.061 1.061zm-1.486-1.779a8.67 8.67 0 01-.377.493c-.038.046-.079.091-.119.137a8.537 8.537 0 01-.926.926c-.046.038-.09.08-.137.119A8.827 8.827 0 114.944 2.889a8.827 8.827 0 0112.313 12.314z"/></symbol><symbol viewBox="0 0 24 24" id="upload" xmlns="http://www.w3.org/2000/svg"><path d="M19.1 7.6c-.8-3.9-4.6-6.4-8.5-5.7-2.8.6-5.1 2.8-5.6 5.7-2.8.3-4.7 2.8-4.4 5.6.3 2.5 2.4 4.5 5 4.5h3.6c.4 0 .7-.3.7-.7s-.3-.7-.7-.7H5.5c-2 0-3.6-1.6-3.6-3.6C2 10.6 3.6 9 5.6 9c.4 0 .7-.3.7-.6.4-3.2 3.2-5.4 6.4-5.1 2.7.3 4.7 2.4 5.1 5.1 0 .3.3.6.7.6 2 0 3.6 1.6 3.6 3.6s-1.6 3.6-3.6 3.6h-3.6c-.4 0-.7.3-.7.7s.3.7.7.7h3.6c2.8 0 5-2.3 5-5.1 0-2.5-1.9-4.6-4.4-4.9z"/><path d="M14.6 14.7c.3.3.7.3 1 0 .3-.3.3-.7 0-1l-3.1-3.1c-.3-.3-.7-.3-1 0l-3.1 3.1c-.3.3-.3.7 0 1 .3.3.7.3 1 0l1.8-1.8V22c0 .4.3.7.7.7.4 0 .7-.3.7-.7v-9.1l2 1.8z"/></symbol><symbol viewBox="0 0 24 24" id="users" xmlns="http://www.w3.org/2000/svg"><path d="M11.244 10.834l-.469-.16.408-.282a4.357 4.357 0 001.102-6.053 4.353 4.353 0 00-6.054-1.102A4.357 4.357 0 005.129 9.29c.299.432.67.803 1.102 1.102l.41.284-.473.159a7.94 7.94 0 00-5.418 7.52v2.069c0 .243.197.44.44.44h14.996a.44.44 0 00.44-.44v-2.069a7.945 7.945 0 00-5.382-7.521zM5.237 6.87a3.473 3.473 0 013.469-3.469h.002c.926 0 1.797.36 2.452 1.015a3.443 3.443 0 011.017 2.453 3.474 3.474 0 01-3.468 3.472A3.473 3.473 0 015.237 6.87zm10.53 13.094H1.63v-1.63a7.069 7.069 0 017.176-6.944 7.032 7.032 0 016.94 6.934l.021 1.64zm2.747-.137l4.295-.001a.44.44 0 00.44-.44v-1.812a7.099 7.099 0 00-4.674-6.627l-.408-.147.332-.279a3.87 3.87 0 00.956-4.769 3.896 3.896 0 00-5.243-1.667c-.11.096-.162.308-.084.489a.442.442 0 00.578.229 2.991 2.991 0 011.454-.39h.025c.795 0 1.543.306 2.111.864a2.99 2.99 0 01.899 2.122 3.053 3.053 0 01-2.005 2.822c-.326.1-.654.162-.986.188a7.175 7.175 0 00-.823.138.43.43 0 00.145.845l.659-.001c3.405.005 6.18 2.779 6.185 6.184v1.372h-3.856a.439.439 0 00-.31.751.434.434 0 00.31.129z"/></symbol></svg>